<?xml version="1.0" encoding="utf-8"?>
<!-- Generator: Adobe Illustrator 21.0.2, SVG Export Plug-In . SVG Version: 6.00 Build 0)  -->
<svg version="1.1" id="Layer_1" xmlns="http://www.w3.org/2000/svg" xmlns:xlink="http://www.w3.org/1999/xlink" x="0px" y="0px"
	 viewBox="0 0 246.1 191.7" style="enable-background:new 0 0 246.1 191.7;" xml:space="preserve">
<style type="text/css">
	.st0{fill:#D0D2D3;}
	.st1{fill:#050506;}
	.st2{fill:#050606;}
	.st3{fill-rule:evenodd;clip-rule:evenodd;fill:#050506;}
	.st4{fill-rule:evenodd;clip-rule:evenodd;fill:#D6883F;}
	.st5{fill-rule:evenodd;clip-rule:evenodd;fill:#FFFFFF;}
	.st6{fill-rule:evenodd;clip-rule:evenodd;fill:#F89C49;}
	.st7{fill-rule:evenodd;clip-rule:evenodd;fill:#00ADEE;}
	.st8{fill:none;stroke:#E1098B;stroke-miterlimit:10;}
	.st9{fill:#00ADEE;}
	.st10{fill:#FFFFFF;}
	.st11{fill:#00588D;}
	.st12{fill:#231F20;}
</style>
<g>
	<g>
		<path class="st0" d="M180.6,61.8l5.8-9.5l-8.6-2.2l3.3-8.5l-9.1-0.6l1.6-9l-8.6,1.1l0.1-9.1l-8.4,2.6l-1.6-9.2l-0.2,0.1l2.1-5.4
			l-1.4-1c-10.1-7-21.2-10.4-33-10.3l-0.4,0c-0.3,0-0.5,0-0.8,0c-0.2,0-0.5,0-0.7,0c-15.9,0.7-28.1,7.8-31.5,9.9l-1.6,1l2.4,6
			l-1.5,8.8L80.1,24l0.1,9.1L71.6,32l1.6,9l-9.1,0.6l3.3,8.5l-8.6,2.2l5.8,9.5l27.5,9.1c-0.2,1.3-0.4,2.4-0.5,2.9L81.4,98.3l1.4,1
			c0.4,0.3,9.2,6.9,21.5,7.3v2.2l-19,16h75.5l-19-16v-2.4c11.9-1.2,20.2-6.8,20.6-7.1l1.5-1l-11.1-26.5c0-0.1-0.1-0.3-0.2-0.6
			l4.5-1.7L180.6,61.8z"/>
		<path class="st0" d="M163.1,125.8H83l20.4-17.3v-1c-12.2-0.7-20.8-7.2-21.2-7.5l-1.9-1.4l10.6-25c0.1-0.4,0.2-1.1,0.3-2.1l-27.1-9
			l-6.6-10.8l8.8-2.2L63,40.8l9.3-0.6L70.6,31l8.8,1.1l-0.1-9.2l8.6,2.6l1.3-7.6l-2.5-6.4l2.1-1.4c3.4-2.2,15.9-9.3,31.9-10.1
			c0.2,0,0.5,0,0.7,0c0.3,0,0.5,0,0.8,0l0.4,0c11.9-0.1,23.2,3.4,33.4,10.5l2,1.4l-2,5.3l1.4,8.4l8.6-2.6l-0.1,9.2l8.8-1.1l-1.7,9.2
			l9.3,0.6l-3.4,8.7l8.8,2.2l-6.6,10.8l-23.8,7.9l-3.7,1.4l11.2,26.9l-2.1,1.4c-0.3,0.2-8.5,5.8-20.2,7.1v1.3L163.1,125.8z
			 M87.6,124.1h70.8L141,109.3v-3.6l0.8-0.1c11.7-1.2,19.8-6.7,20.2-6.9l0.9-0.6L152,72.1c0-0.1-0.1-0.3-0.2-0.6l-0.3-0.8l5.2-2
			l23.3-7.7l5.1-8.3l-8.4-2.1l3.2-8.3l-8.9-0.6l1.6-8.8l-8.4,1.1l0.1-8.9l-8.2,2.5l-1.5-9l-1.2,0.6l2.6-6.9l-0.9-0.6
			c-10-6.9-20.9-10.3-32.5-10.2l-0.4,0c-0.3,0-0.5,0-0.8,0c-0.2,0-0.5,0-0.7,0C105.1,2.5,93,9.4,89.7,11.5l-1,0.6l2.2,5.5l-1.7,10
			L81,25.2l0.1,8.9L72.7,33l1.6,8.8l-8.9,0.6l3.2,8.3l-8.4,2.1l5.1,8.3l27.9,9.3l-0.1,0.7c-0.2,1.3-0.4,2.4-0.5,2.8l-0.1,0.2
			L82.5,98l0.9,0.6c0.4,0.3,9,6.7,21,7.2l0.8,0v3.4L87.6,124.1z"/>
		<path class="st1" d="M143,42.6L154.4,13c-11-7.6-22-10-31.7-9.9c-0.1,0-0.3,0-0.4,0c-0.3,0-0.5,0-0.8,0c-0.2,0-0.5,0-0.7,0
			c-15.3,0.7-27.2,7.5-30.4,9.6l11.9,30c-7.7,4.2-8.9,9.1-9,11.2l-1.1,13.8L99,55.4c0-0.1,0.7-1.3,2.4-2.8l2.3,1.7v0l0,0l0.1,0.1
			c-0.3,1-0.6,2.1-0.8,3.1l-0.3,1.2c-0.2,0.2-0.4,0.3-0.6,0.5l0.4,0.4l-0.7,2.8l2.6-0.7l1.7,2c0,0,0,0-0.2,0.1c0,0,3.6-2.2,17.1-2.2
			c13.4,0,16.7,2.1,16.8,2.1c-0.2-0.1-0.2-0.2-0.2-0.2l1.7-1.9l2.9,0.7l-0.7-2.7l0.4-0.3c-0.2-0.2-0.4-0.5-0.6-0.7l-0.3-1.3
			c-0.3-1.1-0.6-2.3-0.9-3.5l2.2-1.3c1.5,1.4,2.1,2.4,2.1,2.5l7.9,12.8l-2.2-14.3C152,51.7,150.8,46.8,143,42.6z"/>
		<path class="st1" d="M183,53.7l-6.9-1.8l-15.7,7.3c-0.1-0.1-0.1-0.2-0.2-0.3l15.2-8.4l2.6-6.8l-7.1-0.5l-14.3,10.1
			c-0.1-0.1-0.1-0.2-0.2-0.3l13.3-11.2l1.3-7.2l-7.1,0.9l-12,12.6c-0.1-0.1-0.3-0.3-0.4-0.4l11.3-13.3l0.1-7.4l-6.8,2.1l-9.8,14.4
			c-0.1-0.1-0.2-0.1-0.3-0.2l8.8-15.3l-1.2-7.2l-6.3,3.3l-7,16c-5.3-2.4-11.1-3.7-17.3-3.7c-0.1,0-0.2,0-0.3,0c-0.1,0-0.2,0-0.3,0
			c-6.2,0-12,1.3-17.3,3.7l-7-16l-6.3-3.3L90.6,28l8.8,15.3c-0.1,0.1-0.2,0.1-0.3,0.2l-9.8-14.4l-6.8-2.1l0.1,7.4l11.3,13.3
			c-0.1,0.1-0.3,0.3-0.4,0.4l-12-12.6l-7.1-0.9l1.3,7.2L89,53c-0.1,0.1-0.1,0.2-0.2,0.3L74.5,43.2l-7.1,0.5l2.6,6.8l15.2,8.4
			c-0.1,0.1-0.1,0.2-0.2,0.3l-15.7-7.3l-6.9,1.8l3.8,6.2L93.6,69c0,0,3.5-8.8,23.4-10.4c19.9-1.6,30,5.3,33.8,11l5.6-2.1l22.8-7.6
			L183,53.7z"/>
		<path class="st1" d="M150.7,69.9l-0.1-0.2c-2-3-10.4-12.7-33.5-10.9c-10.2,0.8-15.9,3.6-19,5.7c-3.3,2.3-4.2,4.5-4.2,4.5l-0.1,0.2
			l-0.3-0.1L66,60.2l-4.1-6.7l7.4-1.9l13,6l-12.5-6.9L67,43.4l7.6-0.5l12.1,8.6L75.4,42L74,34.3l7.6,1l11.8,12.4c0,0,0,0,0,0
			L82.2,34.5l-0.1-7.8l7.3,2.2L98,41.5l-7.7-13.4l1.3-7.7l6.8,3.6l0,0.1l6.9,15.7c5.4-2.4,11.2-3.6,17.2-3.6c0.1,0,0.1,0,0.2,0
			l0.1,0l0,0c0.1,0,0.1,0,0.2,0c6,0,11.7,1.2,17.2,3.6l6.9-15.8l6.8-3.6l1.3,7.7l-7.7,13.4l8.6-12.6l7.3-2.2l-0.1,7.8l-0.1,0.1
			l-11.2,13.1c0,0,0,0,0,0l11.8-12.4l7.6-1L170,42l-11.3,9.5l12.1-8.6l7.6,0.5l-2.8,7.3l-12.5,6.9l13-6l7.4,1.9l-4.1,6.7l-22.9,7.6
			L150.7,69.9z M122.6,58.1c6.6,0,12.4,1,17.4,3c4.7,1.9,8.6,4.8,10.9,8.2l5.4-2l22.7-7.5l3.6-5.8l-6.5-1.7l-15.9,7.3l-0.4-0.8
			l15.3-8.5l2.5-6.4l-6.6-0.4l-14.4,10.2L156,53l13.5-11.3l1.2-6.8l-6.6,0.9L152,48.5l-0.2-0.2c-0.1-0.1-0.3-0.3-0.4-0.4l-0.2-0.2
			l11.4-13.4l0.1-6.9l-6.4,1.9l-9.9,14.6l-0.8-0.5l8.9-15.4l-1.2-6.8l-5.9,3.1l-7.1,16.2l-0.3-0.1c-5.4-2.5-11.2-3.7-17.2-3.7
			l-0.3,0l-0.3,0c-6,0-11.8,1.3-17.2,3.7l-0.3,0.1l-7.1-16.2L92,21.2L90.8,28l8.9,15.4l-0.8,0.5L89,29.4l-6.4-1.9l0.1,6.9l11.4,13.4
			L94,47.9c-0.1,0.1-0.3,0.3-0.4,0.4l-0.2,0.2L81.3,35.8l-6.6-0.9l1.2,6.8L89.4,53l-0.5,0.7L74.4,43.4l-6.6,0.4l2.5,6.4l15.3,8.5
			l-0.4,0.8l-15.9-7.3l-6.5,1.7l3.6,5.8l27.1,9c0.7-1.5,5.3-8.9,23.5-10.4C118.9,58.2,120.8,58.1,122.6,58.1z"/>
		<path class="st1" d="M176.1,51.9l-15.7,7.3c-0.1-0.1-0.1-0.2-0.2-0.3l15.2-8.4l2.6-6.8l-7.1-0.5l-14.3,10.1
			c-0.1-0.1-0.1-0.2-0.2-0.3l13.3-11.2l1.3-7.2l-7.1,0.9l-12,12.6c-0.1-0.1-0.3-0.3-0.4-0.4l11.3-13.3l0.1-7.4l-6.8,2.1l-9.8,14.4
			c-0.1-0.1-0.2-0.1-0.3-0.2l8.8-15.3l-1.2-7.2l-6.3,3.3l-7,16c-5.3-2.4-11.1-3.7-17.3-3.7c-0.1,0-0.2,0-0.3,0c-0.1,0-0.2,0-0.3,0
			c-6.2,0-12,1.3-17.3,3.7l-7-16l-6.3-3.3L90.6,28l8.8,15.3c-0.1,0.1-0.2,0.1-0.3,0.2l-9.8-14.4l-6.8-2.1l0.1,7.4l11.3,13.3
			c-0.1,0.1-0.3,0.3-0.4,0.4l-12-12.6l-7.1-0.9l1.3,7.2L89,53c-0.1,0.1-0.1,0.2-0.2,0.3L74.5,43.2l-7.1,0.5l2.6,6.8l15.2,8.4
			c-0.1,0.1-0.1,0.2-0.2,0.3l-15.7-7.3l-6.9,1.8l3.8,6.2L93.6,69l1.4-3.7c1.2-2.5,2.8-4.8,4.6-6.8l0.7-0.8
			c5.5-5.8,13.3-9.5,21.9-9.5v0c0.1,0,0.3,0,0.4,0c0.1,0,0.3,0,0.4,0v0c8.6,0,16.4,3.7,21.9,9.5l0.7,0.8c1.8,2,3.3,4.3,4.6,6.8
			l1.4,3.7l27.4-9.1l3.8-6.2L176.1,51.9z"/>
		<path class="st1" d="M66.2,59.9L93.6,69c0,0,3.5-8.8,23.4-10.4s30,5.3,33.8,11l9.6-3.6l-15.3-18.4c0,0-17.8-8.5-28.7-3.9
			s-17.2,8.5-19.6,10.8c-2.4,2.4-2.4,2.4-2.4,2.4l-3.8,3.9l-0.6,0.6l-3.9,1.3"/>
		<polygon class="st1" points="139.6,109.9 139.6,86.3 128.4,86.2 128.4,86.1 123.1,86.1 117.8,86.1 117.8,86.2 106.5,86.3 
			106.5,109.9 91.4,122.7 154.7,122.7 		"/>
		<path class="st1" d="M101.3,56.8c0,0-4.1,0.5-6.5,13.4C95.1,69.9,95,72,95,72L84.1,97.6c0,0,11.3,8.6,26,6.6c0,0,0.2-46.9,0-46.7
			c-0.2,0.2-9.1-0.7-9.1-0.7"/>
		<path class="st2" d="M152.4,49.2c0.1,0.4-3.6,8.1-4.3,8.2s-3.8,1.2-5,0c-1.2-1.2-1.3-4.6-2.4-5.4s1.3-4.6,1.3-4.6"/>
		<path class="st3" d="M118.7,101.3c1.7,1,3.2,1.2,5.2,1.1c3.9-0.1,7.9-3.1,10-5.1c6.9-6.7,11.5-18.8,11.5-18.8
			c2.1-2.8,2.8-9,1.3-10.9c0.8-3.8,0.9-8.3,0-12.1c-2.9-10.2-15-16.5-15-16.5c-1.5-0.5-3.4-1.1-5-1.1c-1.1,0-2.4,0.6-2.8,1.5
			c-0.4-0.9-1.7-1.6-2.8-1.5c-9.3,0.4-17.3,9.4-19.3,15.4c-1.6,4.6-1.6,9.7-0.6,14.4c-1.5,1.9-0.8,8.1,1.3,10.9c0,0,0,0,0,0
			c0.7,0.7,2.7,2.8,3,3.5c0.4,0.9,2.7,12,13,19C118.5,101.1,118.6,101.2,118.7,101.3z"/>
		<path class="st4" d="M124.1,56.3c0.9,6.9,12,7.5,14.4,12.8c2.2,4.8,0.4,10.4-1.3,15.1c0.5-0.3,1-0.7,1.5-1.3
			c-0.5,2.1-0.6,4.5-1.8,6.4c-2.3,3.5-6,7.4-8.5,9.6c-1.4,1.2-2.3,1.2-4.3,1.2c-1.9,0-2.9,0-4.3-1.2c-2.5-2.2-6.3-6.1-8.5-9.6
			c-1.2-1.9-1.3-4.3-1.8-6.4c0.5,0.6,1,1,1.5,1.3c-1.8-4.7-3.5-10.3-1.3-15.1C112.2,63.8,123.2,63.2,124.1,56.3"/>
		<path class="st3" d="M124.1,85.6c1.3,0,2.8-1.4,4.3-1.6c0-1.3-0.6-2.1-1.5-2.8c1.1,0.1,2.4,1.5,2.8,2.7c0.4,1.4-1.1,1.1-1.8,1.3
			c-1.6,0.4-2.2,1.5-3.8,1.5c-1.6,0-2.2-1.1-3.8-1.5c-0.7-0.2-2.1,0.1-1.8-1.3c0.3-1.2,1.7-2.7,2.8-2.7c-0.8,0.7-1.4,1.5-1.5,2.8
			C121.2,84.2,122.8,85.6,124.1,85.6"/>
		<path class="st3" d="M124.1,89.1c2-1.1,2.5-0.3,6.8,0.9c-0.1-0.6-0.3-1.4-0.5-2.4c1.9,2.2,2.1,3.9,1,3.9c-1-0.4-3.1-1-4.5-1.2
			c-0.3,0-1.7,0.3-2.7,0.3c-1.1,0-2.5-0.3-2.7-0.3c-1.5,0.2-3.6,0.8-4.5,1.2c-1.2,0-0.9-1.6,1-3.9c-0.3,0.9-0.5,1.7-0.5,2.4
			C121.5,88.9,122.1,88,124.1,89.1"/>
		<path class="st3" d="M124.1,93c1.6,0,3.1-0.3,4.7-0.4c-1.5,1.8-2.8,3-4.7,3c-1.9,0-3.2-1.2-4.7-3C120.9,92.7,122.5,93,124.1,93"/>
		<path class="st5" d="M112.9,73.9l1.3,1c0,0,2.3,0.6,4.2-0.2c-1-1.6-2-2-2-2s-0.3-0.2-0.4,0c-0.2,0.1-0.6,0.3-0.8,0.2
			C114.8,72.8,112.9,73.9,112.9,73.9z"/>
		<path class="st3" d="M121.3,70.5c0.8,1.6,0,2.3-0.5,1.9c-2.7-1-5-3.9-8-3c-2.2,0.7-3.2,3.2-1.6,3.9c-0.3-1.1,0.3-1.7,0.8-1.9
			c1.1-0.4,1.6,0,2.6,0.5c-1.1,0.4-2.1,0.8-2.7,2.2c0.5,0.6,1.3,0.8,2.4,0.7c-0.3-0.3-0.5-0.7-0.7-1c0.3-0.2,0.6-0.3,0.9-0.3
			c0.4,1.6,2,1.5,3.7,0.8c-0.6,1.5-2.7,2.4-5.1,1.9c0.9,1.9,4.7,1.6,6.8-1c0.7,0.5,1.1,1.4,1.3,2.4c0.4-0.7,0.5-2.2,0.4-4.1
			C122.9,72.5,122.3,70.8,121.3,70.5"/>
		<path class="st5" d="M135.4,73.9l-1.3,1c0,0-2.3,0.6-4.2-0.2c1-1.6,2-2,2-2s0.3-0.2,0.4,0c0.2,0.1,0.6,0.3,0.8,0.2
			C133.5,72.8,135.4,73.9,135.4,73.9z"/>
		<path class="st3" d="M127,70.5c-0.8,1.6,0,2.3,0.5,1.9c2.7-1,5-3.9,8-3c2.2,0.7,3.2,3.2,1.6,3.9c0.3-1.1-0.3-1.7-0.8-1.9
			c-1.1-0.4-1.6,0-2.6,0.5c1.1,0.4,2.1,0.8,2.7,2.2c-0.5,0.6-1.3,0.8-2.4,0.7c0.3-0.3,0.5-0.7,0.7-1c-0.3-0.2-0.6-0.3-0.9-0.3
			c-0.4,1.6-2,1.5-3.7,0.8c0.6,1.5,2.7,2.4,5.1,1.9c-0.9,1.9-4.7,1.6-6.8-1c-0.7,0.5-1.1,1.4-1.3,2.4c-0.4-0.7-0.5-2.2-0.4-4.1
			C125.4,72.5,126,70.8,127,70.5"/>
		<path class="st6" d="M120.5,83.4c1.7,0.6,2.4,1.5,3.5,1.5c1.2,0,1.8-0.9,3.6-1.5c-0.2-0.8-1-1.6-1-1.6l-1,0.7l0.2-1.2l-0.4-6.9
			l-1.3-0.6l-1.3,0.6l-0.4,6.9l0.2,1.2l-1-0.7C121.5,81.8,120.7,82.6,120.5,83.4z"/>
		<path class="st6" d="M118.9,69.7c-0.7-1.9-1.8-3.1-1.8-3.1s5,0.8,7,3.8c1.9-3,7-3.8,7-3.8s-1.1,1.2-1.8,3.1
			c2.3-1.9,6.6-1.4,6.5-1.5c-1.9-2.6-4.1-2.4-7.3-4.5c-3.2-2-4.3-3.5-4.3-3.5s-1.1,1.5-4.3,3.5c-3.2,2-5.4,1.8-7.3,4.5
			C112.3,68.3,116.6,67.7,118.9,69.7z"/>
		<path class="st6" d="M114.3,84.4c0,0,4.1-2.8,5-6.5c-5.5,2.3-8.5-1.9-8.5-1.9C109.4,80.6,114.3,84.4,114.3,84.4z"/>
		<path class="st6" d="M113.3,89.6c0,0,0.4,1.7,2.3,3c-1.5-2.2,1.4-7.5,1.4-7.5C114.3,87.5,113.3,89.6,113.3,89.6z"/>
		<path class="st6" d="M122.8,88.2v-1l-3.1-1.3c0,0-1.2,1.9-1.6,3.2c1.8-0.9,3.6-1.1,3.6-1.1L122.8,88.2z"/>
		<path class="st6" d="M128.8,77.9c0.8,3.7,5,6.5,5,6.5s4.9-3.8,3.5-8.5C137.3,76,134.4,80.3,128.8,77.9z"/>
		<path class="st6" d="M131.2,85.1c0,0,2.9,5.3,1.4,7.5c1.9-1.3,2.3-3,2.3-3S133.8,87.5,131.2,85.1z"/>
		<path class="st6" d="M124.1,96.5c0,0-2.4,0.2-3.5-0.7c0,2.3,0.9,3.1,0.9,3.1s1.2,0.6,2.7,0.5v0c1.5,0,2.7-0.5,2.7-0.5
			s0.9-0.8,0.9-3.1C126.4,96.8,124.1,96.5,124.1,96.5z"/>
		<path class="st6" d="M125.3,87.2v1l1-0.2c0,0,1.8,0.2,3.6,1.1c-0.3-1.2-1.6-3.2-1.6-3.2L125.3,87.2z"/>
		<path class="st4" d="M110.2,68.3c0.2,0,27.8,0,27.8,0s-2.9-6.6-4.2-7.1c-1.3-0.5-7.1-2.4-9.3-2.4c-2.2,0-8,1.1-8.8,1.1"/>
		<path class="st3" d="M106.7,66.8c0.5,0,16,0,16,0l1.8-3.2l1.9,3.3h1.6l0.7-1.6l0.8,1.7h12.3c0,0,1.8-14.3-4.3-16.8
			c-6-2.5-11-5.2-15.1-3.6s-9.7,3.4-11.6,4.8"/>
		<path class="st3" d="M111.8,74.1c0,0,1.5,2.6,6.5,0.6c0,0,0.3-1.7,0.2-1.7c-0.1,0-3-0.6-3.2-0.5S111.8,74.1,111.8,74.1z"/>
		<path class="st3" d="M136.5,74.1c0,0-1.1,1.9-6.4,1c-5.3-0.9,0-1.8,0-1.8s4.5-0.6,4.6-0.6C134.7,72.8,136.5,74.1,136.5,74.1z"/>
		<path class="st3" d="M124.4,70.5v14.4c0,0,0.6-0.1,1.4-0.5c0.8-0.4,1.9-1,1.9-1s-0.3-1.1-1-1.6l-1,0.7l0.1-1.2v-6.6l1.5-1.5
			L124.4,70.5z"/>
		<path class="st3" d="M127.3,75.2c0,0.3,0,6,0,6l1.5-3.3c0,0,1.4,4.8,5,6.5c0,0,4-0.4,6.5-7.6c0,0-1.1,11.4-4.7,14.8
			c0,0-2.6-4.8-4.7-6.8c-2.2-2-2.7-2.7-2.7-2.7s0,1.1-1,1.2c-1,0.1-1.9,0.4-2-0.1c-0.1-0.4,0-10.1,0.1-10.5c0.1-0.4,1.9,0.7,1.9,0.7
			l1.1,1"/>
		<path class="st1" d="M124.4,70.5v14.4c0,0,1.8-0.1,3.9-1.9l0.5-5c0,0-1.4-3,0.8-4.2c2.1-1.2-3.7,0.7-3.8,0.7"/>
		<path class="st1" d="M128.6,75.3c0,0,1.1,7.1,5.2,9c0,0,2.9-1.1,6.9-6.5c4-5.4-0.4,6-0.4,6s-2.7,2.8-3.6,3.3s-1.9,0.3-2.1,0.3
			s-6.3-5.8-6.5-6c-0.2-0.3-2.4-2.7-2.4-3.1c0-0.4,0.2-2.2,0.2-2.2l0.4-1.4l0.7-0.8"/>
		<path class="st1" d="M139.6,74.6c0,0-0.5,6.8-5.8,9.7s3.6,1.6,3.8,1.6c0.1-0.1,6-8,6.2-9c0.2-1,1-3.1,0.5-3.6
			c-0.5-0.5-1.9-0.9-1.9-0.9"/>
		<path class="st1" d="M129.2,83.1l1.2,4.6l1.7,2.9l-3.5,2.1c0,0,0.9,6.6-2.7,8c-3.6,1.4,3.8-0.5,4.2-0.9c0.3-0.4,7.6-6.7,7.8-7.9
			c0.2-1.2,0.8-4.2,0.8-4.2l-2-0.9"/>
		<path class="st1" d="M137.6,66.5l-1.3,3.6l1.2,2c0,0,0,1.6-2.6,1.8c0,0,2.3,0.1,2.5,2.9c0.1,2.8-0.5,5.2-3.5,7.7
			c-3,2.6-1.5,3.8-0.6,3.8s6.6-6.3,6.6-6.3s1.7-0.3,2.6-5.6c0.8-5.3,2-7.9,1-9.5c-1.1-1.5-0.3-0.8-1.4-2s-1.5-1.2-1.5-1.2"/>
		<polyline class="st1" points="136.6,70.4 131.2,65 140.7,64.8 		"/>
		<path class="st6" d="M114.2,101.2c0,0,6.8,5.5,17.4,1.5l-6.3,10l-4.1-1.3l2.8,3.3l-1,2.6h-16.1l6.4-2.7v-10.2l5.8,3.9
			C119.1,108.2,115.3,104,114.2,101.2z"/>
		<polygon class="st7" points="107.5,88.6 109.3,97.2 106.3,99.5 106.3,88.2 		"/>
		<polygon class="st7" points="104.3,88.6 102.6,97.2 105.6,99.5 105.6,88.2 		"/>
		<path class="st7" d="M105.7,87.3c1,0,1.8,0.6,2.2,1.4c0.2-0.3,0.3-0.7,0.3-1.1c0-1.4-1.1-2.5-2.5-2.5c-1.4,0-2.5,1.1-2.5,2.5
			c0,0.4,0.1,0.8,0.3,1.1C103.9,87.8,104.8,87.3,105.7,87.3z"/>
		<polygon class="st7" points="144.1,88.6 145.8,97.2 142.8,99.5 142.8,88.2 		"/>
		<polygon class="st7" points="140.8,88.6 139.1,97.2 142.1,99.5 142.1,88.2 		"/>
		<path class="st7" d="M142.3,87.3c1,0,1.8,0.6,2.2,1.4c0.2-0.3,0.3-0.7,0.3-1.1c0-1.4-1.1-2.5-2.5-2.5s-2.5,1.1-2.5,2.5
			c0,0.4,0.1,0.8,0.3,1.1C140.4,87.8,141.3,87.3,142.3,87.3z"/>
		<path class="st2" d="M98.3,21.2c0,0,8.5-4.3,22-4.4c13.5-0.1,26.2,4,26.2,4s1.4,1.5,1.2,1.3c-0.2-0.2-12,28.5-12,28.5
			s-16-1.2-20.4-0.6c-4.3,0.7-5.7,1.2-5.8,0.9C109.5,50.5,98.3,21.2,98.3,21.2z"/>
		<path class="st2" d="M112.9,40.9c-0.4-0.1-2.9-1.5-4.3-0.9s-7.3,5.5-8.1,6.2c-0.8,0.7-7.7,6.1-7.7,6.6s1.9,4.2,2.6,4.3
			c0.7,0.1,5.6,0.7,5.8,0.8c0.2,0.1,2.5-0.8,2.3-0.2c-0.2,0.6,1,2,0.8,2.6c-0.2,0.6-0.2,0.6-0.2,0.6s-0.4,1.7,0.1,1.9
			s1.9-0.1,3.5-0.5s18.4,0,18.8-0.5c0.4-0.5,4.1-1.4,5.5-1.2c1.4,0.2,4.9,1.9,6.3,2.2s3.3,1.2,3.5,0.7c0.1-0.5-0.4-4.6-0.5-5.1
			c-0.1-0.6,0.7-1.9,0.7-1.9s0.3-0.6,1.4-0.9c1.1-0.3,2.4,0.4,1.9-1.4c-0.5-1.7-0.5-4.5-1.2-4.7c-0.7-0.2,5.3,7.9,6.1,7.9
			c0.8-0.1,3.2-4.3,2.9-4.9c-0.3-0.7-2.5-3.1-4.2-4.6c-1.7-1.5-3-3.1-4.6-4.4c-1.6-1.3-5.4-6.6-7-7.4c-1.5-0.9-5.4-2.2-5.4-2.2
			s-4.6-1.5-6.7-1.1c-2.1,0.5-6.3,1.2-6.3,1.2"/>
		<path class="st8" d="M136.8,71.5"/>
		<path class="st9" d="M141.8,54.3c-3-5.2-15.5-5.3-18.6-5.3c0,0,0,0,0,0s-0.1,0-0.3,0c-0.2,0-0.3,0-0.3,0s0,0,0,0
			c-3.1,0.1-14.8-0.1-18.9,5.4c0,0,3.4-4,19.2-4C138.7,50.4,141.8,54.3,141.8,54.3z"/>
		<path class="st9" d="M141.6,61.4c-2.9-3.6-15.2-3.6-18.3-3.7c0,0,0,0,0,0s-0.1,0-0.3,0c-0.2,0-0.3,0-0.3,0s0,0,0,0
			c-3.1,0-14.5-0.1-18.6,3.7c0,0,3.3-2.7,18.9-2.7C138.6,58.8,141.6,61.4,141.6,61.4z"/>
		
			<rect x="121.4" y="42.1" transform="matrix(-1 -1.224647e-16 1.224647e-16 -1 246.0009 85.1149)" class="st9" width="3.2" height="0.9"/>
		
			<rect x="122.6" y="40.9" transform="matrix(6.123234e-17 -1 1 6.123234e-17 82.802 165.5579)" class="st9" width="3.2" height="0.9"/>
		
			<rect x="120.2" y="43.5" transform="matrix(6.123234e-17 -1 1 6.123234e-17 77.9046 165.7374)" class="st9" width="3.2" height="0.9"/>
		<rect x="121.4" y="44.7" class="st9" width="3.2" height="0.9"/>
		
			<rect x="121.4" y="37.2" transform="matrix(-1 -1.224647e-16 1.224647e-16 -1 246.0009 75.2784)" class="st9" width="3.2" height="0.9"/>
		
			<rect x="122.6" y="36" transform="matrix(6.123234e-17 -1 1 6.123234e-17 87.7202 160.6396)" class="st9" width="3.2" height="0.9"/>
		
			<rect x="120.2" y="38.6" transform="matrix(6.123234e-17 -1 1 6.123234e-17 82.8228 160.8191)" class="st9" width="3.2" height="0.9"/>
		<rect x="121.4" y="39.7" class="st9" width="3.2" height="0.9"/>
		
			<rect x="121.4" y="32.3" transform="matrix(-1 -1.224647e-16 1.224647e-16 -1 246.0009 65.5066)" class="st9" width="3.2" height="0.9"/>
		
			<rect x="122.6" y="31.1" transform="matrix(6.123234e-17 -1 1 6.123234e-17 92.6061 155.7537)" class="st9" width="3.2" height="0.9"/>
		
			<rect x="120.2" y="33.7" transform="matrix(6.123234e-17 -1 1 6.123234e-17 87.7087 155.9332)" class="st9" width="3.2" height="0.9"/>
		<rect x="121.4" y="34.8" class="st9" width="3.2" height="0.9"/>
		
			<rect x="121.4" y="27.4" transform="matrix(-1 -1.224647e-16 1.224647e-16 -1 246.0009 55.6701)" class="st9" width="3.2" height="0.9"/>
		
			<rect x="122.6" y="26.2" transform="matrix(6.123234e-17 -1 1 6.123234e-17 97.5244 150.8355)" class="st9" width="3.2" height="0.9"/>
		
			<rect x="120.2" y="28.7" transform="matrix(6.123234e-17 -1 1 6.123234e-17 92.627 151.015)" class="st9" width="3.2" height="0.9"/>
		<rect x="121.4" y="29.9" class="st9" width="3.2" height="0.9"/>
		
			<rect x="129.7" y="43.4" transform="matrix(0.9277 0.3734 -0.3734 0.9277 25.8815 -45.8504)" class="st9" width="3.2" height="0.9"/>
		<rect x="129" y="41.9" transform="matrix(0.3734 -0.9277 0.9277 0.3734 42.57 147.7086)" class="st9" width="3.2" height="0.9"/>
		
			<rect x="130.2" y="45.1" transform="matrix(0.3734 -0.9277 0.9277 0.3734 40.3456 150.8867)" class="st9" width="3.2" height="0.9"/>
		
			<rect x="128.7" y="45.8" transform="matrix(-0.9277 -0.3734 0.3734 -0.9277 233.9764 137.7873)" class="st9" width="3.2" height="0.9"/>
		
			<rect x="131.5" y="38.9" transform="matrix(0.9277 0.3734 -0.3734 0.9277 24.3106 -46.8663)" class="st9" width="3.2" height="0.9"/>
		
			<rect x="130.8" y="37.3" transform="matrix(0.3734 -0.9277 0.9277 0.3734 47.9532 146.5536)" class="st9" width="3.2" height="0.9"/>
		
			<rect x="132.1" y="40.6" transform="matrix(0.3734 -0.9277 0.9277 0.3734 45.7288 149.7317)" class="st9" width="3.2" height="0.9"/>
		
			<rect x="130.5" y="41.2" transform="matrix(-0.9277 -0.3734 0.3734 -0.9277 239.2205 129.6783)" class="st9" width="3.2" height="0.9"/>
		
			<rect x="133.3" y="34.3" transform="matrix(0.9277 0.3734 -0.3734 0.9277 22.7501 -47.8756)" class="st9" width="3.2" height="0.9"/>
		
			<rect x="132.7" y="32.8" transform="matrix(0.3734 -0.9277 0.9277 0.3734 53.301 145.4063)" class="st9" width="3.2" height="0.9"/>
		
			<rect x="133.9" y="36" transform="matrix(0.3734 -0.9277 0.9277 0.3734 51.0765 148.5844)" class="st9" width="3.2" height="0.9"/>
		
			<rect x="132.4" y="36.7" transform="matrix(-0.9277 -0.3734 0.3734 -0.9277 244.4301 121.6226)" class="st9" width="3.2" height="0.9"/>
		
			<rect x="135.2" y="29.8" transform="matrix(0.9277 0.3734 -0.3734 0.9277 21.1792 -48.8914)" class="st9" width="3.2" height="0.9"/>
		
			<rect x="134.5" y="28.2" transform="matrix(0.3734 -0.9277 0.9277 0.3734 58.6842 144.2513)" class="st9" width="3.2" height="0.9"/>
		
			<rect x="135.7" y="31.5" transform="matrix(0.3734 -0.9277 0.9277 0.3734 56.4597 147.4294)" class="st9" width="3.2" height="0.9"/>
		
			<rect x="134.2" y="32.1" transform="matrix(-0.9277 -0.3734 0.3734 -0.9277 249.6742 113.5136)" class="st9" width="3.2" height="0.9"/>
		
			<rect x="113.1" y="43.4" transform="matrix(-0.9277 0.3734 -0.3734 -0.9277 237.5229 41.7384)" class="st9" width="3.2" height="0.9"/>
		
			<rect x="113.7" y="41.9" transform="matrix(-0.3734 -0.9277 0.9277 -0.3734 119.1774 165.1788)" class="st9" width="3.2" height="0.9"/>
		
			<rect x="112.5" y="45.1" transform="matrix(-0.3734 -0.9277 0.9277 -0.3734 114.4722 168.4721)" class="st9" width="3.2" height="0.9"/>
		<rect x="114" y="45.8" transform="matrix(0.9277 -0.3734 0.3734 0.9277 -8.8964 46.5375)" class="st9" width="3.2" height="0.9"/>
		
			<rect x="111.3" y="38.9" transform="matrix(-0.9277 0.3734 -0.3734 -0.9277 232.2788 33.6294)" class="st9" width="3.2" height="0.9"/>
		
			<rect x="111.9" y="37.3" transform="matrix(-0.3734 -0.9277 0.9277 -0.3734 120.8874 157.2088)" class="st9" width="3.2" height="0.9"/>
		
			<rect x="110.7" y="40.6" transform="matrix(-0.3734 -0.9277 0.9277 -0.3734 116.1821 160.5022)" class="st9" width="3.2" height="0.9"/>
		
			<rect x="112.2" y="41.2" transform="matrix(0.9277 -0.3734 0.3734 0.9277 -7.3255 45.5216)" class="st9" width="3.2" height="0.9"/>
		
			<rect x="109.4" y="34.3" transform="matrix(-0.9277 0.3734 -0.3734 -0.9277 227.0691 25.5737)" class="st9" width="3.2" height="0.9"/>
		
			<rect x="110.1" y="32.8" transform="matrix(-0.3734 -0.9277 0.9277 -0.3734 122.5861 149.2913)" class="st9" width="3.2" height="0.9"/>
		
			<rect x="108.8" y="36" transform="matrix(-0.3734 -0.9277 0.9277 -0.3734 117.8808 152.5846)" class="st9" width="3.2" height="0.9"/>
		
			<rect x="110.4" y="36.7" transform="matrix(0.9277 -0.3734 0.3734 0.9277 -5.7649 44.5124)" class="st9" width="3.2" height="0.9"/>
		
			<rect x="107.6" y="29.8" transform="matrix(-0.9277 0.3734 -0.3734 -0.9277 221.825 17.4647)" class="st9" width="3.2" height="0.9"/>
		
			<rect x="108.3" y="28.2" transform="matrix(-0.3734 -0.9277 0.9277 -0.3734 124.296 141.3213)" class="st9" width="3.2" height="0.9"/>
		
			<rect x="107" y="31.5" transform="matrix(-0.3734 -0.9277 0.9277 -0.3734 119.5908 144.6147)" class="st9" width="3.2" height="0.9"/>
		
			<rect x="108.5" y="32.1" transform="matrix(0.9277 -0.3734 0.3734 0.9277 -4.1941 43.4965)" class="st9" width="3.2" height="0.9"/>
		<path class="st9" d="M106.1,22.1l0.9,2.8l-1.5,0.5l-0.9-2.8L106.1,22.1z"/>
		<path class="st9" d="M109.9,21.1l0.7,2.8l-1.5,0.4l-0.7-2.8L109.9,21.1z"/>
		<path class="st9" d="M113.8,20.4l0.4,2.9l-1.6,0.2l-0.4-2.9L113.8,20.4z"/>
		<path class="st9" d="M117.6,20l0.3,2.9l-1.6,0.1l-0.3-2.9L117.6,20z"/>
		<path class="st9" d="M121.5,19.8l0.1,2.9l-1.6,0l-0.1-2.9L121.5,19.8z"/>
		<path class="st9" d="M125.4,19.9l-0.1,2.9l-1.6-0.1l0.1-2.9L125.4,19.9z"/>
		<path class="st9" d="M129.3,20.2l-0.3,2.9l-1.6-0.2l0.3-2.9L129.3,20.2z"/>
		<path class="st9" d="M133.2,20.8l-0.5,2.9l-1.6-0.3l0.5-2.9L133.2,20.8z"/>
		<path class="st9" d="M137,21.6l-0.7,2.8l-1.5-0.4l0.7-2.8L137,21.6z"/>
		<path class="st9" d="M140.8,22.8l-0.9,2.7l-1.5-0.5l0.9-2.7L140.8,22.8z"/>
		<path class="st9" d="M111.1,57.2c-1.7,0.3-3.5,0.7-5.2,1.1c0.4-1.8,1-3.6,1.5-5.4C108.7,54.3,109.9,55.7,111.1,57.2z M107.3,57
			c0.6-0.2,1.3-0.3,2-0.4c-0.4-0.5-0.9-1.1-1.4-1.6C107.7,55.6,107.5,56.3,107.3,57z"/>
		<path class="st9" d="M114.7,56.7c-1.7,0.2-3.5,0.5-5.2,0.8c0.5-1.8,1.1-3.6,1.8-5.4C112.5,53.6,113.6,55.1,114.7,56.7z M111,56.2
			c0.7-0.1,1.3-0.2,2-0.3c-0.4-0.6-0.8-1.1-1.3-1.7C111.4,54.9,111.2,55.6,111,56.2z"/>
		<path class="st9" d="M118.3,56.3c-1.8,0.1-3.5,0.3-5.2,0.6c0.6-1.8,1.3-3.5,2.1-5.2C116.3,53.2,117.3,54.7,118.3,56.3z
			 M114.6,55.7c0.7-0.1,1.3-0.2,2-0.2c-0.4-0.6-0.8-1.2-1.2-1.7C115.1,54.4,114.9,55,114.6,55.7z"/>
		<path class="st9" d="M122,56.2c-1.8,0-3.5,0.1-5.3,0.3c0.7-1.7,1.5-3.4,2.4-5.1C120.1,52.9,121.1,54.5,122,56.2z M118.3,55.3
			c0.7,0,1.3-0.1,2-0.1c-0.4-0.6-0.7-1.2-1.1-1.8C118.9,54.1,118.6,54.7,118.3,55.3z"/>
		<path class="st9" d="M125.6,56.2c-1.8-0.1-3.5-0.1-5.3,0c0.8-1.7,1.7-3.3,2.6-5C123.9,52.9,124.8,54.5,125.6,56.2z M122,55.2
			c0.7,0,1.3,0,2,0c-0.3-0.6-0.7-1.2-1-1.8C122.6,53.9,122.3,54.6,122,55.2z"/>
		<path class="st9" d="M129.2,56.4c-1.8-0.2-3.5-0.3-5.3-0.3c0.9-1.6,1.9-3.3,2.9-4.8C127.7,53,128.5,54.7,129.2,56.4z M125.7,55.2
			c0.7,0,1.3,0.1,2,0.1c-0.3-0.6-0.6-1.3-0.9-1.9C126.4,54,126,54.6,125.7,55.2z"/>
		<path class="st9" d="M132.9,56.9c-1.7-0.3-3.5-0.4-5.2-0.6c1-1.6,2-3.1,3.2-4.7C131.5,53.4,132.2,55.1,132.9,56.9z M129.3,55.5
			c0.7,0.1,1.3,0.1,2,0.2c-0.3-0.6-0.5-1.3-0.8-1.9C130.1,54.3,129.7,54.9,129.3,55.5z"/>
		<path class="st9" d="M136.4,57.5c-1.7-0.3-3.5-0.6-5.2-0.8c1.1-1.5,2.2-3,3.4-4.5C135.3,53.9,135.9,55.7,136.4,57.5z M133,55.9
			c0.7,0.1,1.3,0.2,2,0.3c-0.2-0.7-0.5-1.3-0.7-2C133.9,54.8,133.4,55.3,133,55.9z"/>
		<path class="st9" d="M140,58.3c-1.7-0.4-3.4-0.8-5.2-1.1c1.2-1.5,2.4-2.9,3.6-4.3C139.1,54.7,139.6,56.5,140,58.3z M136.7,56.5
			c0.7,0.1,1.3,0.3,2,0.4c-0.2-0.7-0.4-1.3-0.6-2C137.6,55.5,137.1,56,136.7,56.5z"/>
		<path class="st4" d="M116.1,116.6v-10.2l5.8,3.9c0,0-3.8-4.3-4.9-7.1c0,0,4.8,3.8,12.5,2.8l2.1-3.3c-10.6,4-17.4-1.5-17.4-1.5
			c1.1,2.8,4.9,7.1,4.9,7.1l-5.8-3.9v10.2l-6.4,2.7h7.6L116.1,116.6z"/>
		<path class="st1" d="M94.6,58.6c-0.9,1.2,0.1,5,0.1,5s1.4,1.9,2.8,1.6c1.5-0.3,2.8,0.1,2.8-0.5c0-0.7,2.4-6.5,1.5-6.5"/>
		<polygon class="st10" points="127.6,46.1 133.6,25.8 126.8,30.6 126.8,43.7 128.1,33.2 129.6,33.7 		"/>
		<polygon class="st1" points="129.9,32.5 128.4,32 131.3,29.1 		"/>
		<polygon class="st10" points="118.8,46.1 112.7,25.8 119.6,30.6 119.6,43.7 118.3,33.2 116.8,33.7 		"/>
		<polygon class="st1" points="116.4,32.5 118,32 115.1,29.1 		"/>
		<polygon class="st1" points="139.6,109.9 139.6,86.3 128.4,86.2 128.4,86.1 123.1,86.1 117.8,86.1 117.8,86.2 106.5,86.3 
			106.5,109.9 91.4,122.7 154.7,122.7 		"/>
		<path class="st1" d="M142.6,56.8c0,0-9.9,0.9-10.1,0.7c-0.2-0.2,0,46.7,0,46.7c16.2,2,28.7-6.6,28.7-6.6l-10.4-24.9
			C150.7,72.6,146.9,60.7,142.6,56.8z"/>
		<path class="st1" d="M142.2,56.8"/>
		<path class="st1" d="M100.9,56.8c0,0,9,0.9,9.1,0.7c0.2-0.2,0,46.7,0,46.7c-14.6,2-26-6.6-26-6.6L94,74.4c0,0,1.1-8.1,2.6-10.4
			c1.4-2.3,1.4-3.8,1.4-3.8L100.9,56.8"/>
		<path class="st1" d="M101.3,56.8"/>
		<path class="st3" d="M118.7,101.3c1.7,1,3.2,1.2,5.2,1.1c3.9-0.1,7.9-3.1,10-5.1c6.9-6.7,11.5-18.8,11.5-18.8
			c2.1-2.8,2.8-9,1.3-10.9c0.8-3.8,0.9-8.3,0-12.1c-2.9-10.2-15-16.5-15-16.5c-1.5-0.5-3.4-1.1-5-1.1c-1.1,0-2.4,0.6-2.8,1.5
			c-0.4-0.9-1.7-1.6-2.8-1.5c-9.3,0.4-17.3,9.4-19.3,15.4c-1.6,4.6-1.6,9.7-0.6,14.4c-1.5,1.9-0.8,8.1,1.3,10.9c0,0,0,0,0,0
			c0.7,0.7,2.7,2.8,3,3.5c0.4,0.9,2.7,12,13,19C118.5,101.1,118.6,101.2,118.7,101.3z"/>
		<path class="st4" d="M124.1,56.3c0.9,6.9,12,7.5,14.4,12.8c2.2,4.8,0.4,10.4-1.3,15.1c0.5-0.3,1-0.7,1.5-1.3
			c-0.5,2.1-0.6,4.5-1.8,6.4c-2.3,3.5-6,7.4-8.5,9.6c-1.4,1.2-2.3,1.2-4.3,1.2c-1.9,0-2.9,0-4.3-1.2c-2.5-2.2-6.3-6.1-8.5-9.6
			c-1.2-1.9-1.3-4.3-1.8-6.4c0.5,0.6,1,1,1.5,1.3c-1.8-4.7-3.5-10.3-1.3-15.1C112.2,63.8,123.2,63.2,124.1,56.3"/>
		<path class="st3" d="M124.1,85.6c1.3,0,2.8-1.4,4.3-1.6c0-1.3-0.6-2.1-1.5-2.8c1.1,0.1,2.4,1.5,2.8,2.7c0.4,1.4-1.1,1.1-1.8,1.3
			c-1.6,0.4-2.2,1.5-3.8,1.5c-1.6,0-2.2-1.1-3.8-1.5c-0.7-0.2-2.1,0.1-1.8-1.3c0.3-1.2,1.7-2.7,2.8-2.7c-0.8,0.7-1.4,1.5-1.5,2.8
			C121.2,84.2,122.8,85.6,124.1,85.6"/>
		<path class="st3" d="M124.1,89.1c2-1.1,2.5-0.3,6.8,0.9c-0.1-0.6-0.3-1.4-0.5-2.4c1.9,2.2,2.1,3.9,1,3.9c-1-0.4-3.1-1-4.5-1.2
			c-0.3,0-1.7,0.3-2.7,0.3c-1.1,0-2.5-0.3-2.7-0.3c-1.5,0.2-3.6,0.8-4.5,1.2c-1.2,0-0.9-1.6,1-3.9c-0.3,0.9-0.5,1.7-0.5,2.4
			C121.5,88.9,122.1,88,124.1,89.1"/>
		<path class="st3" d="M124.1,93c1.6,0,3.1-0.3,4.7-0.4c-1.5,1.8-2.8,3-4.7,3c-1.9,0-3.2-1.2-4.7-3C120.9,92.7,122.5,93,124.1,93"/>
		<path class="st5" d="M112.9,73.9l1.3,1c0,0,2.3,0.6,4.2-0.2c-1-1.6-2-2-2-2s-0.3-0.2-0.4,0c-0.2,0.1-0.6,0.3-0.8,0.2
			C114.8,72.8,112.9,73.9,112.9,73.9z"/>
		<path class="st3" d="M121.3,70.5c0.8,1.6,0,2.3-0.5,1.9c-2.7-1-5-3.9-8-3c0,0-2.8,0.6-4.9,3.4c0,0,2.9-1.6,4-1.6
			c1.4-0.1,1.7,0.2,2.6,0.8c-1.1,0.4-2.1,0.8-2.7,2.2c0.5,0.6,1.3,0.8,2.4,0.7c-0.3-0.3-0.5-0.7-0.7-1c0.3-0.2,0.6-0.3,0.9-0.3
			c0.4,1.6,2,1.5,3.7,0.8c-0.6,1.5-2.7,2.4-5.1,1.9c0.9,1.9,4.7,1.6,6.8-1c0.7,0.5,1.1,1.4,1.3,2.4c0.4-0.7,0.5-2.2,0.4-4.1
			C122.9,72.5,122.3,70.8,121.3,70.5"/>
		<path class="st5" d="M135.4,73.9l-1.3,1c0,0-2.3,0.6-4.2-0.2c1-1.6,2-2,2-2s0.3-0.2,0.4,0c0.2,0.1,0.6,0.3,0.8,0.2
			C133.5,72.8,135.4,73.9,135.4,73.9z"/>
		<path class="st3" d="M127,70.5c-0.8,1.6,0,2.3,0.5,1.9c2.7-1,5-3.9,8-3c2.2,0.7,3.2,3.2,1.6,3.9c0.3-1.1-0.3-1.7-0.8-1.9
			c-1.1-0.4-1.6,0-2.6,0.5c1.1,0.4,2.1,0.8,2.7,2.2c-0.5,0.6-1.3,0.8-2.4,0.7c0.3-0.3,0.5-0.7,0.7-1c-0.3-0.2-0.6-0.3-0.9-0.3
			c-0.4,1.6-2,1.5-3.7,0.8c0.6,1.5,2.7,2.4,5.1,1.9c-0.9,1.9-4.7,1.6-6.8-1c-0.7,0.5-1.1,1.4-1.3,2.4c-0.4-0.7-0.5-2.2-0.4-4.1
			C125.4,72.5,126,70.8,127,70.5"/>
		<path class="st6" d="M120.5,83.4c1.7,0.6,2.4,1.5,3.5,1.5c1.2,0,1.8-0.9,3.6-1.5c-0.2-0.8-1-1.6-1-1.6l-1,0.7l0.2-1.2l-0.4-6.9
			l-1.3-0.6l-1.3,0.6l-0.4,6.9l0.2,1.2l-1-0.7C121.5,81.8,120.7,82.6,120.5,83.4z"/>
		<path class="st6" d="M118.9,69.7c-0.7-1.9-1.8-3.1-1.8-3.1s5,0.8,7,3.8c1.9-3,7-3.8,7-3.8s-1.1,1.2-1.8,3.1
			c2.3-1.9,6.6-1.4,6.5-1.5c-1.9-2.6-4.1-2.4-7.3-4.5c-3.2-2-4.3-3.5-4.3-3.5s-1.1,1.5-4.3,3.5c-3.2,2-5.4,1.8-7.3,4.5
			C112.3,68.3,116.6,67.7,118.9,69.7z"/>
		<path class="st6" d="M114.3,84.4c0,0,4.1-2.8,5-6.5c-5.5,2.3-8.5-1.9-8.5-1.9C109.4,80.6,114.3,84.4,114.3,84.4z"/>
		<path class="st6" d="M113.3,89.6c0,0,0.4,1.7,2.3,3c-1.5-2.2,1.4-7.5,1.4-7.5C114.3,87.5,113.3,89.6,113.3,89.6z"/>
		<path class="st6" d="M122.8,88.2v-1l-3.1-1.3c0,0-1.2,1.9-1.6,3.2c1.8-0.9,3.6-1.1,3.6-1.1L122.8,88.2z"/>
		<path class="st6" d="M128.8,77.9c0.8,3.7,5,6.5,5,6.5s4.9-3.8,3.5-8.5C137.3,76,134.4,80.3,128.8,77.9z"/>
		<path class="st6" d="M131.2,85.1c0,0,2.9,5.3,1.4,7.5c1.9-1.3,2.3-3,2.3-3S133.8,87.5,131.2,85.1z"/>
		<path class="st6" d="M124.1,96.5c0,0-2.4,0.2-3.5-0.7c0,2.3,0.9,3.1,0.9,3.1s1.2,0.6,2.7,0.5v0c1.5,0,2.7-0.5,2.7-0.5
			s0.9-0.8,0.9-3.1C126.4,96.8,124.1,96.5,124.1,96.5z"/>
		<path class="st6" d="M125.3,87.2v1l1-0.2c0,0,1.8,0.2,3.6,1.1c-0.3-1.2-1.6-3.2-1.6-3.2L125.3,87.2z"/>
		<path class="st4" d="M110.2,68.3c0.2,0,27.8,0,27.8,0s-2.9-6.6-4.2-7.1c-1.3-0.5-7.1-2.4-9.3-2.4c-2.2,0-8,1.1-8.8,1.1"/>
		<path class="st3" d="M106.7,66.8c0.5,0,16,0,16,0l1.8-3.2l1.9,3.3h1.6l0.7-1.6l0.8,1.7h12.3c0,0,1.8-14.3-4.3-16.8
			c-6-2.5-11-5.2-15.1-3.6s-9.7,3.4-11.6,4.8"/>
		<path class="st3" d="M111.8,74.1c0,0,1.5,2.6,6.5,0.6c0,0,0.3-1.7,0.2-1.7c-0.1,0-3-0.6-3.2-0.5S111.8,74.1,111.8,74.1z"/>
		<path class="st3" d="M136.5,74.1c0,0-1.1,1.9-6.4,1c-5.3-0.9,0-1.8,0-1.8s4.5-0.6,4.6-0.6C134.7,72.8,136.5,74.1,136.5,74.1z"/>
		<path class="st3" d="M124.4,70.5v14.4c0,0,0.6-0.1,1.4-0.5c0.8-0.4,1.9-1,1.9-1s-0.3-1.1-1-1.6l-1,0.7l0.1-1.2v-6.6l1.5-1.5
			L124.4,70.5z"/>
		<path class="st3" d="M127.3,75.2c0,0.3,0,6,0,6l1.5-3.3c0,0,1.4,4.8,5,6.5c0,0,4-0.4,6.5-7.6c0,0-1.1,11.4-4.7,14.8
			c0,0-2.6-4.8-4.7-6.8c-2.2-2-2.7-2.7-2.7-2.7s0,1.1-1,1.2c-1,0.1-1.9,0.4-2-0.1c-0.1-0.4,0-10.1,0.1-10.5c0.1-0.4,1.9,0.7,1.9,0.7
			l1.1,1"/>
		<path class="st1" d="M124.4,70.5v14.4c0,0,1.8-0.1,3.9-1.9l0.5-5c0,0-1.4-3,0.8-4.2c2.1-1.2-3.7,0.7-3.8,0.7"/>
		<path class="st1" d="M128.6,75.3c0,0,1.1,7.1,5.2,9c0,0,2.9-1.1,6.9-6.5c4-5.4-0.4,6-0.4,6s-2.7,2.8-3.6,3.3s-1.9,0.3-2.1,0.3
			s-6.3-5.8-6.5-6c-0.2-0.3-2.4-2.7-2.4-3.1c0-0.4,0.2-2.2,0.2-2.2l0.4-1.4l0.7-0.8"/>
		<path class="st1" d="M139.6,74.6c0,0-0.5,6.8-5.8,9.7s3.6,1.6,3.8,1.6c0.1-0.1,6-8,6.2-9c0.2-1,1-3.1,0.5-3.6
			c-0.5-0.5-1.9-0.9-1.9-0.9"/>
		<path class="st1" d="M129.2,83.1l1.2,4.6l1.7,2.9l-3.5,2.1c0,0,0.9,6.6-2.7,8c-3.6,1.4,3.8-0.5,4.2-0.9c0.3-0.4,7.6-6.7,7.8-7.9
			c0.2-1.2,0.8-4.2,0.8-4.2l-2-0.9"/>
		<path class="st1" d="M137.6,66.5l-1.3,3.6l1.2,2c0,0,0,1.6-2.6,1.8c0,0,2.3,0.1,2.5,2.9c0.1,2.8-0.5,5.2-3.5,7.7
			c-3,2.6-1.5,3.8-0.6,3.8s6.6-6.3,6.6-6.3s1.7-0.3,2.6-5.6c0.8-5.3,2-7.9,1-9.5c-1.1-1.5-0.3-0.8-1.4-2s-1.5-1.2-1.5-1.2"/>
		<polyline class="st1" points="136.6,70.4 131.2,65 140.7,64.8 		"/>
		<path class="st6" d="M114.2,101.2c0,0,6.8,5.5,17.4,1.5l-6.3,10l-4.1-1.3l2.8,3.3l-1,2.6h-16.1l6.4-2.7v-10.2l5.8,3.9
			C119.1,108.2,115.3,104,114.2,101.2z"/>
		<polygon class="st7" points="108.1,88.6 109.8,97.2 106.8,99.5 106.8,88.2 		"/>
		<polygon class="st7" points="104.8,88.6 103.1,97.2 106.1,99.5 106.1,88.2 		"/>
		<path class="st5" d="M106.3,87.3c1,0,1.8,0.6,2.2,1.4c0.2-0.3,0.3-0.7,0.3-1.1c0-1.4-1.1-2.5-2.5-2.5c-1.4,0-2.5,1.1-2.5,2.5
			c0,0.4,0.1,0.8,0.3,1.1C104.4,87.8,105.3,87.3,106.3,87.3z"/>
		<polygon class="st7" points="143.2,88.6 145,97.2 142,99.5 142,88.2 		"/>
		<polygon class="st7" points="140,88.6 138.3,97.2 141.3,99.5 141.3,88.2 		"/>
		<path class="st5" d="M141.4,87.3c1,0,1.8,0.6,2.2,1.4c0.2-0.3,0.3-0.7,0.3-1.1c0-1.4-1.1-2.5-2.5-2.5c-1.4,0-2.5,1.1-2.5,2.5
			c0,0.4,0.1,0.8,0.3,1.1C139.6,87.8,140.5,87.3,141.4,87.3z"/>
		<path class="st2" d="M98.3,21.2c0,0,8.5-4.3,22-4.4c13.5-0.1,26.2,4,26.2,4s1.4,1.5,1.2,1.3c-0.2-0.2-12,28.5-12,28.5
			s-16-1.2-20.4-0.6c-4.3,0.7-5.7,1.2-5.8,0.9C109.5,50.5,98.3,21.2,98.3,21.2z"/>
		<path class="st8" d="M136.8,71.5"/>
		<path class="st9" d="M141.8,54.3c-3-5.2-15.5-5.3-18.6-5.3c0,0,0,0,0,0s-0.1,0-0.3,0c-0.2,0-0.3,0-0.3,0s0,0,0,0
			c-3.1,0.1-14.8-0.1-18.9,5.4c0,0,3.4-4,19.2-4C138.7,50.4,141.8,54.3,141.8,54.3z"/>
		<path class="st9" d="M144.5,63.8c-3.4-4.1-17.6-4.2-21.1-4.3c0,0,0,0,0,0s-0.1,0-0.3,0c-0.2,0-0.3,0-0.3,0s0,0,0,0
			c-3.5,0-16.8-0.1-21.5,4.3c0,0,3.8-3.1,21.9-3.2C141.1,60.7,144.5,63.8,144.5,63.8z"/>
		<path class="st9" d="M111.8,50.7L99.3,15.9c14.9-7.4,31.7-7.4,46.6,0l-12.5,35h2.7l13.1-36.5l-1.1-0.6c-16.2-8.5-34.7-8.5-50.9,0
			l-1.1,0.6l13,36.4H111.8z"/>
		<path class="st10" d="M106.1,17.5l0.9,2.8l-1.5,0.5l-0.9-2.8L106.1,17.5z"/>
		<path class="st10" d="M109.9,16.6l0.7,2.8l-1.5,0.4l-0.7-2.8L109.9,16.6z"/>
		<path class="st10" d="M113.8,15.9l0.4,2.9l-1.6,0.2l-0.4-2.9L113.8,15.9z"/>
		<path class="st10" d="M117.6,15.5l0.3,2.9l-1.6,0.1l-0.3-2.9L117.6,15.5z"/>
		<path class="st10" d="M121.5,15.3l0.1,2.9l-1.6,0l-0.1-2.9L121.5,15.3z"/>
		<path class="st10" d="M125.4,15.3l-0.1,2.9l-1.6-0.1l0.1-2.9L125.4,15.3z"/>
		<path class="st10" d="M129.3,15.7l-0.3,2.9l-1.6-0.2l0.3-2.9L129.3,15.7z"/>
		<path class="st10" d="M133.2,16.2l-0.5,2.9l-1.6-0.3l0.5-2.9L133.2,16.2z"/>
		<path class="st10" d="M137,17.1l-0.7,2.8l-1.5-0.4l0.7-2.8L137,17.1z"/>
		<path class="st10" d="M140.8,18.2l-0.9,2.7l-1.5-0.5l0.9-2.7L140.8,18.2z"/>
		<path class="st10" d="M108.5,24l0.8,2.4l-1.3,0.4l-0.8-2.4L108.5,24z"/>
		<path class="st10" d="M111.8,23.2l0.6,2.4l-1.3,0.3l-0.6-2.4L111.8,23.2z"/>
		<path class="st10" d="M115.1,22.6l0.4,2.4l-1.3,0.2l-0.4-2.4L115.1,22.6z"/>
		<path class="st10" d="M118.4,22.2l0.2,2.5l-1.3,0.1l-0.2-2.5L118.4,22.2z"/>
		<path class="st10" d="M121.7,22.1l0.1,2.5l-1.4,0l-0.1-2.5L121.7,22.1z"/>
		<path class="st10" d="M125,22.1l-0.1,2.5l-1.3,0l0.1-2.5L125,22.1z"/>
		<path class="st10" d="M128.3,22.4l-0.2,2.5l-1.3-0.1l0.2-2.5L128.3,22.4z"/>
		<path class="st10" d="M131.6,22.9l-0.4,2.4l-1.3-0.2l0.4-2.4L131.6,22.9z"/>
		<path class="st10" d="M134.9,23.6l-0.6,2.4l-1.3-0.3l0.6-2.4L134.9,23.6z"/>
		<path class="st10" d="M138.1,24.6l-0.8,2.3l-1.3-0.4l0.8-2.3L138.1,24.6z"/>
		<path class="st4" d="M116.1,116.6v-10.2l5.8,3.9c0,0-3.8-4.3-4.9-7.1c0,0,4.8,3.8,12.5,2.8l2.1-3.3c-10.6,4-17.4-1.5-17.4-1.5
			c1.1,2.8,4.9,7.1,4.9,7.1l-5.8-3.9v10.2l-6.4,2.7h7.6L116.1,116.6z"/>
		<path class="st1" d="M94.6,58.6c-0.9,1.2,0.1,5,0.1,5s1.4,1.9,2.8,1.6c1.5-0.3,2.8,0.1,2.8-0.5c0-0.7,2.4-6.5,1.5-6.5"/>
		<path class="st1" d="M99.2,55c-1,0.9-1.2,5.2-1.2,5.2s2.1,1.6,2.6,0.7c0.5-0.9,1-1.4,1.3-2.2c0.3-0.9,0.4-2.2,0-2.2"/>
		<path class="st9" d="M106.7,43.9c0,0-10,3.9-10.4,10.1c0,0,2.6-5.2,11.2-8.4"/>
		<path class="st9" d="M106.7,43.9c0,0-10,3.9-10.4,10.1c0,0,2.6-5.2,11.2-8.4"/>
		<path class="st9" d="M138.6,43.9c0,0,10,3.9,10.4,10.1c0,0-2.6-5.2-11.2-8.4"/>
		<path class="st9" d="M138.6,43.9c0,0,10,3.9,10.4,10.1c0,0-2.6-5.2-11.2-8.4"/>
		<path class="st1" d="M148.8,55.8c0.3-0.4,2.1-1.7,2.5-1.4s2,0.7,2,0.7s0.2,0.9-0.1,1.2c-0.3,0.3-6.6,7-6.8,6.6s-1.6-4.2-1.8-4.4"
			/>
		<path class="st11" d="M93.7,88.7l-4.5,5.6l8.9-21.7l4.1-2.8l-8.6,20.8l4.5-5.6l-1.2,7.1l3.3-6.4l-0.7,7l1.5-2.6
			c0,0.4,0.1,0.6,0.1,0.6s-2.5,6.7-2.5,7c0,0.3-0.2-6.9-0.2-6.9l-3.3,5.6l0.7-7l-3.3,6.4L93.7,88.7z"/>
		<path class="st11" d="M152.7,88.7l4.5,5.6l-8.9-21.7l-4.1-2.8l8.6,20.8l-4.5-5.6l1.2,7.1l-3.3-6.4l0.7,7l-1.5-2.6
			c0,0.4-0.1,0.6-0.1,0.6s2.5,6.7,2.5,7c0,0.3,0.2-6.9,0.2-6.9l3.3,5.6l-0.7-7l3.3,6.4L152.7,88.7z"/>
		<path class="st5" d="M118,73.6c0,0-2.3-1.7-4.9,0.1C113.1,73.7,115.9,76,118,73.6z"/>
		<circle class="st3" cx="115.5" cy="73" r="1.4"/>
		<path class="st5" d="M134.4,73.6c0,0-2.3-1.7-4.9,0.1C129.5,73.7,132.3,76,134.4,73.6z"/>
		<circle class="st3" cx="131.9" cy="73" r="1.4"/>
		<circle class="st5" cx="132.2" cy="73.2" r="0.3"/>
		<circle class="st5" cx="115.8" cy="73.2" r="0.3"/>
		<path class="st1" d="M96.5,70.3c0,0-1.5,10.2,4.3,14c5.8,3.9,3.5-14.4,3.5-14.4l0.8-3.8"/>
		<path class="st10" d="M103.8,73.6c1-0.8,1.4,0.7,1.4,0.7s-0.2-1.3,1-2c0,0-2.6-0.6-3.6,1.1c0,0-1.8,2.3,2.9,11.6l0.3,1.1l0.6-0.3
			l0.3-0.1c0,0-2.5-4.5-3.3-7.5C102.8,75.2,103.3,74,103.8,73.6z"/>
		<path class="st10" d="M106.9,59.1L106.9,59.1c-0.3,0.1-0.6-0.1-0.6-0.5c0-1,0-2,0-3c0-0.3,0.3-0.7,0.6-0.8l0,0
			c0.3-0.1,0.6,0.1,0.6,0.5c0,1,0,2,0,3C107.5,58.6,107.2,59,106.9,59.1z"/>
		<path class="st10" d="M109.2,58.5L109.2,58.5c-0.3,0.1-0.6-0.1-0.6-0.5c0-1,0-2,0-3c0-0.3,0.3-0.7,0.6-0.8l0,0
			c0.3-0.1,0.6,0.1,0.6,0.5c0,1,0,2,0,3C109.8,58.1,109.5,58.4,109.2,58.5z"/>
		<path class="st10" d="M111.6,58L111.6,58c-0.3,0.1-0.6-0.2-0.6-0.5c0-1,0-2,0-3c0-0.3,0.3-0.7,0.6-0.7l0,0
			c0.3-0.1,0.6,0.2,0.6,0.5c0,1,0,2,0,3C112.2,57.6,111.9,57.9,111.6,58z"/>
		<path class="st10" d="M113.9,57.6L113.9,57.6c-0.3,0.1-0.6-0.2-0.6-0.5c0-1,0-2,0-3c0-0.3,0.3-0.7,0.6-0.7l0,0
			c0.3-0.1,0.6,0.2,0.6,0.5c0,1,0,2,0,3C114.5,57.3,114.3,57.6,113.9,57.6z"/>
		<path class="st10" d="M116.3,57.3L116.3,57.3c-0.3,0-0.6-0.2-0.6-0.5c0-1,0-2,0-3c0-0.3,0.3-0.6,0.6-0.7l0,0
			c0.3,0,0.6,0.2,0.6,0.6c0,1,0,2,0,3C116.9,57,116.6,57.3,116.3,57.3z"/>
		<path class="st10" d="M118.7,57.1L118.7,57.1c-0.3,0-0.6-0.2-0.6-0.6c0-1,0-2,0-3c0-0.3,0.3-0.6,0.6-0.7l0,0
			c0.3,0,0.6,0.2,0.6,0.6c0,1,0,2,0,3C119.3,56.8,119,57.1,118.7,57.1z"/>
		<path class="st10" d="M121.1,57L121.1,57c-0.3,0-0.6-0.3-0.6-0.6c0-1,0-2,0-3c0-0.3,0.3-0.6,0.6-0.6l0,0c0.3,0,0.6,0.3,0.6,0.6
			c0,1,0,2,0,3C121.7,56.7,121.4,56.9,121.1,57z"/>
		<path class="st10" d="M123.4,56.9L123.4,56.9c-0.3,0-0.6-0.3-0.6-0.6c0-1,0-2,0-3c0-0.3,0.3-0.6,0.6-0.6l0,0
			c0.3,0,0.6,0.3,0.6,0.6c0,1,0,2,0,3C124.1,56.6,123.8,56.9,123.4,56.9z"/>
		<path class="st10" d="M125.8,57L125.8,57c-0.3,0-0.6-0.3-0.6-0.6c0-1,0-2,0-3c0-0.3,0.3-0.6,0.6-0.6l0,0c0.3,0,0.6,0.3,0.6,0.6
			c0,1,0,2,0,3C126.5,56.7,126.2,57,125.8,57z"/>
		<path class="st10" d="M128.2,57.1L128.2,57.1c-0.3,0-0.6-0.3-0.6-0.7c0-1,0-2,0-3c0-0.3,0.3-0.6,0.6-0.6l0,0
			c0.3,0,0.6,0.3,0.6,0.7c0,1,0,2,0,3C128.8,56.9,128.6,57.1,128.2,57.1z"/>
		<path class="st10" d="M130.6,57.3L130.6,57.3c-0.3,0-0.6-0.3-0.6-0.7c0-1,0-2,0-3c0-0.3,0.3-0.6,0.6-0.6l0,0
			c0.3,0,0.6,0.3,0.6,0.7c0,1,0,2,0,3C131.2,57.1,130.9,57.3,130.6,57.3z"/>
		<path class="st10" d="M133,57.6L133,57.6c-0.3-0.1-0.6-0.4-0.6-0.7c0-1,0-2,0-3c0-0.3,0.3-0.6,0.6-0.5l0,0
			c0.3,0.1,0.6,0.4,0.6,0.7c0,1,0,2,0,3C133.6,57.4,133.3,57.7,133,57.6z"/>
		<path class="st10" d="M135.3,58L135.3,58c-0.3-0.1-0.6-0.4-0.6-0.7c0-1,0-2,0-3c0-0.3,0.3-0.6,0.6-0.5l0,0
			c0.3,0.1,0.6,0.4,0.6,0.7c0,1,0,2,0,3C135.9,57.9,135.7,58.1,135.3,58z"/>
		<path class="st10" d="M137.7,58.5L137.7,58.5c-0.3-0.1-0.6-0.4-0.6-0.7c0-1,0-2,0-3c0-0.3,0.3-0.6,0.6-0.5l0,0
			c0.3,0.1,0.6,0.4,0.6,0.8c0,1,0,2,0,3C138.3,58.4,138,58.6,137.7,58.5z"/>
		<path class="st10" d="M140,59.1L140,59.1c-0.3-0.1-0.6-0.4-0.6-0.8c0-1,0-2,0-3c0-0.3,0.3-0.5,0.6-0.5l0,0
			c0.3,0.1,0.6,0.4,0.6,0.8c0,1,0,2,0,3C140.6,58.9,140.3,59.1,140,59.1z"/>
		<path class="st10" d="M122.8,44.9c-0.3,0-0.6-0.2-0.6-0.6V30.3c0-0.3,0.2-0.6,0.6-0.6s0.6,0.2,0.6,0.6v14.1
			C123.3,44.7,123.1,44.9,122.8,44.9z"/>
		<path class="st10" d="M118.7,45.3c-0.3,0-0.5-0.2-0.6-0.5l-1.4-14c0-0.3,0.2-0.6,0.5-0.6c0.3,0,0.6,0.2,0.6,0.5l1.4,14
			C119.3,45,119.1,45.3,118.7,45.3C118.7,45.3,118.7,45.3,118.7,45.3z"/>
		<path class="st10" d="M114.8,46.1c-0.3,0-0.5-0.2-0.5-0.4l-3-13.2c-0.1-0.3,0.1-0.6,0.4-0.7c0.3-0.1,0.6,0.1,0.7,0.4l3,13.2
			c0.1,0.3-0.1,0.6-0.4,0.7C114.8,46.1,114.8,46.1,114.8,46.1z"/>
		<path class="st10" d="M126.8,45.3C126.8,45.3,126.8,45.3,126.8,45.3c-0.4,0-0.6-0.3-0.6-0.6l1.4-14c0-0.3,0.3-0.5,0.6-0.5
			c0.3,0,0.5,0.3,0.5,0.6l-1.4,14C127.3,45.1,127.1,45.3,126.8,45.3z"/>
		<path class="st10" d="M130.8,46.1c0,0-0.1,0-0.1,0c-0.3-0.1-0.5-0.4-0.4-0.7l3-13.2c0.1-0.3,0.4-0.5,0.7-0.4
			c0.3,0.1,0.5,0.4,0.4,0.7l-3,13.2C131.2,45.9,131,46.1,130.8,46.1z"/>
		<circle class="st5" cx="100" cy="57.1" r="0.6"/>
		<circle class="st5" cx="101.9" cy="55.4" r="0.6"/>
		<circle class="st5" cx="98.8" cy="58.9" r="0.6"/>
		<circle class="st5" cx="144.7" cy="57.1" r="0.6"/>
		<circle class="st5" cx="143.2" cy="55.2" r="0.6"/>
		<circle class="st5" cx="145.6" cy="59" r="0.6"/>
		<polyline class="st9" points="160.4,32.3 157.1,33.5 149,45 		"/>
		<polyline class="st9" points="167.3,39.3 163.9,39.8 154.5,49.8 		"/>
		<polyline class="st9" points="172.8,48.2 170,48 158.6,55.9 		"/>
		<polyline class="st9" points="176.6,56.9 174.3,56.3 161.8,62.2 		"/>
		<polyline class="st9" points="151.1,27.6 150.3,28 144.8,40.7 		"/>
		<polyline class="st9" points="84.7,32.3 88.1,33.5 96.2,45 		"/>
		<polyline class="st9" points="77.8,39.3 81.2,39.8 90.7,49.8 		"/>
		<polyline class="st9" points="72.4,48.2 75.1,48 86.5,55.9 		"/>
		<polyline class="st9" points="68.5,56.9 70.9,56.3 83.4,62.2 		"/>
		<polyline class="st9" points="94,27.6 94.9,28 100.4,40.7 		"/>
		<path d="M135.4,74.9c2-1.1,4.8,2.9,4.8,2.9l1.1-1.3l-1.1,0.1c0,0-1.4-2.4-4.4-2.9"/>
		<path d="M134.9,74.1c2.1-1.1,5.1,2.9,5.1,2.9l1.1-1.3l-1.1,0.1c0,0-1.5-2.4-4.6-2.9"/>
		<path d="M134.9,74.2c2.2-1.4,6.1,2.2,6.1,2.2l1.1-1.5l-1.3,0.3c0,0-1.9-2.2-5.5-2.3"/>
		<path d="M112.8,74.9c-2-1.1-4.8,2.9-4.8,2.9l-1.1-1.3l1.1,0.1c0,0,1.4-2.4,4.4-2.9"/>
		<path d="M113.2,74.1c-2.1-1.1-5.1,2.9-5.1,2.9l-1.1-1.3l1.1,0.1c0,0,1.5-2.4,4.6-2.9"/>
		<path d="M113.2,74.2c-2.2-1.4-6.1,2.2-6.1,2.2L106,75l1.3,0.3c0,0,1.9-2.2,5.5-2.3"/>
	</g>
	<g>
		<polygon class="st0" points="63.8,173.9 95.9,173.9 95.9,151.7 89,169.4 76.2,169.4 93.7,141.2 97,137.2 64.5,137.2 64.5,160.1 
			70.4,141.6 83.9,141.6 66.6,169.4 		"/>
		<polygon class="st0" points="170.4,169.4 157.6,169.4 150.6,151.7 150.6,173.9 182.9,173.9 180,169.4 162.7,141.6 176.1,141.6 
			182,160.1 182,137.2 149.5,137.2 152.8,141.2 		"/>
		<path class="st0" d="M107.2,158c0,0-0.2,6.2,3.4,10.8c3.6,4.6,9.3,5.8,12.4,5.8s6.3-1.3,6.3-1.3v1.9l14.1-5.6l-4.6-1.7v-26.6
			l2.6-4.2h-14.4l2.3,3.3c0,0,0,20.1,0,22.2c0,2.1,0.3,8.1-6.3,8.1c-6.6,0-6.3-8.1-6.3-8.1v-21.7l1.6-3.6h-13.6l2.3,3.3V158z"/>
		<polygon class="st0" points="180.7,179.6 64.7,179.6 64.7,184.5 61.6,191.7 185.2,191.7 180.7,185.3 		"/>
		<polygon class="st0" points="238.4,187.7 237.8,187 237.8,178.7 230.6,178.7 229.2,177.1 229.2,169.7 222.9,169.7 221.1,167.7 
			221.1,159.9 214.4,159.9 212.6,157.9 212.6,149.7 205.5,149.7 203.1,146.9 207.6,137.3 190.6,137.3 190.6,137.3 190.6,188.4 
			187.5,191.6 205.7,191.6 201.9,188.8 201.8,185.5 212.2,174.3 201.5,174.3 201,156.3 227.4,188.7 226.1,191.7 231.3,191.7 
			246.1,191.7 246.1,187.7 		"/>
		<polygon class="st0" points="55.5,137.3 38.5,137.3 43,146.9 40.6,149.7 33.5,149.7 33.5,157.9 31.7,159.9 25,159.9 25,167.7 
			23.2,169.7 16.9,169.7 16.9,177.1 15.5,178.7 8.3,178.7 8.3,187 7.7,187.7 0,187.7 0,191.7 14.8,191.7 20,191.7 18.7,188.7 
			45.1,156.3 44.6,174.3 32.9,174.3 44.2,186.6 44.2,188.8 40.4,191.6 58.6,191.6 55.5,188.4 		"/>
	</g>
	<g>
		<path class="st10" d="M76.4,185.7v1.8c0,0.3,0.1,0.5,0.2,0.6s0.3,0.2,0.7,0.2v0.5h-3.4v-0.5c0.3,0,0.6-0.1,0.7-0.2
			c0.1-0.1,0.2-0.3,0.2-0.6v-3.8c0-0.3-0.1-0.5-0.2-0.6c-0.1-0.1-0.3-0.2-0.7-0.2v-0.5h3.4v0.5c-0.3,0-0.6,0.1-0.7,0.2
			c-0.1,0.1-0.2,0.3-0.2,0.6v1.5h2.7v-1.5c0-0.3-0.1-0.5-0.2-0.6c-0.1-0.1-0.3-0.2-0.7-0.2v-0.5h3.4v0.5c-0.3,0-0.6,0.1-0.7,0.2
			s-0.2,0.3-0.2,0.6v3.8c0,0.3,0.1,0.5,0.2,0.6s0.3,0.2,0.7,0.2v0.5h-3.4v-0.5c0.3,0,0.6-0.1,0.7-0.2c0.1-0.1,0.2-0.3,0.2-0.6v-1.8
			H76.4z"/>
		<path class="st10" d="M84.6,182.9v-0.5H88v0.5h-0.1c-0.3,0-0.5,0.1-0.6,0.2c-0.1,0.1-0.1,0.3-0.1,0.6v3.8c0,0.3,0.1,0.5,0.2,0.6
			s0.3,0.2,0.6,0.2H88v0.5h-3.4v-0.5c0.3,0,0.6-0.1,0.7-0.2s0.2-0.3,0.2-0.6v-3.8c0-0.3-0.1-0.5-0.2-0.6
			C85.2,182.9,84.9,182.9,84.6,182.9z"/>
		<path class="st10" d="M95.3,186.4v-0.5h3v0.5c-0.2,0-0.4,0.1-0.5,0.2s-0.1,0.3-0.1,0.6v1.4c-0.1,0-0.2,0-0.2,0
			c-0.3,0-0.9,0.1-1.6,0.2c-0.5,0.1-1,0.2-1.4,0.2c-1,0-1.8-0.3-2.4-1s-0.9-1.4-0.9-2.3c0-0.9,0.3-1.8,1-2.4c0.6-0.7,1.4-1,2.4-1
			c0.8,0,1.5,0.2,2,0.7c0.1-0.2,0.2-0.4,0.2-0.7h0.5l0.1,2.3h-0.5c-0.3-1.1-1-1.7-1.9-1.7c-0.6,0-1,0.2-1.3,0.6
			c-0.3,0.4-0.4,1.1-0.4,2.1c0,0.7,0,1.2,0.1,1.6s0.3,0.6,0.5,0.8c0.2,0.2,0.6,0.3,1,0.3c0.4,0,0.6-0.1,0.9-0.2
			c0.2-0.2,0.3-0.5,0.3-0.9V187C96,186.6,95.8,186.4,95.3,186.4z"/>
		<path class="st10" d="M103.8,185.7v1.8c0,0.3,0.1,0.5,0.2,0.6s0.3,0.2,0.7,0.2v0.5h-3.4v-0.5c0.3,0,0.6-0.1,0.7-0.2
			c0.1-0.1,0.2-0.3,0.2-0.6v-3.8c0-0.3-0.1-0.5-0.2-0.6c-0.1-0.1-0.3-0.2-0.7-0.2v-0.5h3.4v0.5c-0.3,0-0.6,0.1-0.7,0.2
			c-0.1,0.1-0.2,0.3-0.2,0.6v1.5h2.7v-1.5c0-0.3-0.1-0.5-0.2-0.6c-0.1-0.1-0.3-0.2-0.7-0.2v-0.5h3.4v0.5c-0.3,0-0.6,0.1-0.7,0.2
			s-0.2,0.3-0.2,0.6v3.8c0,0.3,0.1,0.5,0.2,0.6s0.3,0.2,0.7,0.2v0.5h-3.4v-0.5c0.3,0,0.6-0.1,0.7-0.2c0.1-0.1,0.2-0.3,0.2-0.6v-1.8
			H103.8z"/>
		<path class="st10" d="M117.1,188.7v-2.2h0.6c0.2,0.7,0.4,1.1,0.7,1.4c0.3,0.3,0.7,0.4,1,0.4c0.3,0,0.5-0.1,0.7-0.2
			s0.2-0.4,0.2-0.6c0-0.2-0.1-0.3-0.2-0.5s-0.3-0.3-0.7-0.5c-0.7-0.4-1.2-0.6-1.5-0.8c-0.3-0.2-0.5-0.4-0.6-0.7
			c-0.2-0.3-0.2-0.6-0.2-0.9c0-0.6,0.2-1,0.6-1.4s0.9-0.5,1.4-0.5c0.6,0,1,0.2,1.4,0.6c0.1-0.1,0.1-0.2,0.2-0.4h0.6v1.9h-0.5
			c-0.1-0.4-0.3-0.8-0.5-1c-0.3-0.3-0.6-0.4-0.9-0.4c-0.3,0-0.5,0.1-0.6,0.2c-0.1,0.1-0.2,0.3-0.2,0.5c0,0.2,0,0.3,0.1,0.5
			c0.1,0.1,0.2,0.3,0.4,0.3c0.2,0.1,0.5,0.3,1,0.5c0.5,0.2,0.8,0.4,1,0.6c0.2,0.2,0.4,0.4,0.5,0.7c0.1,0.3,0.2,0.6,0.2,0.9
			c0,0.6-0.2,1.1-0.6,1.4c-0.4,0.4-0.9,0.6-1.5,0.6c-0.3,0-0.7-0.1-1-0.2c-0.3-0.1-0.6-0.3-0.8-0.6c-0.1,0.1-0.1,0.3-0.2,0.5H117.1z
			"/>
		<path class="st10" d="M131.3,186.4v2.4h-0.5c-0.1-0.3-0.2-0.5-0.3-0.6c-0.5,0.5-1.3,0.8-2.1,0.8c-1,0-1.8-0.3-2.4-1
			c-0.6-0.7-0.9-1.4-0.9-2.3c0-0.9,0.3-1.7,0.9-2.4s1.4-1,2.5-1c0.8,0,1.5,0.3,2,0.8c0.1-0.2,0.1-0.4,0.2-0.6h0.5l0.1,2.4h-0.5
			c-0.2-0.7-0.4-1.1-0.8-1.5c-0.4-0.3-0.8-0.5-1.3-0.5c-0.6,0-1,0.2-1.3,0.7s-0.4,1.1-0.4,2.1c0,0.7,0.1,1.2,0.2,1.6
			c0.1,0.4,0.3,0.7,0.6,0.9c0.3,0.2,0.6,0.3,1,0.3c0.5,0,0.9-0.2,1.3-0.5c0.4-0.3,0.6-0.8,0.8-1.5H131.3z"/>
		<path class="st10" d="M137.2,185.7v1.8c0,0.3,0.1,0.5,0.2,0.6s0.3,0.2,0.7,0.2v0.5h-3.4v-0.5c0.3,0,0.6-0.1,0.7-0.2
			c0.1-0.1,0.2-0.3,0.2-0.6v-3.8c0-0.3-0.1-0.5-0.2-0.6c-0.1-0.1-0.3-0.2-0.7-0.2v-0.5h3.4v0.5c-0.3,0-0.6,0.1-0.7,0.2
			c-0.1,0.1-0.2,0.3-0.2,0.6v1.5h2.7v-1.5c0-0.3-0.1-0.5-0.2-0.6c-0.1-0.1-0.3-0.2-0.7-0.2v-0.5h3.4v0.5c-0.3,0-0.6,0.1-0.7,0.2
			s-0.2,0.3-0.2,0.6v3.8c0,0.3,0.1,0.5,0.2,0.6s0.3,0.2,0.7,0.2v0.5H139v-0.5c0.3,0,0.6-0.1,0.7-0.2c0.1-0.1,0.2-0.3,0.2-0.6v-1.8
			H137.2z"/>
		<path class="st10" d="M145.5,185.6c0-0.6,0.2-1.2,0.5-1.7c0.3-0.6,0.8-1,1.3-1.2s1.2-0.4,1.8-0.4c1.1,0,2,0.3,2.7,1
			c0.6,0.7,1,1.5,1,2.4c0,0.9-0.3,1.7-1,2.3c-0.6,0.7-1.5,1-2.6,1c-0.8,0-1.4-0.2-2-0.5s-1-0.8-1.3-1.3S145.5,186.1,145.5,185.6z
			 M147.5,185.5c0,1,0.1,1.7,0.4,2.2c0.3,0.4,0.7,0.7,1.2,0.7c0.6,0,1-0.2,1.2-0.6c0.3-0.4,0.4-1.1,0.4-2.1c0-0.9-0.1-1.6-0.4-2.1
			c-0.3-0.5-0.7-0.7-1.3-0.7c-0.5,0-0.9,0.2-1.2,0.6C147.7,183.9,147.5,184.6,147.5,185.5z"/>
		<path class="st10" d="M156.2,185.6c0-0.6,0.2-1.2,0.5-1.7c0.3-0.6,0.8-1,1.3-1.2s1.2-0.4,1.8-0.4c1.1,0,2,0.3,2.7,1
			c0.6,0.7,1,1.5,1,2.4c0,0.9-0.3,1.7-1,2.3c-0.6,0.7-1.5,1-2.6,1c-0.8,0-1.4-0.2-2-0.5s-1-0.8-1.3-1.3S156.2,186.1,156.2,185.6z
			 M158.2,185.5c0,1,0.1,1.7,0.4,2.2c0.3,0.4,0.7,0.7,1.2,0.7c0.6,0,1-0.2,1.2-0.6c0.3-0.4,0.4-1.1,0.4-2.1c0-0.9-0.1-1.6-0.4-2.1
			c-0.3-0.5-0.7-0.7-1.3-0.7c-0.5,0-0.9,0.2-1.2,0.6C158.3,183.9,158.2,184.6,158.2,185.5z"/>
		<path class="st10" d="M172.5,186.7l0,2.2h-5.9v-0.5h0.1c0.3,0,0.5-0.1,0.6-0.2c0.1-0.1,0.1-0.3,0.1-0.6v-3.8
			c0-0.3-0.1-0.5-0.2-0.6c-0.1-0.1-0.3-0.2-0.6-0.2h-0.1v-0.5h3.5v0.5h-0.1c-0.3,0-0.5,0.1-0.6,0.2c-0.1,0.1-0.1,0.3-0.1,0.6v3.7
			c0,0.3,0,0.5,0,0.6c0,0.1,0.1,0.2,0.3,0.2s0.4,0.1,0.7,0.1c0.6,0,1-0.1,1.3-0.4c0.3-0.3,0.5-0.7,0.6-1.2H172.5z"/>
	</g>
	<g>
		<path class="st12" d="M76.4,185.7v1.8c0,0.3,0.1,0.5,0.2,0.6s0.3,0.2,0.7,0.2v0.5h-3.4v-0.5c0.3,0,0.6-0.1,0.7-0.2
			c0.1-0.1,0.2-0.3,0.2-0.6v-3.8c0-0.3-0.1-0.5-0.2-0.6c-0.1-0.1-0.3-0.2-0.7-0.2v-0.5h3.4v0.5c-0.3,0-0.6,0.1-0.7,0.2
			c-0.1,0.1-0.2,0.3-0.2,0.6v1.5h2.7v-1.5c0-0.3-0.1-0.5-0.2-0.6c-0.1-0.1-0.3-0.2-0.7-0.2v-0.5h3.4v0.5c-0.3,0-0.6,0.1-0.7,0.2
			s-0.2,0.3-0.2,0.6v3.8c0,0.3,0.1,0.5,0.2,0.6s0.3,0.2,0.7,0.2v0.5h-3.4v-0.5c0.3,0,0.6-0.1,0.7-0.2c0.1-0.1,0.2-0.3,0.2-0.6v-1.8
			H76.4z"/>
		<path class="st12" d="M84.6,182.9v-0.5H88v0.5h-0.1c-0.3,0-0.5,0.1-0.6,0.2c-0.1,0.1-0.1,0.3-0.1,0.6v3.8c0,0.3,0.1,0.5,0.2,0.6
			s0.3,0.2,0.6,0.2H88v0.5h-3.4v-0.5c0.3,0,0.6-0.1,0.7-0.2s0.2-0.3,0.2-0.6v-3.8c0-0.3-0.1-0.5-0.2-0.6
			C85.2,182.9,84.9,182.9,84.6,182.9z"/>
		<path class="st12" d="M95.3,186.4v-0.5h3v0.5c-0.2,0-0.4,0.1-0.5,0.2s-0.1,0.3-0.1,0.6v1.4c-0.1,0-0.2,0-0.2,0
			c-0.3,0-0.9,0.1-1.6,0.2c-0.5,0.1-1,0.2-1.4,0.2c-1,0-1.8-0.3-2.4-1s-0.9-1.4-0.9-2.3c0-0.9,0.3-1.8,1-2.4c0.6-0.7,1.4-1,2.4-1
			c0.8,0,1.5,0.2,2,0.7c0.1-0.2,0.2-0.4,0.2-0.7h0.5l0.1,2.3h-0.5c-0.3-1.1-1-1.7-1.9-1.7c-0.6,0-1,0.2-1.3,0.6
			c-0.3,0.4-0.4,1.1-0.4,2.1c0,0.7,0,1.2,0.1,1.6s0.3,0.6,0.5,0.8c0.2,0.2,0.6,0.3,1,0.3c0.4,0,0.6-0.1,0.9-0.2
			c0.2-0.2,0.3-0.5,0.3-0.9V187C96,186.6,95.8,186.4,95.3,186.4z"/>
		<path class="st12" d="M103.8,185.7v1.8c0,0.3,0.1,0.5,0.2,0.6s0.3,0.2,0.7,0.2v0.5h-3.4v-0.5c0.3,0,0.6-0.1,0.7-0.2
			c0.1-0.1,0.2-0.3,0.2-0.6v-3.8c0-0.3-0.1-0.5-0.2-0.6c-0.1-0.1-0.3-0.2-0.7-0.2v-0.5h3.4v0.5c-0.3,0-0.6,0.1-0.7,0.2
			c-0.1,0.1-0.2,0.3-0.2,0.6v1.5h2.7v-1.5c0-0.3-0.1-0.5-0.2-0.6c-0.1-0.1-0.3-0.2-0.7-0.2v-0.5h3.4v0.5c-0.3,0-0.6,0.1-0.7,0.2
			s-0.2,0.3-0.2,0.6v3.8c0,0.3,0.1,0.5,0.2,0.6s0.3,0.2,0.7,0.2v0.5h-3.4v-0.5c0.3,0,0.6-0.1,0.7-0.2c0.1-0.1,0.2-0.3,0.2-0.6v-1.8
			H103.8z"/>
		<path class="st12" d="M117.1,188.7v-2.2h0.6c0.2,0.7,0.4,1.1,0.7,1.4c0.3,0.3,0.7,0.4,1,0.4c0.3,0,0.5-0.1,0.7-0.2
			s0.2-0.4,0.2-0.6c0-0.2-0.1-0.3-0.2-0.5s-0.3-0.3-0.7-0.5c-0.7-0.4-1.2-0.6-1.5-0.8c-0.3-0.2-0.5-0.4-0.6-0.7
			c-0.2-0.3-0.2-0.6-0.2-0.9c0-0.6,0.2-1,0.6-1.4s0.9-0.5,1.4-0.5c0.6,0,1,0.2,1.4,0.6c0.1-0.1,0.1-0.2,0.2-0.4h0.6v1.9h-0.5
			c-0.1-0.4-0.3-0.8-0.5-1c-0.3-0.3-0.6-0.4-0.9-0.4c-0.3,0-0.5,0.1-0.6,0.2c-0.1,0.1-0.2,0.3-0.2,0.5c0,0.2,0,0.3,0.1,0.5
			c0.1,0.1,0.2,0.3,0.4,0.3c0.2,0.1,0.5,0.3,1,0.5c0.5,0.2,0.8,0.4,1,0.6c0.2,0.2,0.4,0.4,0.5,0.7c0.1,0.3,0.2,0.6,0.2,0.9
			c0,0.6-0.2,1.1-0.6,1.4c-0.4,0.4-0.9,0.6-1.5,0.6c-0.3,0-0.7-0.1-1-0.2c-0.3-0.1-0.6-0.3-0.8-0.6c-0.1,0.1-0.1,0.3-0.2,0.5H117.1z
			"/>
		<path class="st12" d="M131.3,186.4v2.4h-0.5c-0.1-0.3-0.2-0.5-0.3-0.6c-0.5,0.5-1.3,0.8-2.1,0.8c-1,0-1.8-0.3-2.4-1
			c-0.6-0.7-0.9-1.4-0.9-2.3c0-0.9,0.3-1.7,0.9-2.4s1.4-1,2.5-1c0.8,0,1.5,0.3,2,0.8c0.1-0.2,0.1-0.4,0.2-0.6h0.5l0.1,2.4h-0.5
			c-0.2-0.7-0.4-1.1-0.8-1.5c-0.4-0.3-0.8-0.5-1.3-0.5c-0.6,0-1,0.2-1.3,0.7s-0.4,1.1-0.4,2.1c0,0.7,0.1,1.2,0.2,1.6
			c0.1,0.4,0.3,0.7,0.6,0.9c0.3,0.2,0.6,0.3,1,0.3c0.5,0,0.9-0.2,1.3-0.5c0.4-0.3,0.6-0.8,0.8-1.5H131.3z"/>
		<path class="st12" d="M137.2,185.7v1.8c0,0.3,0.1,0.5,0.2,0.6s0.3,0.2,0.7,0.2v0.5h-3.4v-0.5c0.3,0,0.6-0.1,0.7-0.2
			c0.1-0.1,0.2-0.3,0.2-0.6v-3.8c0-0.3-0.1-0.5-0.2-0.6c-0.1-0.1-0.3-0.2-0.7-0.2v-0.5h3.4v0.5c-0.3,0-0.6,0.1-0.7,0.2
			c-0.1,0.1-0.2,0.3-0.2,0.6v1.5h2.7v-1.5c0-0.3-0.1-0.5-0.2-0.6c-0.1-0.1-0.3-0.2-0.7-0.2v-0.5h3.4v0.5c-0.3,0-0.6,0.1-0.7,0.2
			s-0.2,0.3-0.2,0.6v3.8c0,0.3,0.1,0.5,0.2,0.6s0.3,0.2,0.7,0.2v0.5H139v-0.5c0.3,0,0.6-0.1,0.7-0.2c0.1-0.1,0.2-0.3,0.2-0.6v-1.8
			H137.2z"/>
		<path class="st12" d="M145.5,185.6c0-0.6,0.2-1.2,0.5-1.7c0.3-0.6,0.8-1,1.3-1.2s1.2-0.4,1.8-0.4c1.1,0,2,0.3,2.7,1
			c0.6,0.7,1,1.5,1,2.4c0,0.9-0.3,1.7-1,2.3c-0.6,0.7-1.5,1-2.6,1c-0.8,0-1.4-0.2-2-0.5s-1-0.8-1.3-1.3S145.5,186.1,145.5,185.6z
			 M147.5,185.5c0,1,0.1,1.7,0.4,2.2c0.3,0.4,0.7,0.7,1.2,0.7c0.6,0,1-0.2,1.2-0.6c0.3-0.4,0.4-1.1,0.4-2.1c0-0.9-0.1-1.6-0.4-2.1
			c-0.3-0.5-0.7-0.7-1.3-0.7c-0.5,0-0.9,0.2-1.2,0.6C147.7,183.9,147.5,184.6,147.5,185.5z"/>
		<path class="st12" d="M156.2,185.6c0-0.6,0.2-1.2,0.5-1.7c0.3-0.6,0.8-1,1.3-1.2s1.2-0.4,1.8-0.4c1.1,0,2,0.3,2.7,1
			c0.6,0.7,1,1.5,1,2.4c0,0.9-0.3,1.7-1,2.3c-0.6,0.7-1.5,1-2.6,1c-0.8,0-1.4-0.2-2-0.5s-1-0.8-1.3-1.3S156.2,186.1,156.2,185.6z
			 M158.2,185.5c0,1,0.1,1.7,0.4,2.2c0.3,0.4,0.7,0.7,1.2,0.7c0.6,0,1-0.2,1.2-0.6c0.3-0.4,0.4-1.1,0.4-2.1c0-0.9-0.1-1.6-0.4-2.1
			c-0.3-0.5-0.7-0.7-1.3-0.7c-0.5,0-0.9,0.2-1.2,0.6C158.3,183.9,158.2,184.6,158.2,185.5z"/>
		<path class="st12" d="M172.5,186.7l0,2.2h-5.9v-0.5h0.1c0.3,0,0.5-0.1,0.6-0.2c0.1-0.1,0.1-0.3,0.1-0.6v-3.8
			c0-0.3-0.1-0.5-0.2-0.6c-0.1-0.1-0.3-0.2-0.6-0.2h-0.1v-0.5h3.5v0.5h-0.1c-0.3,0-0.5,0.1-0.6,0.2c-0.1,0.1-0.1,0.3-0.1,0.6v3.7
			c0,0.3,0,0.5,0,0.6c0,0.1,0.1,0.2,0.3,0.2s0.4,0.1,0.7,0.1c0.6,0,1-0.1,1.3-0.4c0.3-0.3,0.5-0.7,0.6-1.2H172.5z"/>
	</g>
</g>
</svg>
