<?xml version="1.0" encoding="utf-8"?>
<!-- Generator: Adobe Illustrator 21.0.2, SVG Export Plug-In . SVG Version: 6.00 Build 0)  -->
<svg version="1.1" id="Layer_1" xmlns="http://www.w3.org/2000/svg" xmlns:xlink="http://www.w3.org/1999/xlink" x="0px" y="0px"
	 viewBox="0 0 252.5 194.9" style="enable-background:new 0 0 252.5 194.9;" xml:space="preserve">
<style type="text/css">
	.st0{fill:#D1D3D4;}
	.st1{fill:#060608;}
	.st2{fill:#060707;}
	.st3{fill-rule:evenodd;clip-rule:evenodd;fill:#060608;}
	.st4{fill-rule:evenodd;clip-rule:evenodd;fill:#D7893F;}
	.st5{fill-rule:evenodd;clip-rule:evenodd;fill:#FFFFFF;}
	.st6{fill-rule:evenodd;clip-rule:evenodd;fill:#F99E49;}
	.st7{fill-rule:evenodd;clip-rule:evenodd;fill:#00AEEF;}
	.st8{fill:none;stroke:#E20D8D;stroke-miterlimit:10;}
	.st9{fill:#00AEEF;}
	.st10{fill:#FFFFFF;}
	.st11{fill:#00588E;}
	.st12{fill:#010101;}
</style>
<g>
	<path class="st0" d="M183.8,61.8l5.8-9.5l-8.6-2.2l3.3-8.5l-9.1-0.6l1.6-9l-8.6,1.1l0.1-9.1l-8.4,2.6l-1.6-9.2l-0.2,0.1l2.1-5.4
		l-1.4-1c-10.1-7-21.2-10.4-33-10.3l-0.4,0c-0.3,0-0.5,0-0.8,0c-0.2,0-0.5,0-0.7,0C108,1.6,95.8,8.7,92.4,10.8l-1.6,1l2.4,6
		l-1.5,8.8L83.3,24l0.1,9.1L74.8,32l1.6,9l-9.1,0.6l3.3,8.5l-8.6,2.2l5.8,9.5l27.5,9.1c-0.2,1.3-0.4,2.4-0.5,2.9L84.6,98.3l1.4,1
		c0.4,0.3,9.2,6.9,21.5,7.3v2.2l-19,16H164l-19-16v-2.4c11.9-1.2,20.2-6.8,20.6-7.1l1.5-1L156,71.9c0-0.1-0.1-0.3-0.2-0.6l4.5-1.7
		L183.8,61.8z"/>
	<path class="st0" d="M166.3,125.8H86.2l20.4-17.3v-1c-12.2-0.7-20.8-7.2-21.2-7.5l-1.9-1.4l10.6-25c0.1-0.4,0.2-1.1,0.3-2.1
		l-27.1-9l-6.6-10.8l8.8-2.2l-3.4-8.7l9.3-0.6L73.8,31l8.8,1.1l-0.1-9.2l8.6,2.6l1.3-7.6l-2.5-6.4l2.1-1.4
		c3.4-2.2,15.9-9.3,31.9-10.1c0.2,0,0.5,0,0.7,0c0.3,0,0.5,0,0.8,0l0.4,0c11.9-0.1,23.2,3.4,33.4,10.5l2,1.4l-2,5.3l1.4,8.4l8.6-2.6
		l-0.1,9.2L178,31l-1.7,9.2l9.3,0.6l-3.4,8.7l8.8,2.2l-6.6,10.8l-23.8,7.9l-3.7,1.4l11.2,26.9l-2.1,1.4c-0.3,0.2-8.5,5.8-20.2,7.1
		v1.3L166.3,125.8z M90.8,124.1h70.8l-17.5-14.8v-3.6l0.8-0.1c11.7-1.2,19.8-6.7,20.2-6.9l0.9-0.6l-10.8-25.9c0-0.1-0.1-0.3-0.2-0.6
		l-0.3-0.8l5.2-2l23.3-7.7l5.1-8.3l-8.4-2.1l3.2-8.3l-8.9-0.6l1.6-8.8l-8.4,1.1l0.1-8.9l-8.2,2.5l-1.5-9l-1.2,0.6l2.6-6.9l-0.9-0.6
		c-10-6.9-20.9-10.3-32.5-10.2l-0.4,0c-0.3,0-0.5,0-0.8,0c-0.2,0-0.5,0-0.7,0c-15.6,0.7-27.7,7.7-31.1,9.8l-1,0.6l2.2,5.5l-1.7,10
		l-8.2-2.5l0.1,8.9L75.8,33l1.6,8.8l-8.9,0.6l3.2,8.3l-8.4,2.1l5.1,8.3l27.9,9.3l-0.1,0.7c-0.2,1.3-0.4,2.4-0.5,2.8l-0.1,0.2
		L85.6,98l0.9,0.6c0.4,0.3,9,6.7,21,7.2l0.8,0v3.4L90.8,124.1z"/>
	<path class="st1" d="M146.2,42.6L157.5,13c-11-7.6-22-10-31.7-9.9c-0.1,0-0.3,0-0.4,0c-0.3,0-0.5,0-0.8,0c-0.2,0-0.5,0-0.7,0
		c-15.3,0.7-27.2,7.5-30.4,9.6l11.9,30c-7.7,4.2-8.9,9.1-9,11.2l-1.1,13.8l6.8-12.2c0-0.1,0.7-1.3,2.4-2.8l2.3,1.7v0l0,0l0.1,0.1
		c-0.3,1-0.6,2.1-0.8,3.1l-0.3,1.2c-0.2,0.2-0.4,0.3-0.6,0.5l0.4,0.4l-0.7,2.8l2.6-0.7l1.7,2c0,0,0,0-0.2,0.1c0,0,3.6-2.2,17.1-2.2
		c13.4,0,16.7,2.1,16.8,2.1c-0.2-0.1-0.2-0.2-0.2-0.2l1.7-1.9l2.9,0.7l-0.7-2.7l0.4-0.3c-0.2-0.2-0.4-0.5-0.6-0.7l-0.3-1.3
		c-0.3-1.1-0.6-2.3-0.9-3.5l2.2-1.3c1.5,1.4,2.1,2.4,2.1,2.5l7.9,12.8l-2.2-14.3C155.1,51.7,154,46.8,146.2,42.6z"/>
	<path class="st1" d="M186.2,53.7l-6.9-1.8l-15.7,7.3c-0.1-0.1-0.1-0.2-0.2-0.3l15.2-8.4l2.6-6.8l-7.1-0.5l-14.3,10.1
		c-0.1-0.1-0.1-0.2-0.2-0.3l13.3-11.2l1.3-7.2l-7.1,0.9l-12,12.6c-0.1-0.1-0.3-0.3-0.4-0.4L166,34.4l0.1-7.4l-6.8,2.1l-9.8,14.4
		c-0.1-0.1-0.2-0.1-0.3-0.2L158,28l-1.2-7.2l-6.3,3.3l-7,16c-5.3-2.4-11.1-3.7-17.3-3.7c-0.1,0-0.2,0-0.3,0c-0.1,0-0.2,0-0.3,0
		c-6.2,0-12,1.3-17.3,3.7l-7-16L95,20.8L93.7,28l8.8,15.3c-0.1,0.1-0.2,0.1-0.3,0.2l-9.8-14.4l-6.8-2.1l0.1,7.4L97,47.7
		c-0.1,0.1-0.3,0.3-0.4,0.4l-12-12.6l-7.1-0.9l1.3,7.2L92.2,53c-0.1,0.1-0.1,0.2-0.2,0.3L77.7,43.2l-7.1,0.5l2.6,6.8l15.2,8.4
		c-0.1,0.1-0.1,0.2-0.2,0.3l-15.7-7.3l-6.9,1.8l3.8,6.2L96.8,69c0,0,3.5-8.8,23.4-10.4c19.9-1.6,30,5.3,33.8,11l5.6-2.1l22.8-7.6
		L186.2,53.7z"/>
	<path class="st1" d="M153.8,69.9l-0.1-0.2c-2-3-10.4-12.7-33.5-10.9c-10.2,0.8-15.9,3.6-19,5.7c-3.3,2.3-4.2,4.5-4.2,4.5l-0.1,0.2
		l-0.3-0.1l-27.5-9.1l-4.1-6.7l7.4-1.9l13,6L73,50.7l-2.8-7.3l7.6-0.5l12.1,8.6L78.6,42l-1.4-7.7l7.6,1l11.8,12.4c0,0,0,0,0,0
		L85.4,34.5l-0.1-7.8l7.3,2.2l8.6,12.6l-7.7-13.4l1.3-7.7l6.8,3.6l0,0.1l6.9,15.7c5.4-2.4,11.2-3.6,17.2-3.6c0.1,0,0.1,0,0.2,0
		l0.1,0l0,0c0.1,0,0.1,0,0.2,0c6,0,11.7,1.2,17.2,3.6l6.9-15.8l6.8-3.6l1.3,7.7l-7.7,13.4l8.6-12.6l7.3-2.2l-0.1,7.8l-0.1,0.1
		l-11.2,13.1c0,0,0,0,0,0L167,35.2l7.6-1l-1.4,7.7l-11.3,9.5l12.1-8.6l7.6,0.5l-2.8,7.3l-12.5,6.9l13-6l7.4,1.9l-4.1,6.7l-22.9,7.6
		L153.8,69.9z M125.8,58.1c6.6,0,12.4,1,17.4,3c4.7,1.9,8.6,4.8,10.9,8.2l5.4-2l22.7-7.5l3.6-5.8l-6.5-1.7l-15.9,7.3l-0.4-0.8
		l15.3-8.5l2.5-6.4l-6.6-0.4l-14.4,10.2l-0.5-0.7l13.5-11.3l1.2-6.8l-6.6,0.9l-12.1,12.7l-0.2-0.2c-0.1-0.1-0.3-0.3-0.4-0.4
		l-0.2-0.2l11.4-13.4l0.1-6.9l-6.4,1.9l-9.9,14.6l-0.8-0.5l8.9-15.4l-1.2-6.8l-5.9,3.1l-7.1,16.2l-0.3-0.1
		c-5.4-2.5-11.2-3.7-17.2-3.7l-0.3,0l-0.3,0c-6,0-11.8,1.3-17.2,3.7l-0.3,0.1l-7.1-16.2l-5.9-3.1L94,28l8.9,15.4l-0.8,0.5l-9.9-14.6
		l-6.4-1.9l0.1,6.9l11.4,13.4l-0.2,0.2c-0.1,0.1-0.3,0.3-0.4,0.4l-0.2,0.2L84.5,35.8l-6.6-0.9l1.2,6.8L92.5,53L92,53.7L77.6,43.4
		l-6.6,0.4l2.5,6.4l15.3,8.5l-0.4,0.8l-15.9-7.3L66,53.9l3.6,5.8l27.1,9c0.7-1.5,5.3-8.9,23.5-10.4C122.1,58.2,124,58.1,125.8,58.1z
		"/>
	<path class="st1" d="M179.2,51.9l-15.7,7.3c-0.1-0.1-0.1-0.2-0.2-0.3l15.2-8.4l2.6-6.8l-7.1-0.5l-14.3,10.1
		c-0.1-0.1-0.1-0.2-0.2-0.3l13.3-11.2l1.3-7.2l-7.1,0.9l-12,12.6c-0.1-0.1-0.3-0.3-0.4-0.4L166,34.4l0.1-7.4l-6.8,2.1l-9.8,14.4
		c-0.1-0.1-0.2-0.1-0.3-0.2L158,28l-1.2-7.2l-6.3,3.3l-7,16c-5.3-2.4-11.1-3.7-17.3-3.7c-0.1,0-0.2,0-0.3,0c-0.1,0-0.2,0-0.3,0
		c-6.2,0-12,1.3-17.3,3.7l-7-16L95,20.8L93.7,28l8.8,15.3c-0.1,0.1-0.2,0.1-0.3,0.2l-9.8-14.4l-6.8-2.1l0.1,7.4L97,47.7
		c-0.1,0.1-0.3,0.3-0.4,0.4l-12-12.6l-7.1-0.9l1.3,7.2L92.2,53c-0.1,0.1-0.1,0.2-0.2,0.3L77.7,43.2l-7.1,0.5l2.6,6.8l15.2,8.4
		c-0.1,0.1-0.1,0.2-0.2,0.3l-15.7-7.3l-6.9,1.8l3.8,6.2L96.8,69l1.4-3.7c1.2-2.5,2.8-4.8,4.6-6.8l0.7-0.8c5.5-5.8,13.3-9.5,21.9-9.5
		v0c0.1,0,0.3,0,0.4,0c0.1,0,0.3,0,0.4,0v0c8.6,0,16.4,3.7,21.9,9.5l0.7,0.8c1.8,2,3.3,4.3,4.6,6.8l1.4,3.7l27.4-9.1l3.8-6.2
		L179.2,51.9z"/>
	<path class="st1" d="M69.4,59.9L96.8,69c0,0,3.5-8.8,23.4-10.4s30,5.3,33.8,11l9.6-3.6l-15.3-18.4c0,0-17.8-8.5-28.7-3.9
		s-17.2,8.5-19.6,10.8s-2.4,2.4-2.4,2.4l-3.8,3.9l-0.6,0.6l-3.9,1.3"/>
	<polygon class="st1" points="142.8,109.9 142.8,86.3 131.5,86.2 131.5,86.1 126.2,86.1 120.9,86.1 120.9,86.2 109.7,86.3 
		109.7,109.9 94.6,122.7 157.9,122.7 	"/>
	<path class="st1" d="M104.4,56.8c0,0-4.1,0.5-6.5,13.4c0.3-0.4,0.2,1.7,0.2,1.7L87.3,97.6c0,0,11.3,8.6,26,6.6c0,0,0.2-46.9,0-46.7
		c-0.2,0.2-9.1-0.7-9.1-0.7"/>
	<path class="st2" d="M155.6,49.2c0.1,0.4-3.6,8.1-4.3,8.2c-0.8,0.1-3.8,1.2-5,0c-1.2-1.2-1.3-4.6-2.4-5.4s1.3-4.6,1.3-4.6"/>
	<path class="st3" d="M121.9,101.3c1.7,1,3.2,1.2,5.2,1.1c3.9-0.1,7.9-3.1,10-5.1c6.9-6.7,11.5-18.8,11.5-18.8
		c2.1-2.8,2.8-9,1.3-10.9c0.8-3.8,0.9-8.3,0-12.1c-2.9-10.2-15-16.5-15-16.5c-1.5-0.5-3.4-1.1-5-1.1c-1.1,0-2.4,0.6-2.8,1.5
		c-0.4-0.9-1.7-1.6-2.8-1.5c-9.3,0.4-17.3,9.4-19.3,15.4c-1.6,4.6-1.6,9.7-0.6,14.4c-1.5,1.9-0.8,8.1,1.3,10.9c0,0,0,0,0,0
		c0.7,0.7,2.7,2.8,3,3.5c0.4,0.9,2.7,12,13,19C121.7,101.1,121.8,101.2,121.9,101.3z"/>
	<path class="st4" d="M127.3,56.3c0.9,6.9,12,7.5,14.4,12.8c2.2,4.8,0.4,10.4-1.3,15.1c0.5-0.3,1-0.7,1.5-1.3
		c-0.5,2.1-0.6,4.5-1.8,6.4c-2.3,3.5-6,7.4-8.5,9.6c-1.4,1.2-2.3,1.2-4.3,1.2c-1.9,0-2.9,0-4.3-1.2c-2.5-2.2-6.3-6.1-8.5-9.6
		c-1.2-1.9-1.3-4.3-1.8-6.4c0.5,0.6,1,1,1.5,1.3c-1.8-4.7-3.5-10.3-1.3-15.1C115.3,63.8,126.4,63.2,127.3,56.3"/>
	<path class="st3" d="M127.2,85.6c1.3,0,2.8-1.4,4.3-1.6c0-1.3-0.6-2.1-1.5-2.8c1.1,0.1,2.4,1.5,2.8,2.7c0.4,1.4-1.1,1.1-1.8,1.3
		c-1.6,0.4-2.2,1.5-3.8,1.5c-1.6,0-2.2-1.1-3.8-1.5c-0.7-0.2-2.1,0.1-1.8-1.3c0.3-1.2,1.7-2.7,2.8-2.7c-0.8,0.7-1.4,1.5-1.5,2.8
		C124.4,84.2,125.9,85.6,127.2,85.6"/>
	<path class="st3" d="M127.2,89.1c2-1.1,2.5-0.3,6.8,0.9c-0.1-0.6-0.3-1.4-0.5-2.4c1.9,2.2,2.1,3.9,1,3.9c-1-0.4-3.1-1-4.5-1.2
		c-0.3,0-1.7,0.3-2.7,0.3c-1.1,0-2.5-0.3-2.7-0.3c-1.5,0.2-3.6,0.8-4.5,1.2c-1.2,0-0.9-1.6,1-3.9c-0.3,0.9-0.5,1.7-0.5,2.4
		C124.7,88.9,125.3,88,127.2,89.1"/>
	<path class="st3" d="M127.2,93c1.6,0,3.1-0.3,4.7-0.4c-1.5,1.8-2.8,3-4.7,3c-1.9,0-3.2-1.2-4.7-3C124.1,92.7,125.7,93,127.2,93"/>
	<path class="st5" d="M116,73.9l1.3,1c0,0,2.3,0.6,4.2-0.2c-1-1.6-2-2-2-2s-0.3-0.2-0.4,0c-0.2,0.1-0.6,0.3-0.8,0.2
		C118,72.8,116,73.9,116,73.9z"/>
	<path class="st3" d="M124.4,70.5c0.8,1.6,0,2.3-0.5,1.9c-2.7-1-5-3.9-8-3c-2.2,0.7-3.2,3.2-1.6,3.9c-0.3-1.1,0.3-1.7,0.8-1.9
		c1.1-0.4,1.6,0,2.6,0.5c-1.1,0.4-2.1,0.8-2.7,2.2c0.5,0.6,1.3,0.8,2.4,0.7c-0.3-0.3-0.5-0.7-0.7-1c0.3-0.2,0.6-0.3,0.9-0.3
		c0.4,1.6,2,1.5,3.7,0.8c-0.6,1.5-2.7,2.4-5.1,1.9c0.9,1.9,4.7,1.6,6.8-1c0.7,0.5,1.1,1.4,1.3,2.4c0.4-0.7,0.5-2.2,0.4-4.1
		C126.1,72.5,125.5,70.8,124.4,70.5"/>
	<path class="st5" d="M138.6,73.9l-1.3,1c0,0-2.3,0.6-4.2-0.2c1-1.6,2-2,2-2s0.3-0.2,0.4,0c0.2,0.1,0.6,0.3,0.8,0.2
		C136.6,72.8,138.6,73.9,138.6,73.9z"/>
	<path class="st3" d="M130.2,70.5c-0.8,1.6,0,2.3,0.5,1.9c2.7-1,5-3.9,8-3c2.2,0.7,3.2,3.2,1.6,3.9c0.3-1.1-0.3-1.7-0.8-1.9
		c-1.1-0.4-1.6,0-2.6,0.5c1.1,0.4,2.1,0.8,2.7,2.2c-0.5,0.6-1.3,0.8-2.4,0.7c0.3-0.3,0.5-0.7,0.7-1c-0.3-0.2-0.6-0.3-0.9-0.3
		c-0.4,1.6-2,1.5-3.7,0.8c0.6,1.5,2.7,2.4,5.1,1.9c-0.9,1.9-4.7,1.6-6.8-1c-0.7,0.5-1.1,1.4-1.3,2.4c-0.4-0.7-0.5-2.2-0.4-4.1
		C128.5,72.5,129.2,70.8,130.2,70.5"/>
	<path class="st6" d="M123.7,83.4c1.7,0.6,2.4,1.5,3.5,1.5c1.2,0,1.8-0.9,3.6-1.5c-0.2-0.8-1-1.6-1-1.6l-1,0.7l0.2-1.2l-0.4-6.9
		l-1.3-0.6l-1.3,0.6l-0.4,6.9l0.2,1.2l-1-0.7C124.7,81.8,123.9,82.6,123.7,83.4z"/>
	<path class="st6" d="M122,69.7c-0.7-1.9-1.8-3.1-1.8-3.1s5,0.8,7,3.8c1.9-3,7-3.8,7-3.8s-1.1,1.2-1.8,3.1c2.3-1.9,6.6-1.4,6.5-1.5
		c-1.9-2.6-4.1-2.4-7.3-4.5c-3.2-2-4.3-3.5-4.3-3.5s-1.1,1.5-4.3,3.5c-3.2,2-5.4,1.8-7.3,4.5C115.5,68.3,119.7,67.7,122,69.7z"/>
	<path class="st6" d="M117.5,84.4c0,0,4.1-2.8,5-6.5c-5.5,2.3-8.5-1.9-8.5-1.9C112.6,80.6,117.5,84.4,117.5,84.4z"/>
	<path class="st6" d="M116.4,89.6c0,0,0.4,1.7,2.3,3c-1.5-2.2,1.4-7.5,1.4-7.5C117.5,87.5,116.4,89.6,116.4,89.6z"/>
	<path class="st6" d="M126,88.2v-1l-3.1-1.3c0,0-1.2,1.9-1.6,3.2c1.8-0.9,3.6-1.1,3.6-1.1L126,88.2z"/>
	<path class="st6" d="M132,77.9c0.8,3.7,5,6.5,5,6.5s4.9-3.8,3.5-8.5C140.5,76,137.5,80.3,132,77.9z"/>
	<path class="st6" d="M134.3,85.1c0,0,2.9,5.3,1.4,7.5c1.9-1.3,2.3-3,2.3-3S137,87.5,134.3,85.1z"/>
	<path class="st6" d="M127.2,96.5c0,0-2.4,0.2-3.5-0.7c0,2.3,0.9,3.1,0.9,3.1s1.2,0.6,2.7,0.5v0c1.5,0,2.7-0.5,2.7-0.5
		s0.9-0.8,0.9-3.1C129.6,96.8,127.2,96.5,127.2,96.5z"/>
	<path class="st6" d="M128.5,87.2v1l1-0.2c0,0,1.8,0.2,3.6,1.1c-0.3-1.2-1.6-3.2-1.6-3.2L128.5,87.2z"/>
	<path class="st4" d="M113.4,68.3c0.2,0,27.8,0,27.8,0s-2.9-6.6-4.2-7.1c-1.3-0.5-7.1-2.4-9.3-2.4c-2.2,0-8,1.1-8.8,1.1"/>
	<path class="st3" d="M109.9,66.8c0.5,0,16,0,16,0l1.8-3.2l1.9,3.3h1.6l0.7-1.6l0.8,1.7h12.3c0,0,1.8-14.3-4.3-16.8
		c-6-2.5-11-5.2-15.1-3.6s-9.7,3.4-11.6,4.8"/>
	<path class="st3" d="M115,74.1c0,0,1.5,2.6,6.5,0.6c0,0,0.3-1.7,0.2-1.7c-0.1,0-3-0.6-3.2-0.5S115,74.1,115,74.1z"/>
	<path class="st3" d="M139.6,74.1c0,0-1.1,1.9-6.4,1c-5.3-0.9,0-1.8,0-1.8s4.5-0.6,4.6-0.6C137.8,72.8,139.6,74.1,139.6,74.1z"/>
	<path class="st3" d="M127.5,70.5v14.4c0,0,0.6-0.1,1.4-0.5c0.8-0.4,1.9-1,1.9-1s-0.3-1.1-1-1.6l-1,0.7l0.1-1.2v-6.6l1.5-1.5
		L127.5,70.5z"/>
	<path class="st3" d="M130.5,75.2c0,0.3,0,6,0,6l1.5-3.3c0,0,1.4,4.8,5,6.5c0,0,4-0.4,6.5-7.6c0,0-1.1,11.4-4.7,14.8
		c0,0-2.6-4.8-4.7-6.8c-2.2-2-2.7-2.7-2.7-2.7s0,1.1-1,1.2c-1,0.1-1.9,0.4-2-0.1c-0.1-0.4,0-10.1,0.1-10.5c0.1-0.4,1.9,0.7,1.9,0.7
		l1.1,1"/>
	<path class="st1" d="M127.5,70.5v14.4c0,0,1.8-0.1,3.9-1.9l0.5-5c0,0-1.4-3,0.8-4.2c2.1-1.2-3.7,0.7-3.8,0.7"/>
	<path class="st1" d="M131.8,75.3c0,0,1.1,7.1,5.2,9c0,0,2.9-1.1,6.9-6.5c4-5.4-0.4,6-0.4,6s-2.7,2.8-3.6,3.3s-1.9,0.3-2.1,0.3
		c-0.2-0.1-6.3-5.8-6.5-6c-0.2-0.3-2.4-2.7-2.4-3.1c0-0.4,0.2-2.2,0.2-2.2l0.4-1.4l0.7-0.8"/>
	<path class="st1" d="M142.8,74.6c0,0-0.5,6.8-5.8,9.7s3.6,1.6,3.8,1.6c0.1-0.1,6-8,6.2-9c0.2-1,1-3.1,0.5-3.6
		c-0.5-0.5-1.9-0.9-1.9-0.9"/>
	<path class="st1" d="M132.4,83.1l1.2,4.6l1.7,2.9l-3.5,2.1c0,0,0.9,6.6-2.7,8c-3.6,1.4,3.8-0.5,4.2-0.9c0.3-0.4,7.6-6.7,7.8-7.9
		c0.2-1.2,0.8-4.2,0.8-4.2l-2-0.9"/>
	<path class="st1" d="M140.8,66.5l-1.3,3.6l1.2,2c0,0,0,1.6-2.6,1.8c0,0,2.3,0.1,2.5,2.9c0.1,2.8-0.5,5.2-3.5,7.7
		c-3,2.6-1.5,3.8-0.6,3.8S143,82,143,82s1.7-0.3,2.6-5.6s2-7.9,1-9.5c-1.1-1.5-0.3-0.8-1.4-2c-1.2-1.3-1.5-1.2-1.5-1.2"/>
	<polyline class="st1" points="139.7,70.4 134.3,65 143.9,64.8 	"/>
	<path class="st6" d="M117.4,101.2c0,0,6.8,5.5,17.4,1.5l-6.3,10l-4.1-1.3l2.8,3.3l-1,2.6h-16.1l6.4-2.7v-10.2l5.8,3.9
		C122.3,108.2,118.5,104,117.4,101.2z"/>
	<polygon class="st7" points="110.7,88.6 112.4,97.2 109.4,99.5 109.4,88.2 	"/>
	<polygon class="st7" points="107.5,88.6 105.8,97.2 108.8,99.5 108.8,88.2 	"/>
	<path class="st7" d="M108.9,87.3c1,0,1.8,0.6,2.2,1.4c0.2-0.3,0.3-0.7,0.3-1.1c0-1.4-1.1-2.5-2.5-2.5c-1.4,0-2.5,1.1-2.5,2.5
		c0,0.4,0.1,0.8,0.3,1.1C107.1,87.8,107.9,87.3,108.9,87.3z"/>
	<polygon class="st7" points="147.2,88.6 149,97.2 145.9,99.5 145.9,88.2 	"/>
	<polygon class="st7" points="144,88.6 142.3,97.2 145.3,99.5 145.3,88.2 	"/>
	<path class="st7" d="M145.4,87.3c1,0,1.8,0.6,2.2,1.4c0.2-0.3,0.3-0.7,0.3-1.1c0-1.4-1.1-2.5-2.5-2.5s-2.5,1.1-2.5,2.5
		c0,0.4,0.1,0.8,0.3,1.1C143.6,87.8,144.5,87.3,145.4,87.3z"/>
	<path class="st2" d="M101.4,21.2c0,0,8.5-4.3,22-4.4c13.5-0.1,26.2,4,26.2,4s1.4,1.5,1.2,1.3c-0.2-0.2-12,28.5-12,28.5
		s-16-1.2-20.4-0.6c-4.3,0.7-5.7,1.2-5.8,0.9C112.7,50.5,101.4,21.2,101.4,21.2z"/>
	<path class="st2" d="M116.1,40.9c-0.4-0.1-2.9-1.5-4.3-0.9s-7.3,5.5-8.1,6.2c-0.8,0.7-7.7,6.1-7.7,6.6s1.9,4.2,2.6,4.3
		c0.7,0.1,5.6,0.7,5.8,0.8s2.5-0.8,2.3-0.2c-0.2,0.6,1,2,0.8,2.6c-0.2,0.6-0.2,0.6-0.2,0.6s-0.4,1.7,0.1,1.9s1.9-0.1,3.5-0.5
		s18.4,0,18.8-0.5s4.1-1.4,5.5-1.2c1.4,0.2,4.9,1.9,6.3,2.2s3.3,1.2,3.5,0.7c0.1-0.5-0.4-4.6-0.5-5.1c-0.1-0.6,0.7-1.9,0.7-1.9
		s0.3-0.6,1.4-0.9c1.1-0.3,2.4,0.4,1.9-1.4c-0.5-1.7-0.5-4.5-1.2-4.7c-0.7-0.2,5.3,7.9,6.1,7.9c0.8-0.1,3.2-4.3,2.9-4.9
		c-0.3-0.7-2.5-3.1-4.2-4.6c-1.7-1.5-3-3.1-4.6-4.4c-1.6-1.3-5.4-6.6-7-7.4c-1.5-0.9-5.4-2.2-5.4-2.2s-4.6-1.5-6.7-1.1
		s-6.3,1.2-6.3,1.2"/>
	<path class="st8" d="M140,71.5"/>
	<path class="st9" d="M145,54.3c-3-5.2-15.5-5.3-18.6-5.3c0,0,0,0,0,0s-0.1,0-0.3,0c-0.2,0-0.3,0-0.3,0s0,0,0,0
		c-3.1,0.1-14.8-0.1-18.9,5.4c0,0,3.4-4,19.2-4C141.9,50.4,145,54.3,145,54.3z"/>
	<path class="st9" d="M144.7,61.4c-2.9-3.6-15.2-3.6-18.3-3.7c0,0,0,0,0,0s-0.1,0-0.3,0c-0.2,0-0.3,0-0.3,0s0,0,0,0
		c-3.1,0-14.5-0.1-18.6,3.7c0,0,3.3-2.7,18.9-2.7C141.8,58.8,144.7,61.4,144.7,61.4z"/>
	
		<rect x="124.6" y="42.1" transform="matrix(-1 -1.224647e-16 1.224647e-16 -1 252.3476 85.1149)" class="st9" width="3.2" height="0.9"/>
	
		<rect x="125.7" y="40.9" transform="matrix(6.123234e-17 -1 1 6.123234e-17 85.9754 168.7313)" class="st9" width="3.2" height="0.9"/>
	
		<rect x="123.4" y="43.5" transform="matrix(6.123234e-17 -1 1 6.123234e-17 81.0779 168.9107)" class="st9" width="3.2" height="0.9"/>
	<rect x="124.6" y="44.7" class="st9" width="3.2" height="0.9"/>
	
		<rect x="124.6" y="37.2" transform="matrix(-1 -1.224647e-16 1.224647e-16 -1 252.3476 75.2784)" class="st9" width="3.2" height="0.9"/>
	
		<rect x="125.7" y="36" transform="matrix(6.123234e-17 -1 1 6.123234e-17 90.8936 163.813)" class="st9" width="3.2" height="0.9"/>
	
		<rect x="123.4" y="38.6" transform="matrix(6.123234e-17 -1 1 6.123234e-17 85.9962 163.9925)" class="st9" width="3.2" height="0.9"/>
	<rect x="124.6" y="39.7" class="st9" width="3.2" height="0.9"/>
	
		<rect x="124.6" y="32.3" transform="matrix(-1 -1.224647e-16 1.224647e-16 -1 252.3476 65.5066)" class="st9" width="3.2" height="0.9"/>
	
		<rect x="125.7" y="31.1" transform="matrix(6.123234e-17 -1 1 6.123234e-17 95.7795 158.9271)" class="st9" width="3.2" height="0.9"/>
	
		<rect x="123.4" y="33.7" transform="matrix(6.123234e-17 -1 1 6.123234e-17 90.8821 159.1066)" class="st9" width="3.2" height="0.9"/>
	<rect x="124.6" y="34.8" class="st9" width="3.2" height="0.9"/>
	
		<rect x="124.6" y="27.4" transform="matrix(-1 -1.224647e-16 1.224647e-16 -1 252.3476 55.6701)" class="st9" width="3.2" height="0.9"/>
	
		<rect x="125.7" y="26.2" transform="matrix(6.123234e-17 -1 1 6.123234e-17 100.6978 154.0089)" class="st9" width="3.2" height="0.9"/>
	
		<rect x="123.4" y="28.7" transform="matrix(6.123234e-17 -1 1 6.123234e-17 95.8003 154.1883)" class="st9" width="3.2" height="0.9"/>
	<rect x="124.6" y="29.9" class="st9" width="3.2" height="0.9"/>
	
		<rect x="132.8" y="43.4" transform="matrix(0.9277 0.3734 -0.3734 0.9277 26.1111 -47.0355)" class="st9" width="3.2" height="0.9"/>
	
		<rect x="132.2" y="41.9" transform="matrix(0.3734 -0.9277 0.9277 0.3734 44.5584 150.6524)" class="st9" width="3.2" height="0.9"/>
	
		<rect x="133.4" y="45.1" transform="matrix(0.3734 -0.9277 0.9277 0.3734 42.3339 153.8305)" class="st9" width="3.2" height="0.9"/>
	
		<rect x="131.9" y="45.8" transform="matrix(-0.9277 -0.3734 0.3734 -0.9277 240.0936 138.9724)" class="st9" width="3.2" height="0.9"/>
	
		<rect x="134.7" y="38.9" transform="matrix(0.9277 0.3734 -0.3734 0.9277 24.5402 -48.0514)" class="st9" width="3.2" height="0.9"/>
	<rect x="134" y="37.3" transform="matrix(0.3734 -0.9277 0.9277 0.3734 49.9416 149.4974)" class="st9" width="3.2" height="0.9"/>
	
		<rect x="135.3" y="40.6" transform="matrix(0.3734 -0.9277 0.9277 0.3734 47.7171 152.6755)" class="st9" width="3.2" height="0.9"/>
	
		<rect x="133.7" y="41.2" transform="matrix(-0.9277 -0.3734 0.3734 -0.9277 245.3377 130.8633)" class="st9" width="3.2" height="0.9"/>
	
		<rect x="136.5" y="34.3" transform="matrix(0.9277 0.3734 -0.3734 0.9277 22.9796 -49.0606)" class="st9" width="3.2" height="0.9"/>
	
		<rect x="135.8" y="32.8" transform="matrix(0.3734 -0.9277 0.9277 0.3734 55.2893 148.3501)" class="st9" width="3.2" height="0.9"/>
	<rect x="137.1" y="36" transform="matrix(0.3734 -0.9277 0.9277 0.3734 53.0649 151.5282)" class="st9" width="3.2" height="0.9"/>
	
		<rect x="135.5" y="36.7" transform="matrix(-0.9277 -0.3734 0.3734 -0.9277 250.5473 122.8076)" class="st9" width="3.2" height="0.9"/>
	
		<rect x="138.3" y="29.8" transform="matrix(0.9277 0.3734 -0.3734 0.9277 21.4087 -50.0765)" class="st9" width="3.2" height="0.9"/>
	
		<rect x="137.7" y="28.2" transform="matrix(0.3734 -0.9277 0.9277 0.3734 60.6725 147.1951)" class="st9" width="3.2" height="0.9"/>
	
		<rect x="138.9" y="31.5" transform="matrix(0.3734 -0.9277 0.9277 0.3734 58.4481 150.3732)" class="st9" width="3.2" height="0.9"/>
	
		<rect x="137.4" y="32.1" transform="matrix(-0.9277 -0.3734 0.3734 -0.9277 255.7914 114.6986)" class="st9" width="3.2" height="0.9"/>
	
		<rect x="116.3" y="43.4" transform="matrix(-0.9277 0.3734 -0.3734 -0.9277 243.64 40.5534)" class="st9" width="3.2" height="0.9"/>
	
		<rect x="116.9" y="41.9" transform="matrix(-0.3734 -0.9277 0.9277 -0.3734 123.5358 168.1226)" class="st9" width="3.2" height="0.9"/>
	
		<rect x="115.7" y="45.1" transform="matrix(-0.3734 -0.9277 0.9277 -0.3734 118.8306 171.4159)" class="st9" width="3.2" height="0.9"/>
	
		<rect x="117.2" y="45.8" transform="matrix(0.9277 -0.3734 0.3734 0.9277 -8.6668 47.7225)" class="st9" width="3.2" height="0.9"/>
	
		<rect x="114.4" y="38.9" transform="matrix(-0.9277 0.3734 -0.3734 -0.9277 238.396 32.4444)" class="st9" width="3.2" height="0.9"/>
	
		<rect x="115.1" y="37.3" transform="matrix(-0.3734 -0.9277 0.9277 -0.3734 125.2458 160.1526)" class="st9" width="3.2" height="0.9"/>
	
		<rect x="113.8" y="40.6" transform="matrix(-0.3734 -0.9277 0.9277 -0.3734 120.5405 163.446)" class="st9" width="3.2" height="0.9"/>
	
		<rect x="115.4" y="41.2" transform="matrix(0.9277 -0.3734 0.3734 0.9277 -7.0959 46.7066)" class="st9" width="3.2" height="0.9"/>
	
		<rect x="112.6" y="34.3" transform="matrix(-0.9277 0.3734 -0.3734 -0.9277 233.1863 24.3887)" class="st9" width="3.2" height="0.9"/>
	
		<rect x="113.3" y="32.8" transform="matrix(-0.3734 -0.9277 0.9277 -0.3734 126.9445 152.2351)" class="st9" width="3.2" height="0.9"/>
	
		<rect x="112" y="36" transform="matrix(-0.3734 -0.9277 0.9277 -0.3734 122.2392 155.5284)" class="st9" width="3.2" height="0.9"/>
	
		<rect x="113.6" y="36.7" transform="matrix(0.9277 -0.3734 0.3734 0.9277 -5.5354 45.6974)" class="st9" width="3.2" height="0.9"/>
	
		<rect x="110.8" y="29.8" transform="matrix(-0.9277 0.3734 -0.3734 -0.9277 227.9422 16.2797)" class="st9" width="3.2" height="0.9"/>
	
		<rect x="111.4" y="28.2" transform="matrix(-0.3734 -0.9277 0.9277 -0.3734 128.6544 144.2651)" class="st9" width="3.2" height="0.9"/>
	
		<rect x="110.2" y="31.5" transform="matrix(-0.3734 -0.9277 0.9277 -0.3734 123.9492 147.5585)" class="st9" width="3.2" height="0.9"/>
	
		<rect x="111.7" y="32.1" transform="matrix(0.9277 -0.3734 0.3734 0.9277 -3.9645 44.6815)" class="st9" width="3.2" height="0.9"/>
	<path class="st9" d="M109.3,22.1l0.9,2.8l-1.5,0.5l-0.9-2.8L109.3,22.1z"/>
	<path class="st9" d="M113.1,21.1l0.7,2.8l-1.5,0.4l-0.7-2.8L113.1,21.1z"/>
	<path class="st9" d="M116.9,20.4l0.4,2.9l-1.6,0.2l-0.4-2.9L116.9,20.4z"/>
	<path class="st9" d="M120.8,20l0.3,2.9l-1.6,0.1l-0.3-2.9L120.8,20z"/>
	<path class="st9" d="M124.7,19.8l0.1,2.9l-1.6,0l-0.1-2.9L124.7,19.8z"/>
	<path class="st9" d="M128.6,19.9l-0.1,2.9l-1.6-0.1l0.1-2.9L128.6,19.9z"/>
	<path class="st9" d="M132.5,20.2l-0.3,2.9l-1.6-0.2l0.3-2.9L132.5,20.2z"/>
	<path class="st9" d="M136.3,20.8l-0.5,2.9l-1.6-0.3l0.5-2.9L136.3,20.8z"/>
	<path class="st9" d="M140.2,21.6l-0.7,2.8L138,24l0.7-2.8L140.2,21.6z"/>
	<path class="st9" d="M143.9,22.8l-0.9,2.7l-1.5-0.5l0.9-2.7L143.9,22.8z"/>
	<path class="st9" d="M114.3,57.2c-1.7,0.3-3.5,0.7-5.2,1.1c0.4-1.8,1-3.6,1.5-5.4C111.9,54.3,113.1,55.7,114.3,57.2z M110.5,57
		c0.6-0.2,1.3-0.3,2-0.4c-0.4-0.5-0.9-1.1-1.4-1.6C110.9,55.6,110.7,56.3,110.5,57z"/>
	<path class="st9" d="M117.9,56.7c-1.7,0.2-3.5,0.5-5.2,0.8c0.5-1.8,1.1-3.6,1.8-5.4C115.7,53.6,116.8,55.1,117.9,56.7z M114.1,56.2
		c0.7-0.1,1.3-0.2,2-0.3c-0.4-0.6-0.8-1.1-1.3-1.7C114.6,54.9,114.3,55.6,114.1,56.2z"/>
	<path class="st9" d="M121.5,56.3c-1.8,0.1-3.5,0.3-5.2,0.6c0.6-1.8,1.3-3.5,2.1-5.2C119.5,53.2,120.5,54.7,121.5,56.3z M117.8,55.7
		c0.7-0.1,1.3-0.2,2-0.2c-0.4-0.6-0.8-1.2-1.2-1.7C118.3,54.4,118,55,117.8,55.7z"/>
	<path class="st9" d="M125.1,56.2c-1.8,0-3.5,0.1-5.3,0.3c0.7-1.7,1.5-3.4,2.4-5.1C123.3,52.9,124.2,54.5,125.1,56.2z M121.5,55.3
		c0.7,0,1.3-0.1,2-0.1c-0.4-0.6-0.7-1.2-1.1-1.8C122,54.1,121.8,54.7,121.5,55.3z"/>
	<path class="st9" d="M128.8,56.2c-1.8-0.1-3.5-0.1-5.3,0c0.8-1.7,1.7-3.3,2.6-5C127.1,52.9,128,54.5,128.8,56.2z M125.1,55.2
		c0.7,0,1.3,0,2,0c-0.3-0.6-0.7-1.2-1-1.8C125.8,53.9,125.5,54.6,125.1,55.2z"/>
	<path class="st9" d="M132.4,56.4c-1.8-0.2-3.5-0.3-5.3-0.3c0.9-1.6,1.9-3.3,2.9-4.8C130.9,53,131.7,54.7,132.4,56.4z M128.8,55.2
		c0.7,0,1.3,0.1,2,0.1c-0.3-0.6-0.6-1.3-0.9-1.9C129.6,54,129.2,54.6,128.8,55.2z"/>
	<path class="st9" d="M136,56.9c-1.7-0.3-3.5-0.4-5.2-0.6c1-1.6,2-3.1,3.2-4.7C134.7,53.4,135.4,55.1,136,56.9z M132.5,55.5
		c0.7,0.1,1.3,0.1,2,0.2c-0.3-0.6-0.5-1.3-0.8-1.9C133.3,54.3,132.9,54.9,132.5,55.5z"/>
	<path class="st9" d="M139.6,57.5c-1.7-0.3-3.5-0.6-5.2-0.8c1.1-1.5,2.2-3,3.4-4.5C138.5,53.9,139.1,55.7,139.6,57.5z M136.2,55.9
		c0.7,0.1,1.3,0.2,2,0.3c-0.2-0.7-0.5-1.3-0.7-2C137,54.8,136.6,55.3,136.2,55.9z"/>
	<path class="st9" d="M143.2,58.3c-1.7-0.4-3.4-0.8-5.2-1.1c1.2-1.5,2.4-2.9,3.6-4.3C142.2,54.7,142.7,56.5,143.2,58.3z M139.8,56.5
		c0.7,0.1,1.3,0.3,2,0.4c-0.2-0.7-0.4-1.3-0.6-2C140.7,55.5,140.3,56,139.8,56.5z"/>
	<path class="st4" d="M119.3,116.6v-10.2l5.8,3.9c0,0-3.8-4.3-4.9-7.1c0,0,4.8,3.8,12.5,2.8l2.1-3.3c-10.6,4-17.4-1.5-17.4-1.5
		c1.1,2.8,4.9,7.1,4.9,7.1l-5.8-3.9v10.2l-6.4,2.7h7.6L119.3,116.6z"/>
	<path class="st1" d="M97.7,58.6c-0.9,1.2,0.1,5,0.1,5s1.4,1.9,2.8,1.6s2.8,0.1,2.8-0.5c0-0.7,2.4-6.5,1.5-6.5"/>
	<polygon class="st10" points="130.7,46.1 136.8,25.8 129.9,30.6 129.9,43.7 131.3,33.2 132.8,33.7 	"/>
	<polygon class="st1" points="133.1,32.5 131.6,32 134.5,29.1 	"/>
	<polygon class="st10" points="122,46.1 115.9,25.8 122.8,30.6 122.8,43.7 121.5,33.2 120,33.7 	"/>
	<polygon class="st1" points="119.6,32.5 121.2,32 118.3,29.1 	"/>
	<polygon class="st1" points="142.8,109.9 142.8,86.3 131.5,86.2 131.5,86.1 126.2,86.1 120.9,86.1 120.9,86.2 109.7,86.3 
		109.7,109.9 94.6,122.7 157.9,122.7 	"/>
	<path class="st1" d="M145.7,56.8c0,0-9.9,0.9-10.1,0.7c-0.2-0.2,0,46.7,0,46.7c16.2,2,28.7-6.6,28.7-6.6l-10.4-24.9
		C153.9,72.6,150.1,60.7,145.7,56.8z"/>
	<path class="st1" d="M145.4,56.8"/>
	<path class="st1" d="M104.1,56.8c0,0,8.9,0.9,9.1,0.7c0.2-0.2,0,46.7,0,46.7c-14.6,2-26-6.6-26-6.6l9.8-23.2c0,0,1.1-8.1,2.6-10.4
		c1.4-2.3,1.4-3.8,1.4-3.8L104.1,56.8"/>
	<path class="st1" d="M104.4,56.8"/>
	<path class="st3" d="M121.9,101.3c1.7,1,3.2,1.2,5.2,1.1c3.9-0.1,7.9-3.1,10-5.1c6.9-6.7,11.5-18.8,11.5-18.8
		c2.1-2.8,2.8-9,1.3-10.9c0.8-3.8,0.9-8.3,0-12.1c-2.9-10.2-15-16.5-15-16.5c-1.5-0.5-3.4-1.1-5-1.1c-1.1,0-2.4,0.6-2.8,1.5
		c-0.4-0.9-1.7-1.6-2.8-1.5c-9.3,0.4-17.3,9.4-19.3,15.4c-1.6,4.6-1.6,9.7-0.6,14.4c-1.5,1.9-0.8,8.1,1.3,10.9c0,0,0,0,0,0
		c0.7,0.7,2.7,2.8,3,3.5c0.4,0.9,2.7,12,13,19C121.7,101.1,121.8,101.2,121.9,101.3z"/>
	<path class="st4" d="M127.3,56.3c0.9,6.9,12,7.5,14.4,12.8c2.2,4.8,0.4,10.4-1.3,15.1c0.5-0.3,1-0.7,1.5-1.3
		c-0.5,2.1-0.6,4.5-1.8,6.4c-2.3,3.5-6,7.4-8.5,9.6c-1.4,1.2-2.3,1.2-4.3,1.2c-1.9,0-2.9,0-4.3-1.2c-2.5-2.2-6.3-6.1-8.5-9.6
		c-1.2-1.9-1.3-4.3-1.8-6.4c0.5,0.6,1,1,1.5,1.3c-1.8-4.7-3.5-10.3-1.3-15.1C115.3,63.8,126.4,63.2,127.3,56.3"/>
	<path class="st3" d="M127.2,85.6c1.3,0,2.8-1.4,4.3-1.6c0-1.3-0.6-2.1-1.5-2.8c1.1,0.1,2.4,1.5,2.8,2.7c0.4,1.4-1.1,1.1-1.8,1.3
		c-1.6,0.4-2.2,1.5-3.8,1.5c-1.6,0-2.2-1.1-3.8-1.5c-0.7-0.2-2.1,0.1-1.8-1.3c0.3-1.2,1.7-2.7,2.8-2.7c-0.8,0.7-1.4,1.5-1.5,2.8
		C124.4,84.2,125.9,85.6,127.2,85.6"/>
	<path class="st3" d="M127.2,89.1c2-1.1,2.5-0.3,6.8,0.9c-0.1-0.6-0.3-1.4-0.5-2.4c1.9,2.2,2.1,3.9,1,3.9c-1-0.4-3.1-1-4.5-1.2
		c-0.3,0-1.7,0.3-2.7,0.3c-1.1,0-2.5-0.3-2.7-0.3c-1.5,0.2-3.6,0.8-4.5,1.2c-1.2,0-0.9-1.6,1-3.9c-0.3,0.9-0.5,1.7-0.5,2.4
		C124.7,88.9,125.3,88,127.2,89.1"/>
	<path class="st3" d="M127.2,93c1.6,0,3.1-0.3,4.7-0.4c-1.5,1.8-2.8,3-4.7,3c-1.9,0-3.2-1.2-4.7-3C124.1,92.7,125.7,93,127.2,93"/>
	<path class="st5" d="M116,73.9l1.3,1c0,0,2.3,0.6,4.2-0.2c-1-1.6-2-2-2-2s-0.3-0.2-0.4,0c-0.2,0.1-0.6,0.3-0.8,0.2
		C118,72.8,116,73.9,116,73.9z"/>
	<path class="st3" d="M124.4,70.5c0.8,1.6,0,2.3-0.5,1.9c-2.7-1-5-3.9-8-3c0,0-2.8,0.6-4.9,3.4c0,0,2.9-1.6,4-1.6
		c1.4-0.1,1.7,0.2,2.6,0.8c-1.1,0.4-2.1,0.8-2.7,2.2c0.5,0.6,1.3,0.8,2.4,0.7c-0.3-0.3-0.5-0.7-0.7-1c0.3-0.2,0.6-0.3,0.9-0.3
		c0.4,1.6,2,1.5,3.7,0.8c-0.6,1.5-2.7,2.4-5.1,1.9c0.9,1.9,4.7,1.6,6.8-1c0.7,0.5,1.1,1.4,1.3,2.4c0.4-0.7,0.5-2.2,0.4-4.1
		C126.1,72.5,125.5,70.8,124.4,70.5"/>
	<path class="st5" d="M138.6,73.9l-1.3,1c0,0-2.3,0.6-4.2-0.2c1-1.6,2-2,2-2s0.3-0.2,0.4,0c0.2,0.1,0.6,0.3,0.8,0.2
		C136.6,72.8,138.6,73.9,138.6,73.9z"/>
	<path class="st3" d="M130.2,70.5c-0.8,1.6,0,2.3,0.5,1.9c2.7-1,5-3.9,8-3c2.2,0.7,3.2,3.2,1.6,3.9c0.3-1.1-0.3-1.7-0.8-1.9
		c-1.1-0.4-1.6,0-2.6,0.5c1.1,0.4,2.1,0.8,2.7,2.2c-0.5,0.6-1.3,0.8-2.4,0.7c0.3-0.3,0.5-0.7,0.7-1c-0.3-0.2-0.6-0.3-0.9-0.3
		c-0.4,1.6-2,1.5-3.7,0.8c0.6,1.5,2.7,2.4,5.1,1.9c-0.9,1.9-4.7,1.6-6.8-1c-0.7,0.5-1.1,1.4-1.3,2.4c-0.4-0.7-0.5-2.2-0.4-4.1
		C128.5,72.5,129.2,70.8,130.2,70.5"/>
	<path class="st6" d="M123.7,83.4c1.7,0.6,2.4,1.5,3.5,1.5c1.2,0,1.8-0.9,3.6-1.5c-0.2-0.8-1-1.6-1-1.6l-1,0.7l0.2-1.2l-0.4-6.9
		l-1.3-0.6l-1.3,0.6l-0.4,6.9l0.2,1.2l-1-0.7C124.7,81.8,123.9,82.6,123.7,83.4z"/>
	<path class="st6" d="M122,69.7c-0.7-1.9-1.8-3.1-1.8-3.1s5,0.8,7,3.8c1.9-3,7-3.8,7-3.8s-1.1,1.2-1.8,3.1c2.3-1.9,6.6-1.4,6.5-1.5
		c-1.9-2.6-4.1-2.4-7.3-4.5c-3.2-2-4.3-3.5-4.3-3.5s-1.1,1.5-4.3,3.5c-3.2,2-5.4,1.8-7.3,4.5C115.5,68.3,119.7,67.7,122,69.7z"/>
	<path class="st6" d="M117.5,84.4c0,0,4.1-2.8,5-6.5c-5.5,2.3-8.5-1.9-8.5-1.9C112.6,80.6,117.5,84.4,117.5,84.4z"/>
	<path class="st6" d="M116.4,89.6c0,0,0.4,1.7,2.3,3c-1.5-2.2,1.4-7.5,1.4-7.5C117.5,87.5,116.4,89.6,116.4,89.6z"/>
	<path class="st6" d="M126,88.2v-1l-3.1-1.3c0,0-1.2,1.9-1.6,3.2c1.8-0.9,3.6-1.1,3.6-1.1L126,88.2z"/>
	<path class="st6" d="M132,77.9c0.8,3.7,5,6.5,5,6.5s4.9-3.8,3.5-8.5C140.5,76,137.5,80.3,132,77.9z"/>
	<path class="st6" d="M134.3,85.1c0,0,2.9,5.3,1.4,7.5c1.9-1.3,2.3-3,2.3-3S137,87.5,134.3,85.1z"/>
	<path class="st6" d="M127.2,96.5c0,0-2.4,0.2-3.5-0.7c0,2.3,0.9,3.1,0.9,3.1s1.2,0.6,2.7,0.5v0c1.5,0,2.7-0.5,2.7-0.5
		s0.9-0.8,0.9-3.1C129.6,96.8,127.2,96.5,127.2,96.5z"/>
	<path class="st6" d="M128.5,87.2v1l1-0.2c0,0,1.8,0.2,3.6,1.1c-0.3-1.2-1.6-3.2-1.6-3.2L128.5,87.2z"/>
	<path class="st4" d="M113.4,68.3c0.2,0,27.8,0,27.8,0s-2.9-6.6-4.2-7.1c-1.3-0.5-7.1-2.4-9.3-2.4c-2.2,0-8,1.1-8.8,1.1"/>
	<path class="st3" d="M109.9,66.8c0.5,0,16,0,16,0l1.8-3.2l1.9,3.3h1.6l0.7-1.6l0.8,1.7h12.3c0,0,1.8-14.3-4.3-16.8
		c-6-2.5-11-5.2-15.1-3.6s-9.7,3.4-11.6,4.8"/>
	<path class="st3" d="M115,74.1c0,0,1.5,2.6,6.5,0.6c0,0,0.3-1.7,0.2-1.7c-0.1,0-3-0.6-3.2-0.5S115,74.1,115,74.1z"/>
	<path class="st3" d="M139.6,74.1c0,0-1.1,1.9-6.4,1c-5.3-0.9,0-1.8,0-1.8s4.5-0.6,4.6-0.6C137.8,72.8,139.6,74.1,139.6,74.1z"/>
	<path class="st3" d="M127.5,70.5v14.4c0,0,0.6-0.1,1.4-0.5c0.8-0.4,1.9-1,1.9-1s-0.3-1.1-1-1.6l-1,0.7l0.1-1.2v-6.6l1.5-1.5
		L127.5,70.5z"/>
	<path class="st3" d="M130.5,75.2c0,0.3,0,6,0,6l1.5-3.3c0,0,1.4,4.8,5,6.5c0,0,4-0.4,6.5-7.6c0,0-1.1,11.4-4.7,14.8
		c0,0-2.6-4.8-4.7-6.8c-2.2-2-2.7-2.7-2.7-2.7s0,1.1-1,1.2c-1,0.1-1.9,0.4-2-0.1c-0.1-0.4,0-10.1,0.1-10.5c0.1-0.4,1.9,0.7,1.9,0.7
		l1.1,1"/>
	<path class="st1" d="M127.5,70.5v14.4c0,0,1.8-0.1,3.9-1.9l0.5-5c0,0-1.4-3,0.8-4.2c2.1-1.2-3.7,0.7-3.8,0.7"/>
	<path class="st1" d="M131.8,75.3c0,0,1.1,7.1,5.2,9c0,0,2.9-1.1,6.9-6.5c4-5.4-0.4,6-0.4,6s-2.7,2.8-3.6,3.3s-1.9,0.3-2.1,0.3
		c-0.2-0.1-6.3-5.8-6.5-6c-0.2-0.3-2.4-2.7-2.4-3.1c0-0.4,0.2-2.2,0.2-2.2l0.4-1.4l0.7-0.8"/>
	<path class="st1" d="M142.8,74.6c0,0-0.5,6.8-5.8,9.7s3.6,1.6,3.8,1.6c0.1-0.1,6-8,6.2-9c0.2-1,1-3.1,0.5-3.6
		c-0.5-0.5-1.9-0.9-1.9-0.9"/>
	<path class="st1" d="M132.4,83.1l1.2,4.6l1.7,2.9l-3.5,2.1c0,0,0.9,6.6-2.7,8c-3.6,1.4,3.8-0.5,4.2-0.9c0.3-0.4,7.6-6.7,7.8-7.9
		c0.2-1.2,0.8-4.2,0.8-4.2l-2-0.9"/>
	<path class="st1" d="M140.8,66.5l-1.3,3.6l1.2,2c0,0,0,1.6-2.6,1.8c0,0,2.3,0.1,2.5,2.9c0.1,2.8-0.5,5.2-3.5,7.7
		c-3,2.6-1.5,3.8-0.6,3.8S143,82,143,82s1.7-0.3,2.6-5.6s2-7.9,1-9.5c-1.1-1.5-0.3-0.8-1.4-2c-1.2-1.3-1.5-1.2-1.5-1.2"/>
	<polyline class="st1" points="139.7,70.4 134.3,65 143.9,64.8 	"/>
	<path class="st6" d="M117.4,101.2c0,0,6.8,5.5,17.4,1.5l-6.3,10l-4.1-1.3l2.8,3.3l-1,2.6h-16.1l6.4-2.7v-10.2l5.8,3.9
		C122.3,108.2,118.5,104,117.4,101.2z"/>
	<polygon class="st7" points="111.2,88.6 113,97.2 109.9,99.5 109.9,88.2 	"/>
	<polygon class="st7" points="108,88.6 106.3,97.2 109.3,99.5 109.3,88.2 	"/>
	<path class="st5" d="M109.4,87.3c1,0,1.8,0.6,2.2,1.4c0.2-0.3,0.3-0.7,0.3-1.1c0-1.4-1.1-2.5-2.5-2.5s-2.5,1.1-2.5,2.5
		c0,0.4,0.1,0.8,0.3,1.1C107.6,87.8,108.5,87.3,109.4,87.3z"/>
	<polygon class="st7" points="146.4,88.6 148.1,97.2 145.1,99.5 145.1,88.2 	"/>
	<polygon class="st7" points="143.2,88.6 141.5,97.2 144.5,99.5 144.5,88.2 	"/>
	<path class="st5" d="M144.6,87.3c1,0,1.8,0.6,2.2,1.4c0.2-0.3,0.3-0.7,0.3-1.1c0-1.4-1.1-2.5-2.5-2.5s-2.5,1.1-2.5,2.5
		c0,0.4,0.1,0.8,0.3,1.1C142.8,87.8,143.6,87.3,144.6,87.3z"/>
	<path class="st2" d="M101.4,21.2c0,0,8.5-4.3,22-4.4c13.5-0.1,26.2,4,26.2,4s1.4,1.5,1.2,1.3c-0.2-0.2-12,28.5-12,28.5
		s-16-1.2-20.4-0.6c-4.3,0.7-5.7,1.2-5.8,0.9C112.7,50.5,101.4,21.2,101.4,21.2z"/>
	<path class="st8" d="M140,71.5"/>
	<path class="st9" d="M145,54.3c-3-5.2-15.5-5.3-18.6-5.3c0,0,0,0,0,0s-0.1,0-0.3,0c-0.2,0-0.3,0-0.3,0s0,0,0,0
		c-3.1,0.1-14.8-0.1-18.9,5.4c0,0,3.4-4,19.2-4C141.9,50.4,145,54.3,145,54.3z"/>
	<path class="st9" d="M147.7,63.8c-3.4-4.1-17.6-4.2-21.1-4.3c0,0,0,0,0,0s-0.1,0-0.3,0c-0.2,0-0.3,0-0.3,0s0,0,0,0
		c-3.5,0-16.8-0.1-21.5,4.3c0,0,3.8-3.1,21.9-3.2C144.2,60.7,147.7,63.8,147.7,63.8z"/>
	<path class="st9" d="M114.9,50.7l-12.4-34.8c14.9-7.4,31.7-7.4,46.6,0l-12.5,35h2.7l13.1-36.5l-1.1-0.6c-16.2-8.5-34.7-8.5-50.9,0
		l-1.1,0.6l13,36.4H114.9z"/>
	<path class="st10" d="M109.3,17.5l0.9,2.8l-1.5,0.5l-0.9-2.8L109.3,17.5z"/>
	<path class="st10" d="M113.1,16.6l0.7,2.8l-1.5,0.4l-0.7-2.8L113.1,16.6z"/>
	<path class="st10" d="M116.9,15.9l0.4,2.9l-1.6,0.2l-0.4-2.9L116.9,15.9z"/>
	<path class="st10" d="M120.8,15.5l0.3,2.9l-1.6,0.1l-0.3-2.9L120.8,15.5z"/>
	<path class="st10" d="M124.7,15.3l0.1,2.9l-1.6,0l-0.1-2.9L124.7,15.3z"/>
	<path class="st10" d="M128.6,15.3l-0.1,2.9l-1.6-0.1l0.1-2.9L128.6,15.3z"/>
	<path class="st10" d="M132.5,15.7l-0.3,2.9l-1.6-0.2l0.3-2.9L132.5,15.7z"/>
	<path class="st10" d="M136.3,16.2l-0.5,2.9l-1.6-0.3l0.5-2.9L136.3,16.2z"/>
	<path class="st10" d="M140.2,17.1l-0.7,2.8l-1.5-0.4l0.7-2.8L140.2,17.1z"/>
	<path class="st10" d="M143.9,18.2L143,21l-1.5-0.5l0.9-2.7L143.9,18.2z"/>
	<path class="st10" d="M111.7,24l0.8,2.4l-1.3,0.4l-0.8-2.4L111.7,24z"/>
	<path class="st10" d="M114.9,23.2l0.6,2.4l-1.3,0.3l-0.6-2.4L114.9,23.2z"/>
	<path class="st10" d="M118.2,22.6l0.4,2.4l-1.3,0.2l-0.4-2.4L118.2,22.6z"/>
	<path class="st10" d="M121.6,22.2l0.2,2.5l-1.3,0.1l-0.2-2.5L121.6,22.2z"/>
	<path class="st10" d="M124.9,22.1l0.1,2.5l-1.4,0l-0.1-2.5L124.9,22.1z"/>
	<path class="st10" d="M128.2,22.1l-0.1,2.5l-1.3,0l0.1-2.5L128.2,22.1z"/>
	<path class="st10" d="M131.5,22.4l-0.2,2.5l-1.3-0.1l0.2-2.5L131.5,22.4z"/>
	<path class="st10" d="M134.8,22.9l-0.4,2.4l-1.3-0.2l0.4-2.4L134.8,22.9z"/>
	<path class="st10" d="M138.1,23.6l-0.6,2.4l-1.3-0.3l0.6-2.4L138.1,23.6z"/>
	<path class="st10" d="M141.3,24.6l-0.8,2.3l-1.3-0.4l0.8-2.3L141.3,24.6z"/>
	<path class="st4" d="M119.3,116.6v-10.2l5.8,3.9c0,0-3.8-4.3-4.9-7.1c0,0,4.8,3.8,12.5,2.8l2.1-3.3c-10.6,4-17.4-1.5-17.4-1.5
		c1.1,2.8,4.9,7.1,4.9,7.1l-5.8-3.9v10.2l-6.4,2.7h7.6L119.3,116.6z"/>
	<path class="st1" d="M97.7,58.6c-0.9,1.2,0.1,5,0.1,5s1.4,1.9,2.8,1.6s2.8,0.1,2.8-0.5c0-0.7,2.4-6.5,1.5-6.5"/>
	<path class="st1" d="M102.3,55c-1,0.9-1.2,5.2-1.2,5.2s2.1,1.6,2.6,0.7c0.5-0.9,1-1.4,1.3-2.2c0.3-0.9,0.4-2.2,0-2.2"/>
	<path class="st9" d="M109.9,43.9c0,0-10,3.9-10.4,10.1c0,0,2.6-5.2,11.2-8.4"/>
	<path class="st9" d="M109.9,43.9c0,0-10,3.9-10.4,10.1c0,0,2.6-5.2,11.2-8.4"/>
	<path class="st9" d="M141.8,43.9c0,0,10,3.9,10.4,10.1c0,0-2.6-5.2-11.2-8.4"/>
	<path class="st9" d="M141.8,43.9c0,0,10,3.9,10.4,10.1c0,0-2.6-5.2-11.2-8.4"/>
	<path class="st1" d="M152,55.8c0.3-0.4,2.1-1.7,2.5-1.4c0.4,0.3,2,0.7,2,0.7s0.2,0.9-0.1,1.2c-0.3,0.3-6.6,7-6.8,6.6
		s-1.6-4.2-1.8-4.4"/>
	<path class="st11" d="M96.9,88.7l-4.5,5.6l8.9-21.7l4.1-2.8l-8.6,20.8l4.5-5.6l-1.2,7.1l3.3-6.4l-0.7,7l1.5-2.6
		c0,0.4,0.1,0.6,0.1,0.6s-2.5,6.7-2.5,7c0,0.3-0.2-6.9-0.2-6.9l-3.3,5.6l0.7-7l-3.3,6.4L96.9,88.7z"/>
	<path class="st11" d="M155.8,88.7l4.5,5.6l-8.9-21.7l-4.1-2.8l8.6,20.8l-4.5-5.6l1.2,7.1l-3.3-6.4l0.7,7l-1.5-2.6
		c0,0.4-0.1,0.6-0.1,0.6s2.5,6.7,2.5,7c0,0.3,0.2-6.9,0.2-6.9l3.3,5.6l-0.7-7l3.3,6.4L155.8,88.7z"/>
	<path class="st5" d="M121.2,73.6c0,0-2.3-1.7-4.9,0.1C116.2,73.7,119.1,76,121.2,73.6z"/>
	<circle class="st3" cx="118.6" cy="73" r="1.4"/>
	<path class="st5" d="M137.6,73.6c0,0-2.3-1.7-4.9,0.1C132.7,73.7,135.5,76,137.6,73.6z"/>
	<circle class="st3" cx="135.1" cy="73" r="1.4"/>
	<circle class="st5" cx="135.4" cy="73.2" r="0.3"/>
	<circle class="st5" cx="119" cy="73.2" r="0.3"/>
	<path class="st1" d="M99.7,70.3c0,0-1.5,10.2,4.3,14c5.8,3.9,3.5-14.4,3.5-14.4l0.8-3.8"/>
	<path class="st10" d="M107,73.6c1-0.8,1.4,0.7,1.4,0.7s-0.2-1.3,1-2c0,0-2.6-0.6-3.6,1.1c0,0-1.8,2.3,2.9,11.6l0.3,1.1l0.6-0.3
		l0.3-0.1c0,0-2.5-4.5-3.3-7.5C106,75.2,106.4,74,107,73.6z"/>
	<path class="st10" d="M110.1,59.1L110.1,59.1c-0.3,0.1-0.6-0.1-0.6-0.5c0-1,0-2,0-3c0-0.3,0.3-0.7,0.6-0.8l0,0
		c0.3-0.1,0.6,0.1,0.6,0.5c0,1,0,2,0,3C110.7,58.6,110.4,59,110.1,59.1z"/>
	<path class="st10" d="M112.4,58.5L112.4,58.5c-0.3,0.1-0.6-0.1-0.6-0.5c0-1,0-2,0-3c0-0.3,0.3-0.7,0.6-0.8l0,0
		c0.3-0.1,0.6,0.1,0.6,0.5c0,1,0,2,0,3C113,58.1,112.7,58.4,112.4,58.5z"/>
	<path class="st10" d="M114.7,58L114.7,58c-0.3,0.1-0.6-0.2-0.6-0.5c0-1,0-2,0-3c0-0.3,0.3-0.7,0.6-0.7l0,0c0.3-0.1,0.6,0.2,0.6,0.5
		c0,1,0,2,0,3C115.4,57.6,115.1,57.9,114.7,58z"/>
	<path class="st10" d="M117.1,57.6L117.1,57.6c-0.3,0.1-0.6-0.2-0.6-0.5c0-1,0-2,0-3c0-0.3,0.3-0.7,0.6-0.7l0,0
		c0.3-0.1,0.6,0.2,0.6,0.5c0,1,0,2,0,3C117.7,57.3,117.4,57.6,117.1,57.6z"/>
	<path class="st10" d="M119.5,57.3L119.5,57.3c-0.3,0-0.6-0.2-0.6-0.5c0-1,0-2,0-3c0-0.3,0.3-0.6,0.6-0.7l0,0c0.3,0,0.6,0.2,0.6,0.6
		c0,1,0,2,0,3C120.1,57,119.8,57.3,119.5,57.3z"/>
	<path class="st10" d="M121.9,57.1L121.9,57.1c-0.3,0-0.6-0.2-0.6-0.6c0-1,0-2,0-3c0-0.3,0.3-0.6,0.6-0.7l0,0c0.3,0,0.6,0.2,0.6,0.6
		c0,1,0,2,0,3C122.5,56.8,122.2,57.1,121.9,57.1z"/>
	<path class="st10" d="M124.2,57L124.2,57c-0.3,0-0.6-0.3-0.6-0.6c0-1,0-2,0-3c0-0.3,0.3-0.6,0.6-0.6l0,0c0.3,0,0.6,0.3,0.6,0.6
		c0,1,0,2,0,3C124.9,56.7,124.6,56.9,124.2,57z"/>
	<path class="st10" d="M126.6,56.9L126.6,56.9c-0.3,0-0.6-0.3-0.6-0.6c0-1,0-2,0-3c0-0.3,0.3-0.6,0.6-0.6l0,0c0.3,0,0.6,0.3,0.6,0.6
		c0,1,0,2,0,3C127.2,56.6,127,56.9,126.6,56.9z"/>
	<path class="st10" d="M129,57L129,57c-0.3,0-0.6-0.3-0.6-0.6c0-1,0-2,0-3c0-0.3,0.3-0.6,0.6-0.6l0,0c0.3,0,0.6,0.3,0.6,0.6
		c0,1,0,2,0,3C129.6,56.7,129.3,57,129,57z"/>
	<path class="st10" d="M131.4,57.1L131.4,57.1c-0.3,0-0.6-0.3-0.6-0.7c0-1,0-2,0-3c0-0.3,0.3-0.6,0.6-0.6l0,0c0.3,0,0.6,0.3,0.6,0.7
		c0,1,0,2,0,3C132,56.9,131.7,57.1,131.4,57.1z"/>
	<path class="st10" d="M133.8,57.3L133.8,57.3c-0.3,0-0.6-0.3-0.6-0.7c0-1,0-2,0-3c0-0.3,0.3-0.6,0.6-0.6l0,0c0.3,0,0.6,0.3,0.6,0.7
		c0,1,0,2,0,3C134.4,57.1,134.1,57.3,133.8,57.3z"/>
	<path class="st10" d="M136.1,57.6L136.1,57.6c-0.3-0.1-0.6-0.4-0.6-0.7c0-1,0-2,0-3c0-0.3,0.3-0.6,0.6-0.5l0,0
		c0.3,0.1,0.6,0.4,0.6,0.7c0,1,0,2,0,3C136.8,57.4,136.5,57.7,136.1,57.6z"/>
	<path class="st10" d="M138.5,58L138.5,58c-0.3-0.1-0.6-0.4-0.6-0.7c0-1,0-2,0-3c0-0.3,0.3-0.6,0.6-0.5l0,0c0.3,0.1,0.6,0.4,0.6,0.7
		c0,1,0,2,0,3C139.1,57.9,138.8,58.1,138.5,58z"/>
	<path class="st10" d="M140.9,58.5L140.9,58.5c-0.3-0.1-0.6-0.4-0.6-0.7c0-1,0-2,0-3c0-0.3,0.3-0.6,0.6-0.5l0,0
		c0.3,0.1,0.6,0.4,0.6,0.8c0,1,0,2,0,3C141.5,58.4,141.2,58.6,140.9,58.5z"/>
	<path class="st10" d="M143.2,59.1L143.2,59.1c-0.3-0.1-0.6-0.4-0.6-0.8c0-1,0-2,0-3c0-0.3,0.3-0.5,0.6-0.5l0,0
		c0.3,0.1,0.6,0.4,0.6,0.8c0,1,0,2,0,3C143.8,58.9,143.5,59.1,143.2,59.1z"/>
	<path class="st10" d="M125.9,44.9c-0.3,0-0.6-0.2-0.6-0.6V30.3c0-0.3,0.2-0.6,0.6-0.6s0.6,0.2,0.6,0.6v14.1
		C126.5,44.7,126.2,44.9,125.9,44.9z"/>
	<path class="st10" d="M121.9,45.3c-0.3,0-0.5-0.2-0.6-0.5l-1.4-14c0-0.3,0.2-0.6,0.5-0.6c0.3,0,0.6,0.2,0.6,0.5l1.4,14
		C122.4,45,122.2,45.3,121.9,45.3C121.9,45.3,121.9,45.3,121.9,45.3z"/>
	<path class="st10" d="M117.9,46.1c-0.3,0-0.5-0.2-0.5-0.4l-3-13.2c-0.1-0.3,0.1-0.6,0.4-0.7c0.3-0.1,0.6,0.1,0.7,0.4l3,13.2
		c0.1,0.3-0.1,0.6-0.4,0.7C118,46.1,118,46.1,117.9,46.1z"/>
	<path class="st10" d="M130,45.3C130,45.3,130,45.3,130,45.3c-0.4,0-0.6-0.3-0.6-0.6l1.4-14c0-0.3,0.3-0.5,0.6-0.5
		c0.3,0,0.5,0.3,0.5,0.6l-1.4,14C130.5,45.1,130.3,45.3,130,45.3z"/>
	<path class="st10" d="M133.9,46.1c0,0-0.1,0-0.1,0c-0.3-0.1-0.5-0.4-0.4-0.7l3-13.2c0.1-0.3,0.4-0.5,0.7-0.4
		c0.3,0.1,0.5,0.4,0.4,0.7l-3,13.2C134.4,45.9,134.2,46.1,133.9,46.1z"/>
	<circle class="st5" cx="103.2" cy="57.1" r="0.6"/>
	<circle class="st5" cx="105" cy="55.4" r="0.6"/>
	<circle class="st5" cx="102" cy="58.9" r="0.6"/>
	<circle class="st5" cx="147.9" cy="57.1" r="0.6"/>
	<circle class="st5" cx="146.3" cy="55.2" r="0.6"/>
	<circle class="st5" cx="148.8" cy="59" r="0.6"/>
	<polyline class="st9" points="163.6,32.3 160.3,33.5 152.2,45 	"/>
	<polyline class="st9" points="170.5,39.3 167.1,39.8 157.6,49.8 	"/>
	<polyline class="st9" points="176,48.2 173.2,48 161.8,55.9 	"/>
	<polyline class="st9" points="179.8,56.9 177.4,56.3 164.9,62.2 	"/>
	<polyline class="st9" points="154.3,27.6 153.5,28 148,40.7 	"/>
	<polyline class="st9" points="87.9,32.3 91.2,33.5 99.3,45 	"/>
	<polyline class="st9" points="81,39.3 84.4,39.8 93.9,49.8 	"/>
	<polyline class="st9" points="75.5,48.2 78.3,48 89.7,55.9 	"/>
	<polyline class="st9" points="71.7,56.9 74.1,56.3 86.6,62.2 	"/>
	<polyline class="st9" points="97.2,27.6 98,28 103.5,40.7 	"/>
	<path class="st12" d="M138.5,74.9c2-1.1,4.8,2.9,4.8,2.9l1.1-1.3l-1.1,0.1c0,0-1.4-2.4-4.4-2.9"/>
	<path class="st12" d="M138.1,74.1c2.1-1.1,5.1,2.9,5.1,2.9l1.1-1.3l-1.1,0.1c0,0-1.5-2.4-4.6-2.9"/>
	<path class="st12" d="M138.1,74.2c2.2-1.4,6.1,2.2,6.1,2.2l1.1-1.5l-1.3,0.3c0,0-1.9-2.2-5.5-2.3"/>
	<path class="st12" d="M115.9,74.9c-2-1.1-4.8,2.9-4.8,2.9l-1.1-1.3l1.1,0.1c0,0,1.4-2.4,4.4-2.9"/>
	<path class="st12" d="M116.3,74.1c-2.1-1.1-5.1,2.9-5.1,2.9l-1.1-1.3l1.1,0.1c0,0,1.5-2.4,4.6-2.9"/>
	<path class="st12" d="M116.4,74.2c-2.2-1.4-6.1,2.2-6.1,2.2l-1.1-1.5l1.3,0.3c0,0,1.9-2.2,5.5-2.3"/>
</g>
<g>
	<g>
		<g>
			<polygon class="st0" points="67,173.9 99.1,173.9 99.1,151.7 92.1,169.4 79.3,169.4 96.9,141.2 100.2,137.2 67.7,137.2 
				67.7,160.1 73.6,141.6 87.1,141.6 69.8,169.4 			"/>
			<path class="st0" d="M64.3,175.4l4.2-6.8l15.9-25.5h-9.7l-8.5,26.6l0-29c0-4.6,0-4.6,1-5l0.2-0.1h36l-5.3,6.4L82,167.9h9.1
				l9.5-24.1v31.6L64.3,175.4z M72.5,140.1h17.3l-20.1,32.3l27.9,0v-12.8l-4.5,11.3H76.6l19.1-30.7l1.3-1.5H69.2c0,2.4,0,7.3,0,11.8
				L72.5,140.1z"/>
		</g>
		<g>
			<path class="st0" d="M64,175.6l4.3-7.1L84,143.3h-9.2L66,170.9l0-30.1c0-4.7,0-4.7,1-5.1l0.3-0.1h36.4l-5.5,6.6l-15.9,25.6H91
				l9.8-24.8v32.6L64,175.6z M72.4,140h17.7L70,172.3l27.5,0v-11.7l-4.2,10.6H76.3l19.3-31l1-1.2H69.4c0,2.2,0,6.2,0,10.5L72.4,140z
				"/>
			<path class="st0" d="M64.5,180.6l0-3.5l-3.2,0l3.2-5.3l0-31.1c0-4.9,0-5.7,2-6.5l0.6-0.2H107l-4.7,5.6v37.4l-36.7,0L64.5,180.6z
				 M73.7,141.8h13l-20.1,32.3l32.6,0v-23.3L92,169.2H79.6l17.5-28l3.5-4.2l-32.9,0c0,0,0,0,0,0c-0.1,0.6-0.1,1.9-0.1,3.7l0,20.5
				L73.7,141.8z M85,166.2H90l8.6-21.7L85,166.2z M75.9,144.8l-5.7,17.9l11.1-17.9H75.9z M67.3,173.8l20.1-32.3H73.5L67.9,159
				l0-21.6h32l-3,3.6L79,169.6h13.2l6.7-17v21.1L67.3,173.8z M91.6,140.3l-18.9,30.4l2.1,0l18.9-30.4H91.6z M95.9,168.4l-0.9,2.4
				l0.9,0V168.4z"/>
		</g>
	</g>
	<g>
		<g>
			<polygon class="st0" points="173.6,169.4 160.8,169.4 153.8,151.7 153.8,173.9 186.1,173.9 183.1,169.4 165.8,141.6 179.3,141.6 
				185.2,160.1 185.2,137.2 152.7,137.2 156,141.2 			"/>
			<path class="st0" d="M188.8,175.4l-36.6,0v-31.6l9.5,24.1h9.1L154.8,142l-5.3-6.4h36l0.3,0.1c0.9,0.4,0.9,0.4,0.9,5l0,29
				l-8.5-26.6h-9.7l15.9,25.5L188.8,175.4z M155.3,172.4l28,0l-1.4-2.2l-18.7-30.1h17.3l3.3,10.3c0-4.8,0-9.4,0-11.8h-27.8l1.4,1.7
				l19,30.5h-16.5l-4.5-11.3V172.4z"/>
		</g>
		<g>
			<path class="st0" d="M189.2,175.6l-37.1,0v-32.6l9.8,24.8h8.6l-15.9-25.6l-5.5-6.6h36.4l0.3,0.1c1.1,0.4,1.1,0.4,1.1,5.2l0,30.1
				l-8.8-27.6h-9.2l15.7,25.2L189.2,175.6z M155.4,172.2l27.5,0l-1.3-1.9L162.8,140h17.7l3,9.3c0-4.3,0-8.3,0-10.5h-27.3l1.2,1.4
				l19.2,30.8h-16.9l-4.2-10.6V172.2z"/>
			<path class="st0" d="M187.3,177.1l-36.7,0v-37.4l-4.7-5.6h39.8l0.5,0.2c2.1,0.8,2.1,1.7,2.1,6.6l0,30.9l3.6,5.5l-3.6,0
				L187.3,177.1z M153.6,174.1l32.7,0l-0.1-0.3l-2.9-4.5l-17.1-27.5h13l6.2,19.4l0-20.5c0-1.8,0-3.2-0.1-3.7c0,0,0,0,0,0l0,0h-32.9
				l3.6,4.3l17.3,27.9h-12.4l-7.3-18.4V174.1z M162.9,166.2h4.9l-13.5-21.7L162.9,166.2z M171.6,144.8l11.1,17.9l-5.7-17.9H171.6z
				 M185.8,173.8l-31.8,0v-21.1l6.7,16.9h13.2l-17.7-28.4l-3.1-3.8H185V159l-5.6-17.5h-13.9l17.5,28.1L185.8,173.8z M178.1,170.7
				l2.1,0l-18.9-30.4h-2.1L178.1,170.7z M156.9,170.7l0.9,0l-0.9-2.4V170.7z"/>
		</g>
	</g>
	<g>
		<g>
			<path class="st0" d="M110.4,158c0,0-0.2,6.2,3.4,10.8c3.6,4.6,9.3,5.8,12.4,5.8c3.2,0,6.3-1.3,6.3-1.3v1.9l14.1-5.6l-4.6-1.7
				v-26.6l2.6-4.2h-14.4l2.3,3.3c0,0,0,20.1,0,22.2c0,2.1,0.3,8.1-6.3,8.1c-6.6,0-6.3-8.1-6.3-8.1v-21.7l1.6-3.6H108l2.3,3.3V158z"
				/>
			<path class="st0" d="M131,177.4v-2c-1.3,0.4-3.1,0.7-4.8,0.7c-4.2,0-9.9-1.7-13.6-6.4c-3.8-4.9-3.7-11.2-3.7-11.7v-17l-3.8-5.2
				h18.8l-2.5,5.4v21.4c0,0.1-0.1,3.6,1.7,5.4c0.8,0.8,1.8,1.2,3.1,1.2c1.6,0,2.7-0.4,3.4-1.1c1.4-1.4,1.4-3.8,1.4-5.2l0-0.3v-21.7
				l-3.7-5.3h19.9l-3.7,6.1v25.2l7.2,2.7L131,177.4z M111.9,158.1c0,0.1-0.1,5.7,3.1,9.8c3.9,5,10,5.2,11.2,5.2
				c2.8,0,5.7-1.2,5.8-1.2l2.1-0.8l0,1.9l8.4-3.4l-1.9-0.7v-28.1l1.4-2.3h-8.8l1,1.4l0,22.9c0,1.6,0,5-2.2,7.3c-1.3,1.3-3.2,2-5.6,2
				c-2.1,0-3.9-0.7-5.2-2.1c-2.7-2.8-2.5-7.4-2.5-7.6l0-22l0.8-1.7H111l0.9,1.3L111.9,158.1z"/>
		</g>
		<g>
			<path class="st0" d="M130.9,177.7v-2c-1.3,0.3-3,0.7-4.7,0.7c-4.2,0-10-1.7-13.7-6.4c-3.8-4.9-3.8-11.3-3.7-11.9v-17l-3.9-5.5
				h19.4l-2.6,5.6v21.4c0,1,0.2,3.8,1.6,5.3c0.7,0.8,1.7,1.1,2.9,1.1c1.5,0,2.6-0.4,3.3-1.1c1.3-1.3,1.3-3.7,1.3-5l0-0.3v-21.6
				l-3.8-5.5h20.5l-3.9,6.3v25l7.5,2.8L130.9,177.7z M112.1,158.1c0,0.1-0.1,5.7,3,9.7c3,3.8,7.8,5.1,11.1,5.1
				c2.8,0,5.7-1.1,5.7-1.2l2.3-0.9v1.9l7.8-3.1l-1.6-0.6v-28.3l1.2-2h-8.2l0.8,1.2l0,22.9c0,1.7,0,5.1-2.3,7.4
				c-1.4,1.4-3.3,2.1-5.7,2.1c-2.2,0-4-0.7-5.4-2.2c-2.7-2.9-2.6-7.5-2.6-7.7l0-22l0.7-1.5h-7.7l0.8,1.1L112.1,158.1z"/>
			<path class="st0" d="M129.4,179.9v-2.4c-1.1,0.2-2.2,0.3-3.2,0.3c-4.6,0-10.9-1.8-14.9-7c-4.1-5.3-4.1-12.1-4.1-12.8l0-16.5
				l-5.4-7.5h22.5l-0.1-0.2h26l-5,8.3v23.5l10.2,3.8L129.4,179.9z M132.4,173.7v1.8l14.7-5.9l-4.9-1.8v-26.5l2.7-4.4h-15l2.5,3.6
				l0,22.4c0,1.5,0,4.3-1.7,6.1c-1,1-2.5,1.5-4.4,1.5c-1.7,0-3-0.5-4-1.6c-2.2-2.3-2.1-6.2-2.1-6.4l0-21.6l1.7-3.8h-14.2l2.5,3.5
				V158c0,0.3-0.1,6.4,3.4,10.9c3.4,4.3,8.7,5.8,12.6,5.8c1.3,0,2.8-0.2,4.3-0.6L132.4,173.7z M123.1,141.5v21c0,1,0.2,3.2,1.2,4.3
				c0.3,0.3,0.8,0.7,1.9,0.7c1.1,0,1.8-0.2,2.3-0.6c0.9-0.9,0.9-3,0.9-4l0-0.3v-21.2l-3.7-5.4L123.1,141.5z M132.7,174.9v-1.9
				l-0.2,0.1c0,0-3.1,1.3-6.3,1.3c-3.6,0-9-1.5-12.3-5.7c-3.4-4.4-3.4-10.2-3.4-10.7l0-17.6l-2.2-3h13l-1.5,3.3l0,21.7
				c0,0.1-0.1,4.3,2.2,6.7c1.1,1.1,2.5,1.7,4.3,1.7c2,0,3.6-0.5,4.6-1.6c1.9-1.9,1.8-4.8,1.8-6.3l0-22.5l-2.1-3.1h13.7l-2.4,4V168
				l4.3,1.6L132.7,174.9z M135.7,168.6v1.9l3.2-1.3v-28.9l0.1-0.1h-3.2l0,22.6c0,1.3,0,3.9-1.2,6.3L135.7,168.6z M113.6,158.1
				c0,0.1-0.1,5.2,2.7,8.8c0.5,0.7,1.2,1.3,1.8,1.8c-1.4-2.9-1.3-5.9-1.3-6.3l0-22h-3.2L113.6,158.1z"/>
		</g>
	</g>
	<g>
		<g>
			<polygon class="st0" points="183.9,179.6 67.8,179.6 67.8,184.5 64.7,191.7 188.4,191.7 183.9,185.3 			"/>
			<path class="st0" d="M191.3,193.2H62.5l3.9-9v-6h119v6.7L191.3,193.2z M67,190.2h118.5l-3.1-4.4v-4.7h-113v3.7L67,190.2z"/>
		</g>
		<g>
			<path class="st0" d="M191.6,193.3H62.2l4-9.2v-6.2h119.4v6.8L191.6,193.3z M67.3,190h117.9l-2.9-4.1v-4.6H69.5v3.5L67.3,190z"/>
			<path class="st0" d="M194.5,194.9H59.9l4.7-11v-7.4H187v7.9L194.5,194.9z M64.5,191.9h124.2l-4.7-6.6v-5.8H67.7v5L64.5,191.9z
				 M188,191.5H65l3-7v-4.7h115.7v5.6L188,191.5z M69.5,188.5h112.7l-1.5-2.2v-3.5H71v2.3L69.5,188.5z"/>
		</g>
	</g>
	<g>
		<g>
			<polygon class="st0" points="241.6,187.7 241,187 241,178.7 233.8,178.7 232.4,177.1 232.4,169.7 226,169.7 224.3,167.7 
				224.3,159.9 217.5,159.9 215.8,157.9 215.8,149.7 208.7,149.7 206.3,146.9 210.8,137.3 193.8,137.3 193.8,137.3 193.8,188.4 
				190.7,191.6 208.9,191.6 205.1,188.8 205,185.5 215.4,174.3 204.7,174.3 204.2,156.3 230.6,188.7 229.2,191.7 234.5,191.7 
				249.3,191.7 249.3,187.7 			"/>
			<path class="st0" d="M250.8,193.2h-23.9l1.9-4.3l-11.7-14.3L206.5,186l0.1,2l6.8,5.1h-26.2l5.1-5.4v-52h20.8l-5.1,10.9l1.3,1.5
				h7.9v9.2l0.9,1.1h7.5v8.7l1,1.1h7.2v8.3l0.6,0.7h8v9l8.3,0V193.2z M231.6,190.2h16.2v-1l-6.9,0l-1.4-1.6v-7.4h-6.4l-2.2-2.6v-6.4
				h-5.5l-2.6-3v-6.8h-5.9l-2.5-2.9v-7.3H208l-3.5-4l3.9-8.4h-13.1V189l-1.1,1.2h10.2l-0.8-0.6l-0.1-4.7l8.4-9.1h-8.7l-0.7-23.9
				l29.8,36.6L231.6,190.2z M206.2,172.8h9.6l-9.9-12.2L206.2,172.8z"/>
		</g>
		<g>
			<path class="st0" d="M251,193.4h-24.3l2-4.4l-11.5-14.1l-10.5,11.2l0.1,1.8l7.2,5.4h-27.1l5.3-5.6v-52.1h21.3l-5.1,11.1l1.2,1.4
				h8v9.3l0.8,1h7.6v8.8l0.9,1h7.3v8.4l0.5,0.6h8.1v9l8.3,0V193.4z M231.8,190h15.8v-0.7l-6.8,0l-1.5-1.7v-7.3H233l-2.3-2.7v-6.3
				h-5.4l-2.7-3.1v-6.7h-5.8l-2.6-3v-7.2h-6.2l-3.6-4.2l3.8-8.3h-12.7V189l-0.9,0.9h9.3l-0.4-0.3l-0.1-4.8l8.2-8.8h-8.5l-0.7-24.6
				l30.2,37.1L231.8,190z M206.3,172.7h9.1l-9.4-11.5L206.3,172.7z"/>
			<path class="st0" d="M252.5,194.9h-28.1l2.6-5.7l-9.8-12.1l-8.9,9.5l0,0.5l10.2,7.6h-35.1l7.4-7.7v-53h25.1l-5.7,12.3l0.1,0.1
				h8.8l0,10.2h8.4l0,9.8h8.1v9h8.6v9l8.3,0V194.9z M229,191.9h20.5v-4.3l-8.2,0l0.3,0.3l7.6,0v3.6h-19.6l1.3-2.8L204,155.8
				l0.5,18.7H215l-10.1,10.9l0.1,3.5l3.4,2.6h-17.3l2.9-3v-51h16.5l-4.4,9.5l2.5,2.9h7v8.1l1.8,2.1h6.6v7.7l1.9,2.1h6.3v7.2l1.5,1.7
				h7.1v8.2l0.3,0.4v-9h-7.3l-1.3-1.5v-7.4h-6.5l-1.7-1.9v-7.9h-6.8l-1.6-1.9v-8.3h-7.2l-2.3-2.6l4.6-9.8h-17.4v51.2l-3.3,3.5h19.1
				l-4.1-3.1l-0.1-3.2l10.6-11.4h-10.9l-0.5-17.4l26,32L229,191.9z M234.2,188.5h4l-0.3-0.3v-6.3h-5.5l-3.1-3.6v-5.3h-4.6l-3.5-4
				v-5.8h-5l-3.5-4v-6.2h-5.4l-4.7-5.4l3.3-7H197v48h4.9l-0.1-4.2l6.3-6.7h-6.5l-0.9-30.5l33.5,41.2L234.2,188.5z M207.8,171.2h4.4
				l-4.6-5.6L207.8,171.2z"/>
		</g>
	</g>
	<g>
		<g>
			<polygon class="st0" points="58.6,137.3 41.7,137.3 46.2,146.9 43.8,149.7 36.6,149.7 36.6,157.9 34.9,159.9 28.2,159.9 
				28.2,167.7 26.4,169.7 20.1,169.7 20.1,177.1 18.7,178.7 11.4,178.7 11.4,187 10.8,187.7 3.2,187.7 3.2,191.7 17.9,191.7 
				23.2,191.7 21.9,188.7 48.3,156.3 47.8,174.3 36,174.3 47.4,186.6 47.4,188.8 43.6,191.6 61.8,191.6 58.6,188.4 			"/>
			<path class="st0" d="M25.5,193.2H1.7v-7l8.3,0v-9h8l0.6-0.7v-8.3h7.2l1-1.1v-8.7h7.5l0.9-1.1v-9.2h7.9l1.3-1.5l-5.1-10.9h20.8v52
				l5.1,5.4H39.1l6.8-5.1l0-0.9l-11.1-11.9l-11.2,13.7L25.5,193.2z M4.7,190.2h16.2l-0.8-1.7L32.7,173l-0.1-0.1h0.3l17-20.9
				l-0.7,23.9h-9.7l9.5,10.2l-0.1,3.6l-0.8,0.6h10.2l-1.1-1.2v-50.2H44l3.9,8.4l-3.5,4h-6.3v7.3l-2.5,2.9h-5.9v6.8l-2.6,3h-5.5v6.4
				l-2.2,2.6h-6.4v7.4l-1.4,1.6l-6.9,0V190.2z M36.7,172.8h9.6l0.3-12.2L36.7,172.8z"/>
		</g>
		<g>
			<path class="st0" d="M25.8,193.4H1.5V186l8.3,0v-9h8.1l0.5-0.6v-8.4h7.3l0.9-1v-8.8h7.6l0.8-1V148h8l1.2-1.4l-5.1-11.1h21.3v52.1
				l5.3,5.6H38.5l7.2-5.4l0-0.7l-10.9-11.7l-11,13.5L25.8,193.4z M4.8,190h15.8l-0.7-1.6L32.5,173l-0.3-0.3h0.6l17.3-21.3L49.4,176
				h-9.5l9.2,9.9l-0.1,3.7l-0.4,0.3h9.3L57,189V139H44.3l3.8,8.3l-3.6,4.2h-6.2v7.2l-2.6,3h-5.8v6.7l-2.7,3.1h-5.4v6.3l-2.3,2.7
				h-6.3v7.3l-1.5,1.7l-6.8,0V190z M37.1,172.7h9.1l0.3-11.5L37.1,172.7z"/>
			<path class="st0" d="M28.1,194.9H0v-10.3l8.3,0v-9h8.6v-9l8.1,0v-9.8l8.5,0v-10.2h8.8l0.1-0.1l-5.7-12.3h25.1v53l7.4,7.7H34
				l9.8-7.4l-9-9.7l-9.3,11.5L28.1,194.9z M3,191.9h20.5l-1.4-3.1l26-32l-0.5,17.4h-12l11.6,12.5l-0.1,2.1l-4.1,3.1h19.1l-3.3-3.5
				v-51.2H41.4l4.6,9.8l-2.3,2.6h-7.2v8.3l-1.6,1.9H28v7.9l-1.7,1.9h-6.5v7.4l-1.3,1.5h-7.3v9l0.3-0.4v-8.2h7.1l1.5-1.7v-7.2h6.3
				l1.9-2.1v-7.7H35l1.8-2.1v-8.1h7l2.5-2.9l-4.4-9.5h16.5v51l2.9,3H44.1l3.4-2.6l0.1-2.4l-11.2-12h11.5l0.5-18.7l-26.8,32.9
				l1.3,2.8H3.3v-3.6l7.6,0l0.3-0.3l-8.2,0V191.9z M14.3,188.5h4l-0.1-0.3l12.4-15.2l-1.4-1.5l-1.2,1.4h-4.6v5.3l-3.1,3.6h-5.5v6.3
				L14.3,188.5z M50.5,188.5h4.9v-48h-8.8l3.3,7l-4.7,5.4h-5.4v6.2l-3.5,4h-5v5.8l-2,2.3h2.7L51.7,147l-0.9,30.5h-7.5l7.3,7.8
				L50.5,188.5z M40.2,171.2h4.4l0.2-5.6L40.2,171.2z"/>
		</g>
	</g>
</g>
<g>
	<polygon points="67,173.9 99.1,173.9 99.1,151.7 92.1,169.4 79.3,169.4 96.9,141.2 100.2,137.2 67.7,137.2 67.7,160.1 73.6,141.6 
		87.1,141.6 69.8,169.4 	"/>
	<polygon points="173.6,169.4 160.8,169.4 153.8,151.7 153.8,173.9 186.1,173.9 183.1,169.4 165.8,141.6 179.3,141.6 185.2,160.1 
		185.2,137.2 152.7,137.2 156,141.2 	"/>
	<path d="M110.4,158c0,0-0.2,6.2,3.4,10.8c3.6,4.6,9.3,5.8,12.4,5.8c3.2,0,6.3-1.3,6.3-1.3v1.9l14.1-5.6l-4.6-1.7v-26.6l2.6-4.2
		h-14.4l2.3,3.3c0,0,0,20.1,0,22.2c0,2.1,0.3,8.1-6.3,8.1c-6.6,0-6.3-8.1-6.3-8.1v-21.7l1.6-3.6H108l2.3,3.3V158z"/>
	<polygon points="183.9,179.6 67.8,179.6 67.8,184.5 64.7,191.7 188.4,191.7 183.9,185.3 	"/>
	<polygon points="241.6,187.7 241,187 241,178.7 233.8,178.7 232.4,177.1 232.4,169.7 226,169.7 224.3,167.7 224.3,159.9 
		217.5,159.9 215.8,157.9 215.8,149.7 208.7,149.7 206.3,146.9 210.8,137.3 193.8,137.3 193.8,137.3 193.8,188.4 190.7,191.6 
		208.9,191.6 205.1,188.8 205,185.5 215.4,174.3 204.7,174.3 204.2,156.3 230.6,188.7 229.2,191.7 234.5,191.7 249.3,191.7 
		249.3,187.7 	"/>
	<polygon points="58.6,137.3 41.7,137.3 46.2,146.9 43.8,149.7 36.6,149.7 36.6,157.9 34.9,159.9 28.2,159.9 28.2,167.7 26.4,169.7 
		20.1,169.7 20.1,177.1 18.7,178.7 11.4,178.7 11.4,187 10.8,187.7 3.2,187.7 3.2,191.7 17.9,191.7 23.2,191.7 21.9,188.7 
		48.3,156.3 47.8,174.3 36,174.3 47.4,186.6 47.4,188.8 43.6,191.6 61.8,191.6 58.6,188.4 	"/>
</g>
<g>
	<path class="st10" d="M79.6,185.7v1.8c0,0.3,0.1,0.5,0.2,0.6s0.3,0.2,0.7,0.2v0.5H77v-0.5c0.3,0,0.6-0.1,0.7-0.2
		c0.1-0.1,0.2-0.3,0.2-0.6v-3.8c0-0.3-0.1-0.5-0.2-0.6c-0.1-0.1-0.3-0.2-0.7-0.2v-0.5h3.4v0.5c-0.3,0-0.6,0.1-0.7,0.2
		c-0.1,0.1-0.2,0.3-0.2,0.6v1.5h2.7v-1.5c0-0.3-0.1-0.5-0.2-0.6c-0.1-0.1-0.3-0.2-0.7-0.2v-0.5h3.4v0.5c-0.3,0-0.6,0.1-0.7,0.2
		s-0.2,0.3-0.2,0.6v3.8c0,0.3,0.1,0.5,0.2,0.6s0.3,0.2,0.7,0.2v0.5h-3.4v-0.5c0.3,0,0.6-0.1,0.7-0.2c0.1-0.1,0.2-0.3,0.2-0.6v-1.8
		H79.6z"/>
	<path class="st10" d="M87.7,182.9v-0.5h3.4v0.5h-0.1c-0.3,0-0.5,0.1-0.6,0.2c-0.1,0.1-0.1,0.3-0.1,0.6v3.8c0,0.3,0.1,0.5,0.2,0.6
		s0.3,0.2,0.6,0.2h0.1v0.5h-3.4v-0.5c0.3,0,0.6-0.1,0.7-0.2s0.2-0.3,0.2-0.6v-3.8c0-0.3-0.1-0.5-0.2-0.6
		C88.3,182.9,88.1,182.9,87.7,182.9z"/>
	<path class="st10" d="M98.4,186.4v-0.5h3v0.5c-0.2,0-0.4,0.1-0.5,0.2s-0.1,0.3-0.1,0.6v1.4c-0.1,0-0.2,0-0.2,0
		c-0.3,0-0.9,0.1-1.6,0.2c-0.5,0.1-1,0.2-1.4,0.2c-1,0-1.8-0.3-2.4-1s-0.9-1.4-0.9-2.3c0-0.9,0.3-1.8,1-2.4c0.6-0.7,1.4-1,2.4-1
		c0.8,0,1.5,0.2,2,0.7c0.1-0.2,0.2-0.4,0.2-0.7h0.5l0.1,2.3H100c-0.3-1.1-1-1.7-1.9-1.7c-0.6,0-1,0.2-1.3,0.6
		c-0.3,0.4-0.4,1.1-0.4,2.1c0,0.7,0,1.2,0.1,1.6s0.3,0.6,0.5,0.8c0.2,0.2,0.6,0.3,1,0.3c0.4,0,0.6-0.1,0.9-0.2
		c0.2-0.2,0.3-0.5,0.3-0.9V187C99.2,186.6,98.9,186.4,98.4,186.4z"/>
	<path class="st10" d="M106.9,185.7v1.8c0,0.3,0.1,0.5,0.2,0.6s0.3,0.2,0.7,0.2v0.5h-3.4v-0.5c0.3,0,0.6-0.1,0.7-0.2
		c0.1-0.1,0.2-0.3,0.2-0.6v-3.8c0-0.3-0.1-0.5-0.2-0.6c-0.1-0.1-0.3-0.2-0.7-0.2v-0.5h3.4v0.5c-0.3,0-0.6,0.1-0.7,0.2
		c-0.1,0.1-0.2,0.3-0.2,0.6v1.5h2.7v-1.5c0-0.3-0.1-0.5-0.2-0.6c-0.1-0.1-0.3-0.2-0.7-0.2v-0.5h3.4v0.5c-0.3,0-0.6,0.1-0.7,0.2
		s-0.2,0.3-0.2,0.6v3.8c0,0.3,0.1,0.5,0.2,0.6s0.3,0.2,0.7,0.2v0.5h-3.4v-0.5c0.3,0,0.6-0.1,0.7-0.2c0.1-0.1,0.2-0.3,0.2-0.6v-1.8
		H106.9z"/>
	<path class="st10" d="M120.3,188.7v-2.2h0.6c0.2,0.7,0.4,1.1,0.7,1.4c0.3,0.3,0.7,0.4,1,0.4c0.3,0,0.5-0.1,0.7-0.2s0.2-0.4,0.2-0.6
		c0-0.2-0.1-0.3-0.2-0.5s-0.3-0.3-0.7-0.5c-0.7-0.4-1.2-0.6-1.5-0.8c-0.3-0.2-0.5-0.4-0.6-0.7c-0.2-0.3-0.2-0.6-0.2-0.9
		c0-0.6,0.2-1,0.6-1.4s0.9-0.5,1.4-0.5c0.6,0,1,0.2,1.4,0.6c0.1-0.1,0.1-0.2,0.2-0.4h0.6v1.9h-0.5c-0.1-0.4-0.3-0.8-0.5-1
		c-0.3-0.3-0.6-0.4-0.9-0.4c-0.3,0-0.5,0.1-0.6,0.2c-0.1,0.1-0.2,0.3-0.2,0.5c0,0.2,0,0.3,0.1,0.5c0.1,0.1,0.2,0.3,0.4,0.3
		c0.2,0.1,0.5,0.3,1,0.5c0.5,0.2,0.8,0.4,1,0.6c0.2,0.2,0.4,0.4,0.5,0.7c0.1,0.3,0.2,0.6,0.2,0.9c0,0.6-0.2,1.1-0.6,1.4
		c-0.4,0.4-0.9,0.6-1.5,0.6c-0.3,0-0.7-0.1-1-0.2c-0.3-0.1-0.6-0.3-0.8-0.6c-0.1,0.1-0.1,0.3-0.2,0.5H120.3z"/>
	<path class="st10" d="M134.4,186.4v2.4h-0.5c-0.1-0.3-0.2-0.5-0.3-0.6c-0.5,0.5-1.3,0.8-2.1,0.8c-1,0-1.8-0.3-2.4-1
		c-0.6-0.7-0.9-1.4-0.9-2.3c0-0.9,0.3-1.7,0.9-2.4s1.4-1,2.5-1c0.8,0,1.5,0.3,2,0.8c0.1-0.2,0.1-0.4,0.2-0.6h0.5l0.1,2.4h-0.5
		c-0.2-0.7-0.4-1.1-0.8-1.5c-0.4-0.3-0.8-0.5-1.3-0.5c-0.6,0-1,0.2-1.3,0.7s-0.4,1.1-0.4,2.1c0,0.7,0.1,1.2,0.2,1.6
		c0.1,0.4,0.3,0.7,0.6,0.9c0.3,0.2,0.6,0.3,1,0.3c0.5,0,0.9-0.2,1.3-0.5c0.4-0.3,0.6-0.8,0.8-1.5H134.4z"/>
	<path class="st10" d="M140.3,185.7v1.8c0,0.3,0.1,0.5,0.2,0.6s0.3,0.2,0.7,0.2v0.5h-3.4v-0.5c0.3,0,0.6-0.1,0.7-0.2
		c0.1-0.1,0.2-0.3,0.2-0.6v-3.8c0-0.3-0.1-0.5-0.2-0.6c-0.1-0.1-0.3-0.2-0.7-0.2v-0.5h3.4v0.5c-0.3,0-0.6,0.1-0.7,0.2
		c-0.1,0.1-0.2,0.3-0.2,0.6v1.5h2.7v-1.5c0-0.3-0.1-0.5-0.2-0.6c-0.1-0.1-0.3-0.2-0.7-0.2v-0.5h3.4v0.5c-0.3,0-0.6,0.1-0.7,0.2
		s-0.2,0.3-0.2,0.6v3.8c0,0.3,0.1,0.5,0.2,0.6s0.3,0.2,0.7,0.2v0.5h-3.4v-0.5c0.3,0,0.6-0.1,0.7-0.2c0.1-0.1,0.2-0.3,0.2-0.6v-1.8
		H140.3z"/>
	<path class="st10" d="M148.7,185.6c0-0.6,0.2-1.2,0.5-1.7c0.3-0.6,0.8-1,1.3-1.2s1.2-0.4,1.8-0.4c1.1,0,2,0.3,2.7,1
		c0.6,0.7,1,1.5,1,2.4c0,0.9-0.3,1.7-1,2.3c-0.6,0.7-1.5,1-2.6,1c-0.8,0-1.4-0.2-2-0.5s-1-0.8-1.3-1.3S148.7,186.1,148.7,185.6z
		 M150.7,185.5c0,1,0.1,1.7,0.4,2.2c0.3,0.4,0.7,0.7,1.2,0.7c0.6,0,1-0.2,1.2-0.6c0.3-0.4,0.4-1.1,0.4-2.1c0-0.9-0.1-1.6-0.4-2.1
		c-0.3-0.5-0.7-0.7-1.3-0.7c-0.5,0-0.9,0.2-1.2,0.6C150.8,183.9,150.7,184.6,150.7,185.5z"/>
	<path class="st10" d="M159.3,185.6c0-0.6,0.2-1.2,0.5-1.7c0.3-0.6,0.8-1,1.3-1.2s1.2-0.4,1.8-0.4c1.1,0,2,0.3,2.7,1
		c0.6,0.7,1,1.5,1,2.4c0,0.9-0.3,1.7-1,2.3c-0.6,0.7-1.5,1-2.6,1c-0.8,0-1.4-0.2-2-0.5s-1-0.8-1.3-1.3S159.3,186.1,159.3,185.6z
		 M161.3,185.5c0,1,0.1,1.7,0.4,2.2c0.3,0.4,0.7,0.7,1.2,0.7c0.6,0,1-0.2,1.2-0.6c0.3-0.4,0.4-1.1,0.4-2.1c0-0.9-0.1-1.6-0.4-2.1
		c-0.3-0.5-0.7-0.7-1.3-0.7c-0.5,0-0.9,0.2-1.2,0.6C161.5,183.9,161.3,184.6,161.3,185.5z"/>
	<path class="st10" d="M175.7,186.7l0,2.2h-5.9v-0.5h0.1c0.3,0,0.5-0.1,0.6-0.2c0.1-0.1,0.1-0.3,0.1-0.6v-3.8c0-0.3-0.1-0.5-0.2-0.6
		c-0.1-0.1-0.3-0.2-0.6-0.2h-0.1v-0.5h3.5v0.5h-0.1c-0.3,0-0.5,0.1-0.6,0.2c-0.1,0.1-0.1,0.3-0.1,0.6v3.7c0,0.3,0,0.5,0,0.6
		c0,0.1,0.1,0.2,0.3,0.2s0.4,0.1,0.7,0.1c0.6,0,1-0.1,1.3-0.4c0.3-0.3,0.5-0.7,0.6-1.2H175.7z"/>
</g>
<g>
	<path class="st10" d="M79.6,185.7v1.8c0,0.3,0.1,0.5,0.2,0.6s0.3,0.2,0.7,0.2v0.5H77v-0.5c0.3,0,0.6-0.1,0.7-0.2
		c0.1-0.1,0.2-0.3,0.2-0.6v-3.8c0-0.3-0.1-0.5-0.2-0.6c-0.1-0.1-0.3-0.2-0.7-0.2v-0.5h3.4v0.5c-0.3,0-0.6,0.1-0.7,0.2
		c-0.1,0.1-0.2,0.3-0.2,0.6v1.5h2.7v-1.5c0-0.3-0.1-0.5-0.2-0.6c-0.1-0.1-0.3-0.2-0.7-0.2v-0.5h3.4v0.5c-0.3,0-0.6,0.1-0.7,0.2
		s-0.2,0.3-0.2,0.6v3.8c0,0.3,0.1,0.5,0.2,0.6s0.3,0.2,0.7,0.2v0.5h-3.4v-0.5c0.3,0,0.6-0.1,0.7-0.2c0.1-0.1,0.2-0.3,0.2-0.6v-1.8
		H79.6z"/>
	<path class="st10" d="M87.7,182.9v-0.5h3.4v0.5h-0.1c-0.3,0-0.5,0.1-0.6,0.2c-0.1,0.1-0.1,0.3-0.1,0.6v3.8c0,0.3,0.1,0.5,0.2,0.6
		s0.3,0.2,0.6,0.2h0.1v0.5h-3.4v-0.5c0.3,0,0.6-0.1,0.7-0.2s0.2-0.3,0.2-0.6v-3.8c0-0.3-0.1-0.5-0.2-0.6
		C88.3,182.9,88.1,182.9,87.7,182.9z"/>
	<path class="st10" d="M98.4,186.4v-0.5h3v0.5c-0.2,0-0.4,0.1-0.5,0.2s-0.1,0.3-0.1,0.6v1.4c-0.1,0-0.2,0-0.2,0
		c-0.3,0-0.9,0.1-1.6,0.2c-0.5,0.1-1,0.2-1.4,0.2c-1,0-1.8-0.3-2.4-1s-0.9-1.4-0.9-2.3c0-0.9,0.3-1.8,1-2.4c0.6-0.7,1.4-1,2.4-1
		c0.8,0,1.5,0.2,2,0.7c0.1-0.2,0.2-0.4,0.2-0.7h0.5l0.1,2.3H100c-0.3-1.1-1-1.7-1.9-1.7c-0.6,0-1,0.2-1.3,0.6
		c-0.3,0.4-0.4,1.1-0.4,2.1c0,0.7,0,1.2,0.1,1.6s0.3,0.6,0.5,0.8c0.2,0.2,0.6,0.3,1,0.3c0.4,0,0.6-0.1,0.9-0.2
		c0.2-0.2,0.3-0.5,0.3-0.9V187C99.2,186.6,98.9,186.4,98.4,186.4z"/>
	<path class="st10" d="M106.9,185.7v1.8c0,0.3,0.1,0.5,0.2,0.6s0.3,0.2,0.7,0.2v0.5h-3.4v-0.5c0.3,0,0.6-0.1,0.7-0.2
		c0.1-0.1,0.2-0.3,0.2-0.6v-3.8c0-0.3-0.1-0.5-0.2-0.6c-0.1-0.1-0.3-0.2-0.7-0.2v-0.5h3.4v0.5c-0.3,0-0.6,0.1-0.7,0.2
		c-0.1,0.1-0.2,0.3-0.2,0.6v1.5h2.7v-1.5c0-0.3-0.1-0.5-0.2-0.6c-0.1-0.1-0.3-0.2-0.7-0.2v-0.5h3.4v0.5c-0.3,0-0.6,0.1-0.7,0.2
		s-0.2,0.3-0.2,0.6v3.8c0,0.3,0.1,0.5,0.2,0.6s0.3,0.2,0.7,0.2v0.5h-3.4v-0.5c0.3,0,0.6-0.1,0.7-0.2c0.1-0.1,0.2-0.3,0.2-0.6v-1.8
		H106.9z"/>
	<path class="st10" d="M120.3,188.7v-2.2h0.6c0.2,0.7,0.4,1.1,0.7,1.4c0.3,0.3,0.7,0.4,1,0.4c0.3,0,0.5-0.1,0.7-0.2s0.2-0.4,0.2-0.6
		c0-0.2-0.1-0.3-0.2-0.5s-0.3-0.3-0.7-0.5c-0.7-0.4-1.2-0.6-1.5-0.8c-0.3-0.2-0.5-0.4-0.6-0.7c-0.2-0.3-0.2-0.6-0.2-0.9
		c0-0.6,0.2-1,0.6-1.4s0.9-0.5,1.4-0.5c0.6,0,1,0.2,1.4,0.6c0.1-0.1,0.1-0.2,0.2-0.4h0.6v1.9h-0.5c-0.1-0.4-0.3-0.8-0.5-1
		c-0.3-0.3-0.6-0.4-0.9-0.4c-0.3,0-0.5,0.1-0.6,0.2c-0.1,0.1-0.2,0.3-0.2,0.5c0,0.2,0,0.3,0.1,0.5c0.1,0.1,0.2,0.3,0.4,0.3
		c0.2,0.1,0.5,0.3,1,0.5c0.5,0.2,0.8,0.4,1,0.6c0.2,0.2,0.4,0.4,0.5,0.7c0.1,0.3,0.2,0.6,0.2,0.9c0,0.6-0.2,1.1-0.6,1.4
		c-0.4,0.4-0.9,0.6-1.5,0.6c-0.3,0-0.7-0.1-1-0.2c-0.3-0.1-0.6-0.3-0.8-0.6c-0.1,0.1-0.1,0.3-0.2,0.5H120.3z"/>
	<path class="st10" d="M134.4,186.4v2.4h-0.5c-0.1-0.3-0.2-0.5-0.3-0.6c-0.5,0.5-1.3,0.8-2.1,0.8c-1,0-1.8-0.3-2.4-1
		c-0.6-0.7-0.9-1.4-0.9-2.3c0-0.9,0.3-1.7,0.9-2.4s1.4-1,2.5-1c0.8,0,1.5,0.3,2,0.8c0.1-0.2,0.1-0.4,0.2-0.6h0.5l0.1,2.4h-0.5
		c-0.2-0.7-0.4-1.1-0.8-1.5c-0.4-0.3-0.8-0.5-1.3-0.5c-0.6,0-1,0.2-1.3,0.7s-0.4,1.1-0.4,2.1c0,0.7,0.1,1.2,0.2,1.6
		c0.1,0.4,0.3,0.7,0.6,0.9c0.3,0.2,0.6,0.3,1,0.3c0.5,0,0.9-0.2,1.3-0.5c0.4-0.3,0.6-0.8,0.8-1.5H134.4z"/>
	<path class="st10" d="M140.3,185.7v1.8c0,0.3,0.1,0.5,0.2,0.6s0.3,0.2,0.7,0.2v0.5h-3.4v-0.5c0.3,0,0.6-0.1,0.7-0.2
		c0.1-0.1,0.2-0.3,0.2-0.6v-3.8c0-0.3-0.1-0.5-0.2-0.6c-0.1-0.1-0.3-0.2-0.7-0.2v-0.5h3.4v0.5c-0.3,0-0.6,0.1-0.7,0.2
		c-0.1,0.1-0.2,0.3-0.2,0.6v1.5h2.7v-1.5c0-0.3-0.1-0.5-0.2-0.6c-0.1-0.1-0.3-0.2-0.7-0.2v-0.5h3.4v0.5c-0.3,0-0.6,0.1-0.7,0.2
		s-0.2,0.3-0.2,0.6v3.8c0,0.3,0.1,0.5,0.2,0.6s0.3,0.2,0.7,0.2v0.5h-3.4v-0.5c0.3,0,0.6-0.1,0.7-0.2c0.1-0.1,0.2-0.3,0.2-0.6v-1.8
		H140.3z"/>
	<path class="st10" d="M148.7,185.6c0-0.6,0.2-1.2,0.5-1.7c0.3-0.6,0.8-1,1.3-1.2s1.2-0.4,1.8-0.4c1.1,0,2,0.3,2.7,1
		c0.6,0.7,1,1.5,1,2.4c0,0.9-0.3,1.7-1,2.3c-0.6,0.7-1.5,1-2.6,1c-0.8,0-1.4-0.2-2-0.5s-1-0.8-1.3-1.3S148.7,186.1,148.7,185.6z
		 M150.7,185.5c0,1,0.1,1.7,0.4,2.2c0.3,0.4,0.7,0.7,1.2,0.7c0.6,0,1-0.2,1.2-0.6c0.3-0.4,0.4-1.1,0.4-2.1c0-0.9-0.1-1.6-0.4-2.1
		c-0.3-0.5-0.7-0.7-1.3-0.7c-0.5,0-0.9,0.2-1.2,0.6C150.8,183.9,150.7,184.6,150.7,185.5z"/>
	<path class="st10" d="M159.3,185.6c0-0.6,0.2-1.2,0.5-1.7c0.3-0.6,0.8-1,1.3-1.2s1.2-0.4,1.8-0.4c1.1,0,2,0.3,2.7,1
		c0.6,0.7,1,1.5,1,2.4c0,0.9-0.3,1.7-1,2.3c-0.6,0.7-1.5,1-2.6,1c-0.8,0-1.4-0.2-2-0.5s-1-0.8-1.3-1.3S159.3,186.1,159.3,185.6z
		 M161.3,185.5c0,1,0.1,1.7,0.4,2.2c0.3,0.4,0.7,0.7,1.2,0.7c0.6,0,1-0.2,1.2-0.6c0.3-0.4,0.4-1.1,0.4-2.1c0-0.9-0.1-1.6-0.4-2.1
		c-0.3-0.5-0.7-0.7-1.3-0.7c-0.5,0-0.9,0.2-1.2,0.6C161.5,183.9,161.3,184.6,161.3,185.5z"/>
	<path class="st10" d="M175.7,186.7l0,2.2h-5.9v-0.5h0.1c0.3,0,0.5-0.1,0.6-0.2c0.1-0.1,0.1-0.3,0.1-0.6v-3.8c0-0.3-0.1-0.5-0.2-0.6
		c-0.1-0.1-0.3-0.2-0.6-0.2h-0.1v-0.5h3.5v0.5h-0.1c-0.3,0-0.5,0.1-0.6,0.2c-0.1,0.1-0.1,0.3-0.1,0.6v3.7c0,0.3,0,0.5,0,0.6
		c0,0.1,0.1,0.2,0.3,0.2s0.4,0.1,0.7,0.1c0.6,0,1-0.1,1.3-0.4c0.3-0.3,0.5-0.7,0.6-1.2H175.7z"/>
</g>
</svg>
